<svg width="40" height="40" viewBox="0 0 40 40" fill="none" xmlns="http://www.w3.org/2000/svg">
<path d="M24 7.5V13.7778C23.6667 14.1852 22.4001 15 20 15V4.5C20 4.22386 20.2239 4 20.5 4C22.433 4 24 5.56701 24 7.5Z" fill="#1D7CE6" fill-opacity="0.1"/>
<path d="M20 39V18C23.6001 18 26.5 16 27.5 15L32 16L38.5 30L30.5 32.5C30.5 33 30.6 34.6 31 37C26.6 38.6 21.8334 39 20 39Z" fill="#1D7CE6" fill-opacity="0.1"/>
<path fill-rule="evenodd" clip-rule="evenodd" d="M20 0C15.5817 0 12 3.58172 12 8V13.756L7.71265 15.0422C7.44855 15.1214 7.22888 15.3062 7.10557 15.5528L0.105573 29.5528C-0.027329 29.8186 -0.0351247 30.1297 0.0842996 30.4019C0.203724 30.674 0.437994 30.8789 0.723595 30.961L8.57011 33.2178L8.01163 36.8479C7.94088 37.3078 8.19663 37.7557 8.62861 37.9285L9 37C8.62861 37.9285 8.62882 37.9286 8.62904 37.9286L8.62959 37.9289L8.63103 37.9294L8.63528 37.9311L8.64924 37.9366L8.69864 37.9558C8.741 37.9721 8.80207 37.9953 8.88086 38.0243C9.03842 38.0823 9.26701 38.1639 9.55877 38.2612C10.142 38.4556 10.9793 38.7131 12.0075 38.9701C14.0595 39.4832 16.8942 40 20 40C23.1058 40 25.9405 39.4832 27.9925 38.9701C29.0207 38.7131 29.858 38.4556 30.4412 38.2612C30.733 38.1639 30.9616 38.0823 31.1191 38.0243C31.1979 37.9953 31.259 37.9721 31.3014 37.9558L31.3508 37.9366L31.3647 37.9311L31.369 37.9294L31.3704 37.9289L31.371 37.9286C31.3712 37.9286 31.3714 37.9285 31 37L31.3714 37.9285C31.8034 37.7557 32.0591 37.3078 31.9884 36.8479L31.4299 33.2178L39.2764 30.961C39.562 30.8789 39.7963 30.674 39.9157 30.4019C40.0351 30.1297 40.0273 29.8186 39.8944 29.5528L32.8944 15.5528C32.7711 15.3062 32.5514 15.1214 32.2873 15.0422L28 13.756V8C28 3.58172 24.4183 0 20 0ZM12.7308 15.6248L12.7308 15.6248L12.2538 16.0503C12.1902 15.9791 12.1377 15.8997 12.0973 15.8148L8.7012 16.8337L2.43233 29.3714L8.87671 31.2249L10.0116 23.8479C10.0956 23.3021 10.6062 22.9276 11.1521 23.0116C11.6979 23.0956 12.0724 23.6062 11.9884 24.1521L10.6807 32.6521L10.1136 36.3378L10.1912 36.3638C10.733 36.5444 11.5207 36.7869 12.4925 37.0299C14.2139 37.4602 16.4954 37.8875 19 37.9811V18.9621C18.2761 18.9067 17.6093 18.7934 17 18.6421V22C17 22.5523 16.5523 23 16 23C15.4477 23 15 22.5523 15 22V17.9414C14.2124 17.5776 13.5951 17.1774 13.148 16.8403C12.867 16.6284 12.6522 16.4407 12.5036 16.3014C12.4292 16.2317 12.3713 16.174 12.3297 16.1312C12.3089 16.1098 12.2922 16.0921 12.2795 16.0785L12.2636 16.0612L12.258 16.055L12.2557 16.0524L12.2547 16.0513L12.2542 16.0508C12.2541 16.0506 12.2539 16.0504 12.7308 15.6248ZM21 18.9621V37.9811C23.5046 37.8875 25.7861 37.4602 27.5075 37.0299C28.4793 36.7869 29.267 36.5444 29.8088 36.3638L29.8864 36.3378L29.3195 32.6532L29.3193 32.6521L28.0116 24.1521C27.9276 23.6062 28.3021 23.0956 28.8479 23.0116C29.3938 22.9276 29.9044 23.3021 29.9884 23.8479L31.1233 31.2249L37.5677 29.3714L31.2988 16.8337L27.9027 15.8148C27.8623 15.8997 27.8098 15.9791 27.7462 16.0503L27.2692 15.6248L27.2692 15.6248C27.7461 16.0504 27.746 16.0506 27.7458 16.0508L27.7453 16.0513L27.7443 16.0524L27.7421 16.055L27.7364 16.0612L27.7205 16.0785C27.7078 16.0921 27.6911 16.1098 27.6703 16.1312C27.6287 16.174 27.5708 16.2317 27.4964 16.3014C27.3478 16.4407 27.1331 16.6284 26.852 16.8403C26.4049 17.1774 25.7877 17.5776 25 17.9414V22C25 22.5523 24.5523 23 24 23C23.4477 23 23 22.5523 23 22V18.6421C22.3908 18.7934 21.7239 18.9067 21 18.9621ZM14.352 15.2434C14.21 15.1362 14.0926 15.0393 14 14.9584V8C14 4.68629 16.6863 2 20 2C23.3137 2 26 4.68629 26 8V14.9584C25.9074 15.0393 25.7901 15.1362 25.648 15.2434C25.2097 15.5738 24.5398 15.9984 23.639 16.3471C22.6907 16.7142 21.4795 17 20 17C18.5205 17 17.3093 16.7142 16.361 16.3471C15.4602 15.9984 14.7903 15.5738 14.352 15.2434ZM20 3C17.2386 3 15 5.23858 15 8V13.7778C15 14.1261 15.1813 14.4494 15.4786 14.6311L16 13.7778C15.4786 14.6311 15.4788 14.6312 15.479 14.6313L15.4794 14.6316L15.4804 14.6322L15.483 14.6338L15.4904 14.6382L15.5139 14.6522C15.5334 14.6638 15.5604 14.6795 15.5944 14.6989C15.6624 14.7377 15.7589 14.7913 15.8798 14.8546C16.1209 14.9809 16.4626 15.1479 16.8727 15.315C17.6774 15.6428 18.8152 16 20 16C21.1848 16 22.3226 15.6428 23.1273 15.315C23.5374 15.1479 23.8792 14.9809 24.1203 14.8546C24.2411 14.7913 24.3376 14.7377 24.4056 14.6989C24.4397 14.6795 24.4666 14.6638 24.4861 14.6522L24.5096 14.6382L24.517 14.6338L24.5196 14.6322L24.5206 14.6316L24.5211 14.6313C24.5213 14.6312 24.5215 14.6311 24 13.7778L24.5215 14.6311C24.8187 14.4494 25 14.1261 25 13.7778V8C25 5.23858 22.7614 3 20 3ZM17.6273 13.4628C17.3861 13.3645 17.1734 13.2662 17 13.1806V8C17 6.34315 18.3432 5 20 5C21.6569 5 23 6.34315 23 8V13.1806C22.8267 13.2662 22.614 13.3645 22.3727 13.4628C21.6774 13.7461 20.8152 14 20 14C19.1848 14 18.3226 13.7461 17.6273 13.4628ZM6 28C6 28.5523 5.55228 29 5 29C4.44771 29 4 28.5523 4 28C4 27.4477 4.44771 27 5 27C5.55228 27 6 27.4477 6 28ZM35 29C35.5523 29 36 28.5523 36 28C36 27.4477 35.5523 27 35 27C34.4477 27 34 27.4477 34 28C34 28.5523 34.4477 29 35 29Z" fill="#1D7CE6"/>
</svg>
