<svg width="18" height="18" viewBox="0 0 18 18" fill="none" xmlns="http://www.w3.org/2000/svg">
<path fill-rule="evenodd" clip-rule="evenodd" d="M3 0C1.34315 0 0 1.34315 0 3V12C0 13.6569 1.34315 15 3 15H15C16.6569 15 18 13.6569 18 12V3C18 1.34315 16.6569 0 15 0H11.8881L11.5993 0.499274C11.079 1.39859 10.1092 2 9 2C7.89084 2 6.92096 1.39859 6.40073 0.499274L6.11192 0H3ZM2 3C2 2.44772 2.44772 2 3 2H4.99978C5.91089 3.21298 7.36307 4 9 4C10.6369 4 12.0891 3.21298 13.0002 2H15C15.5523 2 16 2.44772 16 3V12C16 12.5523 15.5523 13 15 13H3C2.44772 13 2 12.5523 2 12V3Z" fill="#999999"/>
<path d="M4 16C3.44772 16 3 16.4477 3 17C3 17.5523 3.44772 18 4 18H14C14.5523 18 15 17.5523 15 17C15 16.4477 14.5523 16 14 16H4Z" fill="#999999"/>
</svg>
