<svg width="20" height="16" viewBox="0 0 20 16" fill="none" xmlns="http://www.w3.org/2000/svg">
<path d="M18.7434 8.96853L18.7524 9.0065L18.5953 9.14837C18.2975 9.49221 17.9581 9.79793 17.585 10.0585L11.5641 15.4856C11.1967 15.8167 10.7197 16 10.2251 16H9.99222H9.76219C9.26591 16 8.78735 15.8155 8.41952 15.4823L2.48348 10.1055C2.03646 9.80634 1.63576 9.44349 1.2941 9.02848L1.23703 8.97653V8.96354C0.770134 8.39274 0.423409 7.73382 0.217595 7.02621C0.0117805 6.3186 -0.0488717 5.57683 0.0392255 4.84528C0.127323 4.11373 0.362381 3.40742 0.730338 2.76862C1.09829 2.12981 1.59157 1.57164 2.1807 1.12747C2.76982 0.683312 3.44263 0.362292 4.15895 0.183619C4.87527 0.00494538 5.62035 -0.0277144 6.34961 0.0876007C7.07887 0.202916 7.7774 0.463838 8.40327 0.854748C9.02915 1.24566 9.56956 1.75852 9.99222 2.36268C10.4136 1.7547 10.9539 1.23809 11.5806 0.843932C12.2073 0.449778 12.9074 0.186238 13.6389 0.0691624C14.3703 -0.0479128 15.1179 -0.0161029 15.8367 0.162688C16.5555 0.341479 17.2306 0.663551 17.8214 1.10952C18.4122 1.55548 18.9065 2.11612 19.2745 2.7577C19.6425 3.39927 19.8766 4.1085 19.9628 4.84272C20.0489 5.57694 19.9853 6.32096 19.7757 7.03001C19.5662 7.73905 19.215 8.39845 18.7434 8.96853ZM14.4975 2.013C13.6572 2.01464 12.8458 2.31865 12.212 2.86921C11.6916 3.32132 10.9934 4.22703 10.9934 5.01022C10.9934 5.27519 10.8879 5.52931 10.7001 5.71667C10.5124 5.90403 10.2577 6.00929 9.99222 6.00929C9.7267 6.00929 9.47206 5.90403 9.2843 5.71667C9.09655 5.52931 8.99106 5.27519 8.99106 5.01022C9 4.5 8.4551 3.67231 8.32817 3.49393C8.00782 3.04372 7.58489 2.67585 7.09425 2.42058C6.60361 2.1653 6.05929 2.02993 5.50598 2.02558C4.95267 2.02123 4.4062 2.14805 3.91159 2.39558C3.41699 2.64312 2.98835 3.0043 2.66093 3.44942C2.33351 3.89454 2.11671 4.41088 2.0283 4.95595C1.93989 5.50103 1.98241 6.05926 2.1524 6.58472C2.32239 7.11018 2.61496 7.58786 3.00606 7.97846L2.98406 8.00743L9.99222 14.0019L17.0004 8.00743L16.9773 7.97946C17.4665 7.49015 17.7995 6.86714 17.934 6.18913C18.0686 5.51112 17.9988 4.80851 17.7334 4.17007C17.4681 3.53163 17.019 2.98598 16.4431 2.60206C15.8671 2.21813 15.1901 2.01315 14.4975 2.013Z" fill="#999999"/>
</svg>
