<svg width="40" height="40" viewBox="0 0 40 40" fill="none" xmlns="http://www.w3.org/2000/svg">
<path d="M14.2629 39H7.26288V23.5V7.6071C9.98298 6.10873 11.2455 3.71121 11.5129 2L14.2629 3L22.7629 11L16.7629 18.5L14.2629 16V39Z" fill="#1D7CE6" fill-opacity="0.1"/>
<path d="M39.2629 20.5L30.7629 5H29.2629V12L34.2629 20L28.2629 34L31.7629 36L39.2629 20.5Z" fill="#1D7CE6" fill-opacity="0.1"/>
<path fill-rule="evenodd" clip-rule="evenodd" d="M24.1665 0.57177C24.0011 0.222602 23.6493 0 23.2629 0H18.7629C18.4976 0 18.2433 0.105357 18.0558 0.292894L16.9086 1.44003L18.4171 2.75996L19.1771 2H21.1526L19.649 3.83782L21.1549 5.15555L22.7953 3.1507L29.5737 5.7877L37.865 20.0831C38.0316 20.3703 38.0448 20.7215 37.9002 21.0204L31.2904 34.6806L26.5564 32.4956L30.7975 22.3168C31.1639 21.4375 31.0909 20.4364 30.6008 19.6195L28.1204 15.4855C27.8891 15.1001 27.4291 14.9163 26.9959 15.0363C26.5628 15.1563 26.2629 15.5505 26.2629 16V27.2727H26.5659L24.3398 32.6154C24.133 33.1117 24.3556 33.6827 24.8438 33.908L26 34.4416V35H17V37H26V38H17V40L27 40C27.5523 40 28 39.5523 28 39V35.3647L30.4523 36.4965C31.4423 36.9534 32.6158 36.5332 33.0907 35.5517L39.7005 21.8915C40.1343 20.9948 40.0949 19.9413 39.5951 19.0797L31.1279 4.48109C31.0141 4.28482 30.8369 4.1331 30.6254 4.05084L24.1176 1.51912C24.2906 1.2344 24.3118 0.878378 24.1665 0.57177ZM28.2629 23.2V19.6103L28.8858 20.6485C29.0492 20.9208 29.0735 21.2545 28.9514 21.5476L28.2629 23.2ZM8.18917 0.180939C7.92198 0.368086 7.76286 0.673794 7.76286 1.00001C7.76286 1.57877 7.3199 2.5657 6.15132 3.45386C5.02162 4.31248 3.29701 5.00001 0.999985 5.00001C0.447701 5.00001 -1.5228e-05 5.44772 -1.5228e-05 6.00001V9.00001V38C-1.5228e-05 39.1046 0.895416 40 1.99998 40H13C14.1046 40 15 39.1046 15 38V18.2535L16.0919 19.2415C16.2964 19.4265 16.5682 19.5189 16.8431 19.4968C17.1179 19.4747 17.3715 19.34 17.5437 19.1247L23.5437 11.6247C23.8693 11.2177 23.8277 10.629 23.4482 10.2718L14.9482 2.27181C14.8493 2.17866 14.7323 2.10666 14.6046 2.06021L11.8546 1.06021L9.10461 0.0602129C8.79803 -0.051268 8.45636 -0.0062083 8.18917 0.180939ZM10.3222 2.63111C9.5905 4.71597 7.11853 7.62932 1.99998 7.96759V6.96193C4.23851 6.78904 6.04989 6.04305 7.36153 5.04615C8.37083 4.27905 9.1305 3.32094 9.50455 2.33377L10.3222 2.63111ZM1.99998 9.97131C7.95792 9.62434 11.1835 6.19757 12.2025 3.31485L13.7275 3.8694L21.4056 11.0958L16.6458 17.0455L14.6709 15.2585C14.3778 14.9932 13.9558 14.9256 13.5944 15.086C13.233 15.2463 13 15.6046 13 16V38H1.99998V9.97131ZM31.2629 30C30.7106 30 30.2629 30.4477 30.2629 31C30.2629 31.5523 30.7106 32 31.2629 32C31.8152 32 32.2629 31.5523 32.2629 31C32.2629 30.4477 31.8152 30 31.2629 30Z" fill="#1D7CE6"/>
</svg>
