<svg width="18" height="17" viewBox="0 0 18 17" fill="none" xmlns="http://www.w3.org/2000/svg">
<path fill-rule="evenodd" clip-rule="evenodd" d="M9 6C9.26522 6 9.51956 6.10536 9.70709 6.29289C9.89463 6.48043 10 6.73478 10 7V16C10 16.2652 9.89463 16.5196 9.70709 16.7071C9.51956 16.8946 9.26522 17 9 17C8.73478 17 8.48044 16.8946 8.29291 16.7071C8.10537 16.5196 8 16.2652 8 16V7C8 6.73478 8.10537 6.48043 8.29291 6.29289C8.48044 6.10536 8.73478 6 9 6ZM13 0C13.2652 0 13.5196 0.105356 13.7071 0.292892C13.8946 0.480429 14 0.734784 14 1V16C14 16.2652 13.8946 16.5196 13.7071 16.7071C13.5196 16.8946 13.2652 17 13 17C12.7348 17 12.4804 16.8946 12.2929 16.7071C12.1054 16.5196 12 16.2652 12 16V1C12 0.734784 12.1054 0.480429 12.2929 0.292892C12.4804 0.105356 12.7348 0 13 0ZM17 8C17.2652 8 17.5196 8.10536 17.7071 8.29289C17.8946 8.48043 18 8.73478 18 9V16C18 16.2652 17.8946 16.5196 17.7071 16.7071C17.5196 16.8946 17.2652 17 17 17C16.7348 17 16.4804 16.8946 16.2929 16.7071C16.1054 16.5196 16 16.2652 16 16V9C16 8.73478 16.1054 8.48043 16.2929 8.29289C16.4804 8.10536 16.7348 8 17 8ZM5 3C5.26522 3 5.51956 3.10536 5.70709 3.29289C5.89463 3.48043 6 3.73478 6 4V16C6 16.2652 5.89463 16.5196 5.70709 16.7071C5.51956 16.8946 5.26522 17 5 17C4.73478 17 4.48044 16.8946 4.29291 16.7071C4.10537 16.5196 4 16.2652 4 16V4C4 3.73478 4.10537 3.48043 4.29291 3.29289C4.48044 3.10536 4.73478 3 5 3ZM1 8C1.26522 8 1.51956 8.10536 1.70709 8.29289C1.89463 8.48043 2 8.73478 2 9V16C2 16.2652 1.89463 16.5196 1.70709 16.7071C1.51956 16.8946 1.26522 17 1 17C0.734784 17 0.480444 16.8946 0.292908 16.7071C0.105371 16.5196 0 16.2652 0 16V9C0 8.73478 0.105371 8.48043 0.292908 8.29289C0.480444 8.10536 0.734784 8 1 8Z" fill="#999999"/>
</svg>
