<svg width="41" height="40" viewBox="0 0 41 40" fill="none" xmlns="http://www.w3.org/2000/svg">
<path fill-rule="evenodd" clip-rule="evenodd" d="M25.5 9.50001C22.5 11 19 10.5 18 8.50001C17.9416 8.38322 17.8317 8.16533 17.6962 7.89669L17.6955 7.89531L17.6955 7.8953C17.3001 7.11126 16.6874 5.8963 16.5 5.50001C16.4144 5.31901 16.3288 5.12673 16.2457 4.93233C15.8009 3.89129 16.3979 2.72374 17.4799 2.3908L20.3806 1.49827C21.3151 1.21075 22.3204 1.64093 22.7577 2.51539L23.5 4.00001C23.6491 4.29822 23.8575 4.67546 24.0878 5.09246C25.0161 6.77306 26.3012 9.09941 25.5 9.50001ZM30 11H37C37.6015 11 38.1399 11.3731 38.3511 11.9364L39 15H27V14C27 12.3432 28.3431 11 30 11ZM25.5 30.5C22.5 32 19 31.5 18 29.5C17.9416 29.3832 17.8317 29.1653 17.6962 28.8967L17.6955 28.8953C17.3001 28.1113 16.6874 26.8963 16.5 26.5C16.4144 26.319 16.3288 26.1267 16.2457 25.9323C15.8009 24.8913 16.3979 23.7237 17.4799 23.3908L20.3806 22.4983C21.3151 22.2107 22.3204 22.6409 22.7577 23.5154L23.5 25C23.6491 25.2982 23.8575 25.6754 24.0878 26.0924L24.0878 26.0925C25.0161 27.7731 26.3012 30.0994 25.5 30.5ZM30 32H37C37.6015 32 38.1399 32.3731 38.3511 32.9364L39 36.1056L27 36V35C27 33.3432 28.3431 32 30 32Z" fill="#1D7CE6" fill-opacity="0.1"/>
<path fill-rule="evenodd" clip-rule="evenodd" d="M23.6521 2.06816C22.9962 0.756473 21.4882 0.111194 20.0866 0.542476L17.1858 1.435C15.7127 1.88829 14.7875 3.41675 15.189 4.92775C14.9401 5.00172 14.6582 5.07583 14.3402 5.1537C14.0947 5.21383 13.8256 5.27666 13.5403 5.34328C12.9845 5.47303 12.367 5.61718 11.7423 5.78376C9.81004 6.29905 7.5459 7.09059 5.40001 8.7C2.76172 10.6787 1.5297 12.7584 1.09629 14.7915C1.06524 14.9372 1.03844 15.0819 1.01556 15.2257C0.838881 16.3357 1.26999 17.3104 1.97659 17.9761C2.66909 18.6286 3.63318 19 4.62652 19H27H37.2252C39.2728 19 40.7187 16.994 40.0712 15.0514L39.9608 14.7202L39.2127 11.7276C39.0551 11.0973 38.6438 10.5839 38.1042 10.285L38.7727 5.27102C38.9525 3.92223 38.2147 2.39943 36.7502 1.95109C35.5017 1.56887 33.8122 1.42334 31.9453 2.66795C30.9562 3.32732 29.5457 3.5404 27.9628 3.50032C26.6824 3.46791 25.4231 3.27753 24.3438 3.11437L24.1614 3.08683L23.6521 2.06816ZM14.816 7.0963C15.2232 6.99658 15.6277 6.89068 16.0093 6.76733C16.2676 7.28476 16.5815 7.90715 16.814 8.36823L16.8143 8.36886C16.9456 8.62904 17.0508 8.83779 17.1055 8.94721C17.8074 10.351 19.3041 11.0905 20.8649 11.3033C22.4498 11.5195 24.2769 11.2296 25.9472 10.3944C26.3944 10.1708 26.6238 9.77611 26.7079 9.39961C26.7836 9.06067 26.7493 8.72185 26.6964 8.44976C26.5894 7.89931 26.3327 7.2745 26.0605 6.698C25.8369 6.22446 25.5791 5.73534 25.3307 5.27811C26.1349 5.38448 27.0222 5.47715 27.9122 5.49968C29.6209 5.54294 31.5437 5.33936 33.0547 4.33205C34.291 3.50783 35.3195 3.60469 36.1647 3.86347C36.5353 3.97691 36.864 4.45326 36.7902 5.00669L36.1245 10H30C27.7908 10 26 11.7909 26 14L3.43974 14C3.946 12.8333 4.89228 11.5808 6.6 10.3C8.45415 8.90941 10.44 8.20095 12.2577 7.71623C12.8567 7.5565 13.4107 7.42732 13.9451 7.30272L13.9451 7.30272L13.9451 7.30271C14.24 7.23397 14.5288 7.16662 14.816 7.0963ZM37.7192 14L28 14C28 12.8954 28.8954 12 30 12H37C37.1288 12 37.2411 12.0877 37.2724 12.2127L37.7192 14ZM27 16H38.2259C38.2268 16.5321 37.7961 17 37.2252 17H27H4.62652C4.11625 17 3.65047 16.8053 3.34808 16.5204C3.18398 16.3658 3.07157 16.1911 3.01617 16L27 16ZM20.6747 2.45403C21.1419 2.31027 21.6446 2.52537 21.8632 2.96259L22.6056 4.44722C22.7648 4.76571 22.9869 5.16775 23.2185 5.58695C23.2765 5.69184 23.335 5.7978 23.3933 5.9038C23.6932 6.44915 24.0006 7.01964 24.252 7.55201C24.4914 8.059 24.6506 8.47132 24.7184 8.76244C23.4875 9.30291 22.203 9.4673 21.1351 9.32167C19.9458 9.1595 19.1925 8.64904 18.8944 8.05279C18.832 7.92804 18.717 7.69995 18.5767 7.42186L18.5766 7.4215C18.1811 6.63736 17.5853 5.45593 17.404 5.07253C17.325 4.90552 17.2447 4.72512 17.1653 4.53935C16.9727 4.08862 17.2126 3.5193 17.774 3.34656L20.6747 2.45403ZM23.6521 23.0682C22.9962 21.7565 21.4882 21.1112 20.0866 21.5425L17.1858 22.435C15.7127 22.8883 14.7875 24.4167 15.189 25.9278C14.9401 26.0017 14.6582 26.0758 14.3402 26.1537C14.0947 26.2138 13.8256 26.2767 13.5403 26.3433C12.9845 26.473 12.367 26.6172 11.7423 26.7838C9.81004 27.2991 7.5459 28.0906 5.40001 29.7C2.76172 31.6787 1.5297 33.7584 1.09629 35.7915C1.06524 35.9372 1.03844 36.0819 1.01556 36.2257C0.838881 37.3357 1.26999 38.3104 1.97659 38.9761C2.66909 39.6286 3.63318 40 4.62652 40H27H37.2252C39.2728 40 40.7187 37.994 40.0712 36.0514L39.9608 35.7202L39.2127 32.7276C39.0551 32.0973 38.6438 31.5839 38.1042 31.285L38.7727 26.271C38.9525 24.9222 38.2147 23.3994 36.7502 22.9511C35.5017 22.5689 33.8122 22.4233 31.9453 23.668C30.9562 24.3273 29.5457 24.5404 27.9628 24.5003C26.6824 24.4679 25.4231 24.2775 24.3438 24.1144L24.1614 24.0868L23.6521 23.0682ZM14.816 28.0963C15.2232 27.9966 15.6277 27.8907 16.0093 27.7673C16.2676 28.2848 16.5815 28.9071 16.814 29.3682L16.8153 29.3707C16.9461 29.63 17.051 29.8381 17.1055 29.9472C17.8074 31.351 19.3041 32.0905 20.8649 32.3033C22.4498 32.5195 24.2769 32.2296 25.9472 31.3944C26.3944 31.1708 26.6238 30.7761 26.7079 30.3996C26.7836 30.0607 26.7493 29.7218 26.6964 29.4498C26.5894 28.8993 26.3327 28.2745 26.0605 27.698C25.8369 27.2245 25.5791 26.7353 25.3307 26.2781C26.1349 26.3845 27.0222 26.4772 27.9122 26.4997C29.6209 26.5429 31.5437 26.3394 33.0547 25.332C34.291 24.5078 35.3195 24.6047 36.1647 24.8635C36.5353 24.9769 36.864 25.4533 36.7902 26.0067L36.1245 31H30C27.7908 31 26 32.7909 26 35L3.43974 35C3.946 33.8333 4.89228 32.5808 6.6 31.3C8.45415 29.9094 10.44 29.2009 12.2577 28.7162C12.8567 28.5565 13.4107 28.4273 13.9451 28.3027L13.9453 28.3027C14.2401 28.234 14.5289 28.1666 14.816 28.0963ZM37.7192 35L28 35C28 33.8954 28.8954 33 30 33H37C37.1288 33 37.2411 33.0877 37.2724 33.2127L37.7192 35ZM27 37H38.2259C38.2268 37.5321 37.7961 38 37.2252 38H27H4.62652C4.11625 38 3.65047 37.8053 3.34808 37.5204C3.18398 37.3658 3.07157 37.1911 3.01617 37L27 37ZM20.6747 23.454C21.1419 23.3103 21.6446 23.5254 21.8632 23.9626L22.6056 25.4472C22.7648 25.7657 22.9869 26.1677 23.2185 26.587C23.2765 26.6918 23.335 26.7978 23.3933 26.9038C23.6932 27.4492 24.0006 28.0196 24.252 28.552C24.4914 29.059 24.6506 29.4713 24.7184 29.7624C23.4875 30.3029 22.203 30.4673 21.1351 30.3217C19.9458 30.1595 19.1925 29.649 18.8944 29.0528C18.832 28.9281 18.7171 28.7001 18.5769 28.4222L18.5767 28.4219L18.5764 28.4213C18.181 27.6371 17.5853 26.4559 17.404 26.0725C17.325 25.9055 17.2447 25.7251 17.1653 25.5394C16.9727 25.0886 17.2126 24.5193 17.774 24.3466L20.6747 23.454Z" fill="#1D7CE6"/>
</svg>
