<svg width="40" height="40" viewBox="0 0 40 40" fill="none" xmlns="http://www.w3.org/2000/svg">
<path fill-rule="evenodd" clip-rule="evenodd" d="M21.0483 19.7033C22.5 18.81 23.8774 17.9109 25.0601 16.9065C25.2583 18.1971 25.9614 19.5229 27.3838 20.7557C27.4689 20.8294 27.5658 20.8882 27.6704 20.9297C28.1294 21.1116 28.5729 21.291 29.0001 21.4673V36.1772C29.0001 37.1691 28.1507 37.9733 27.1587 37.9733C26.5281 37.9733 25.989 37.6425 25.6643 37.1018L22.9853 32.6407C22.374 31.6228 21.2737 31 20.0864 31H19.9507C18.7549 31 17.6615 31.6747 17.1251 32.7433L15.0992 36.7797C14.7319 37.5114 14.0708 37.9733 13.2521 37.9733C12.0567 37.9733 11.0001 37.0042 11.0001 35.8087V21.4673C11.4273 21.291 11.8707 21.1116 12.3298 20.9297C12.4344 20.8882 12.5313 20.8294 12.6163 20.7557C14.0388 19.5229 14.7419 18.1971 14.9401 16.9065C16.1227 17.9109 17.5002 18.81 18.9519 19.7033C19.5947 20.0989 20.4055 20.0989 21.0483 19.7033ZM9.00008 22.3191C6.2824 23.5139 4.48084 24.4661 3.81862 24.8596C3.5887 24.9963 3.31362 25.0351 3.05485 24.9675C2.79609 24.8999 2.5752 24.7314 2.44154 24.4997L0.133895 20.4997C-0.121394 20.0572 -0.0020955 19.4934 0.410559 19.1923L11.2721 11.2651C11.0927 10.4913 11.0001 9.66261 11.0001 8.76923C11.0001 5.89216 12.3243 3.65919 14.0986 2.18812C15.8274 0.754709 18.0275 0 20.0001 0C21.9727 0 24.1727 0.754709 25.9016 2.18812C27.6759 3.65919 29.0001 5.89216 29.0001 8.76923C29.0001 9.66261 28.9075 10.4913 28.7281 11.2651L39.5896 19.1923C40.0023 19.4934 40.1216 20.0572 39.8663 20.4997L37.5586 24.4997C37.425 24.7314 37.2041 24.8999 36.9453 24.9675C36.6866 25.0351 36.4115 24.9963 36.1815 24.8596C35.5193 24.4661 33.7178 23.5139 31.0001 22.3191V36.1772C31.0001 38.3377 29.1901 39.9733 27.1587 39.9733C25.7689 39.9733 24.6056 39.2237 23.9497 38.1315L21.2707 33.6703C21.021 33.2545 20.5714 33 20.0864 33H19.9507C19.5114 33 19.1096 33.2479 18.9126 33.6405L16.8866 37.6769C16.2241 38.9969 14.9206 39.9733 13.2521 39.9733C11.0559 39.9733 9.00008 38.2097 9.00008 35.8087V22.3191ZM20.0001 18C15.6668 15.3333 13.0001 13.1875 13.0001 8.76923C13.0001 4.35095 17.0001 2 20.0001 2C23.0001 2 27.0001 4.35095 27.0001 8.76923C27.0001 13.1875 24.3334 15.3333 20.0001 18ZM3.6821 22.6478L2.3151 20.2783L11.8551 13.3156C12.3379 13.8879 12.7835 14.6507 12.9401 15.4846C13.1336 16.5146 12.9166 17.7901 11.4298 19.1352C7.81423 20.5746 5.13761 21.8733 3.6821 22.6478ZM36.3181 22.6478L37.6851 20.2783L28.1451 13.3156C27.6622 13.8879 27.2167 14.6507 27.0601 15.4846C26.8666 16.5146 27.0835 17.7901 28.5704 19.1352C32.1859 20.5746 34.8626 21.8733 36.3181 22.6478ZM17.0001 21C16.4478 21 16.0001 21.4477 16.0001 22C16.0001 22.5523 15.5524 23 15.0001 23H14.0001C13.4478 23 13.0001 23.4477 13.0001 24V25C13.0001 27.2091 14.7909 29 17.0001 29H23.0001C25.2092 29 27.0001 27.2091 27.0001 25V24C27.0001 23.4477 26.5524 23 26.0001 23H25.0001C24.4478 23 24.0001 22.5523 24.0001 22C24.0001 21.4477 23.5524 21 23.0001 21H17.0001ZM15.0001 25C16.3063 25 17.4175 24.1652 17.8294 23H22.1708C22.5826 24.1652 23.6939 25 25.0001 25C25.0001 26.1046 24.1047 27 23.0001 27H17.0001C15.8955 27 15.0001 26.1046 15.0001 25ZM22.3653 6.67985C22.7437 7.05737 23.0001 7.69889 23.0001 8.80769C23.0001 9.80845 22.7067 10.5001 22.1717 11.1199C21.6793 11.6904 20.9693 12.2162 20.0001 12.8254C19.0309 12.2162 18.3209 11.6904 17.8285 11.1199C17.2935 10.5001 17.0001 9.80845 17.0001 8.80769C17.0001 7.69889 17.2564 7.05737 17.6349 6.67985C18.0145 6.30114 18.7056 6 20.0001 6C21.2946 6 21.9856 6.30114 22.3653 6.67985ZM23.7777 5.26388C22.8717 4.36006 21.5627 4 20.0001 4C18.4374 4 17.1285 4.36006 16.2224 5.26388C15.3152 6.16889 15.0001 7.43121 15.0001 8.80769C15.0001 10.2922 15.4686 11.4467 16.3145 12.4268C17.1192 13.3589 18.2449 14.1059 19.482 14.8553C19.8004 15.0482 20.1997 15.0482 20.5182 14.8553C21.7553 14.1059 22.881 13.3589 23.6856 12.4268C24.5316 11.4467 25.0001 10.2922 25.0001 8.80769C25.0001 7.43121 24.685 6.16889 23.7777 5.26388Z" fill="#307FDD"/>
<path opacity="0.1" fill-rule="evenodd" clip-rule="evenodd" d="M20 14C17.5238 12.5 16 11.293 16 8.80769C16 6.32241 19.2 5 20 5C20.8 5 24 6.32241 24 8.80769C24 11.293 22.4762 12.5 20 14ZM17 22C17 22.4 15 24.1667 14 25L15.5 28H24L26 25L23 22H17ZM12.1181 13L2 20.3333L4.13014 24C5.01769 23.4762 7.85787 22.0095 12.1181 20.3333C15.5264 17.4 13.5382 14.2222 12.1181 13ZM38 20.3333L27.8819 13C26.4618 14.2222 24.4736 17.4 27.8819 20.3333C32.1421 22.0095 34.9823 23.4762 35.8699 24L38 20.3333Z" fill="#307FDD"/>
</svg>
