<svg width="18" height="18" viewBox="0 0 18 18" fill="none" xmlns="http://www.w3.org/2000/svg">
<path fill-rule="evenodd" clip-rule="evenodd" d="M9 0C6.79086 0 5 1.79086 5 4C5 5.86384 6.27477 7.42994 8 7.87398V9.08579L6.33435 10.7514C5.67742 10.2785 4.87124 10 4 10C1.79086 10 0 11.7909 0 14C0 16.2091 1.79086 18 4 18C6.20914 18 8 16.2091 8 14C8 13.3901 7.8635 12.8121 7.61938 12.2948L9 10.9142L10.3806 12.2948C10.1365 12.8121 10 13.3901 10 14C10 16.2091 11.7909 18 14 18C16.2091 18 18 16.2091 18 14C18 11.7909 16.2091 10 14 10C13.1288 10 12.3226 10.2785 11.6656 10.7514L10 9.08579V7.87398C11.7252 7.42994 13 5.86384 13 4C13 1.79086 11.2091 0 9 0ZM7 4C7 2.89543 7.89543 2 9 2C10.1046 2 11 2.89543 11 4C11 5.10457 10.1046 6 9 6C7.89543 6 7 5.10457 7 4ZM2 14C2 12.8954 2.89543 12 4 12C5.10457 12 6 12.8954 6 14C6 15.1046 5.10457 16 4 16C2.89543 16 2 15.1046 2 14ZM14 12C12.8954 12 12 12.8954 12 14C12 15.1046 12.8954 16 14 16C15.1046 16 16 15.1046 16 14C16 12.8954 15.1046 12 14 12Z" fill="#999999"/>
</svg>
