<?xml version="1.0" encoding="UTF-8"?>
<svg width="195px" height="56px" viewBox="0 0 195 56" version="1.1" xmlns="http://www.w3.org/2000/svg" xmlns:xlink="http://www.w3.org/1999/xlink">
    <!-- Generator: Sketch 53.1 (72631) - https://sketchapp.com -->
    <title>Group 49</title>
    <desc>Created with Sketch.</desc>
    <defs>
        <polygon id="path-1" points="0.7513 0.1541 14.67 0.1541 14.67 22.0711 0.7513 22.0711"></polygon>
        <polygon id="path-3" points="0.6402 0.449 23.0472 0.449 23.0472 8.1525 0.6402 8.1525"></polygon>
        <polygon id="path-5" points="0 0.5422 49.6528 0.5422 49.6528 47 0 47"></polygon>
        <polygon id="path-7" points="0 0.4328 46.6134 0.4328 46.6134 32.9998 0 32.9998"></polygon>
    </defs>
    <g id="Page-1" stroke="none" stroke-width="1" fill="none" fill-rule="evenodd">
        <g id="Group-49" transform="translate(0.000000, -1.000000)">
            <polygon id="Fill-1" fill="#3A3F4C" points="67.0442 35.6228 67.0442 13.7368 84.2802 13.7368 84.2802 35.6228 81.2112 35.6228 81.2112 16.4028 70.1132 16.4028 70.1132 35.6228"></polygon>
            <g id="Group-48" transform="translate(0.000000, 0.551300)">
                <path d="M91.9993,27.1975 C91.9993,28.8305 92.5203,30.1785 93.5643,31.2435 C94.6073,32.3075 95.8843,32.8395 97.3933,32.8395 C98.8813,32.8395 100.1523,32.3015 101.2063,31.2275 C102.2603,30.1535 102.7873,28.8095 102.7873,27.1975 C102.7873,25.5855 102.2603,24.2525 101.2063,23.1985 C100.1523,22.1445 98.8813,21.6175 97.3933,21.6175 C95.8843,21.6175 94.6073,22.1445 93.5643,23.1985 C92.5203,24.2525 91.9993,25.5855 91.9993,27.1975 M88.9303,27.1975 C88.9303,24.8625 89.7463,22.9145 91.3793,21.3535 C93.0123,19.7945 95.0063,19.0135 97.3623,19.0135 C99.7383,19.0135 101.7433,19.7885 103.3763,21.3385 C105.0083,22.8885 105.8253,24.8415 105.8253,27.1975 C105.8253,29.5535 105.0083,31.5165 103.3763,33.0875 C101.7433,34.6585 99.7493,35.4435 97.3933,35.4435 C95.0373,35.4435 93.0373,34.6585 91.3953,33.0875 C89.7513,31.5165 88.9303,29.5535 88.9303,27.1975" id="Fill-2" fill="#3A3F4C"></path>
                <polygon id="Fill-4" fill="#3A3F4C" points="110.2278 35.0715 110.2278 19.3855 113.2348 19.3855 113.2348 25.7095 115.4358 25.7095 119.7128 19.3855 123.1238 19.3855 117.8848 26.8565 117.8848 26.9185 123.7438 35.0715 120.1788 35.0715 115.4978 28.2825 113.2348 28.2825 113.2348 35.0715"></polygon>
                <path d="M126.4085,38.3264 C126.9865,38.7804 127.5865,39.0084 128.2065,39.0084 C129.4675,39.0084 130.4185,38.2334 131.0585,36.6834 L131.8335,34.8864 L125.2625,19.3864 L128.6405,19.3864 L132.5775,29.6464 L133.1665,31.5374 L133.2285,31.5374 C133.3935,30.8354 133.5695,30.2154 133.7565,29.6784 L137.5685,19.3864 L140.8235,19.3864 L133.4455,37.8924 C132.9905,39.0914 132.3135,40.0054 131.4155,40.6364 C130.5155,41.2654 129.4985,41.5814 128.3615,41.5814 C127.8455,41.5814 127.3395,41.4984 126.8435,41.3334 C126.3465,41.1684 125.9745,41.0034 125.7265,40.8374 L125.3545,40.6204 L126.4085,38.3264 Z" id="Fill-6" fill="#3A3F4C"></path>
                <polygon id="Fill-8" fill="#3A3F4C" points="144.5432 35.0715 144.5432 19.3855 158.2452 19.3855 158.2452 35.0715 155.2372 35.0715 155.2372 21.9585 147.5502 21.9585 147.5502 35.0715"></polygon>
                <path d="M165.3752,30.5452 C165.3752,31.2282 165.6332,31.8162 166.1492,32.3132 C166.6662,32.8092 167.3902,33.0572 168.3192,33.0572 C169.5602,33.0572 170.5722,32.5402 171.3572,31.5062 C172.1432,30.4732 172.5362,29.3262 172.5362,28.0662 L172.5362,27.4772 L171.7612,27.4772 C167.5032,27.4772 165.3752,28.4992 165.3752,30.5452 M162.3682,30.7932 C162.3682,29.6362 162.6872,28.6652 163.3292,27.8792 C163.9692,27.0942 164.8212,26.5312 165.8862,26.1902 C166.9502,25.8492 167.9382,25.6162 168.8472,25.4922 C169.7562,25.3682 170.7172,25.3072 171.7292,25.3072 L172.5362,25.3072 L172.5362,24.9962 C172.5362,22.7022 171.3892,21.5562 169.0952,21.5562 C167.5862,21.5562 166.1192,22.0622 164.6922,23.0742 L163.4832,20.8732 C164.1242,20.3362 164.9922,19.8922 166.0882,19.5402 C167.1832,19.1902 168.2682,19.0142 169.3432,19.0142 C171.3272,19.0142 172.8552,19.5402 173.9312,20.5952 C175.0052,21.6492 175.5432,23.1672 175.5432,25.1512 L175.5432,35.0712 L172.7222,35.0712 L172.7222,33.4902 L172.8142,32.2502 L172.7532,32.2502 C172.2772,33.1812 171.5792,33.9452 170.6602,34.5442 C169.7402,35.1442 168.7232,35.4432 167.6062,35.4432 C166.1812,35.4432 164.9512,35.0202 163.9182,34.1722 C162.8842,33.3252 162.3682,32.1992 162.3682,30.7932" id="Fill-10" fill="#3A3F4C"></path>
                <g id="Group-14" transform="translate(180.000000, 13.000000)">
                    <mask id="mask-2" fill="white">
                        <use xlink:href="#path-1"></use>
                    </mask>
                    <g id="Clip-13"></g>
                    <path d="M7.6643,4.5871 C6.4033,4.5871 5.3233,4.2311 4.4243,3.5181 C3.5253,2.8051 3.0763,1.8391 3.0763,0.6191 L3.0763,0.1541 L5.4943,0.1541 L5.4943,0.5881 C5.4943,1.2301 5.7113,1.7311 6.1443,2.0921 C6.5793,2.4541 7.0853,2.6351 7.6643,2.6351 C8.2633,2.6351 8.7793,2.4541 9.2143,2.0921 C9.6473,1.7311 9.8653,1.2191 9.8653,0.5581 L9.8653,0.1541 L12.2523,0.1541 L12.2523,0.6191 C12.2523,1.8391 11.8073,2.8051 10.9193,3.5181 C10.0303,4.2311 8.9453,4.5871 7.6643,4.5871 L7.6643,4.5871 Z M0.7513,22.0711 L0.7513,6.3861 L3.6343,6.3861 L3.6343,15.7471 C3.6343,16.8431 3.6023,17.5451 3.5413,17.8561 L3.6023,17.8561 C3.7063,17.6081 4.1713,16.9051 4.9983,15.7471 L11.7563,6.3861 L14.6703,6.3861 L14.6703,22.0711 L11.7563,22.0711 L11.7563,12.7091 C11.7563,12.4201 11.7713,12.0121 11.8033,11.4841 C11.8333,10.9581 11.8493,10.6741 11.8493,10.6321 L11.7873,10.6321 C11.7663,10.6741 11.3113,11.3661 10.4233,12.7091 L3.6343,22.0711 L0.7513,22.0711 Z" id="Fill-12" fill="#3A3F4C" mask="url(#mask-2)"></path>
                </g>
                <path d="M69.5784,44.8762 C70.4104,44.8762 71.3404,45.1622 71.9364,45.7942 L71.3644,46.6392 C70.9434,46.2162 70.2854,45.9192 69.6284,45.9192 C68.3624,45.9192 67.4454,46.8732 67.4454,48.1522 C67.4454,49.4302 68.3624,50.4092 69.6654,50.4092 C70.3594,50.4092 71.1174,50.0742 71.6004,49.5652 L72.0844,50.4472 C71.5134,51.0552 70.5584,51.4522 69.5784,51.4522 C67.5944,51.4522 66.2164,50.0502 66.2164,48.1642 C66.2164,46.3032 67.6064,44.8762 69.5784,44.8762" id="Fill-15" fill="#01BF62"></path>
                <path d="M76.5266,50.4094 C77.7056,50.4094 78.6856,49.4664 78.6856,48.1524 C78.6856,46.8494 77.7056,45.9194 76.5266,45.9194 C75.3356,45.9194 74.3686,46.8494 74.3686,48.1524 C74.3686,49.4664 75.3356,50.4094 76.5266,50.4094 M76.5146,44.8764 C78.3876,44.8764 79.9016,46.2544 79.9016,48.1524 C79.9016,50.0624 78.3876,51.4524 76.5266,51.4524 C74.6536,51.4524 73.1396,50.0624 73.1396,48.1524 C73.1396,46.2544 74.6536,44.8764 76.5146,44.8764" id="Fill-17" fill="#01BF62"></path>
                <path d="M89.221,42.3948 C90.349,42.3948 91.577,42.7438 92.421,43.5488 L91.801,44.4678 C91.156,43.8968 90.175,43.5118 89.27,43.5118 C87.235,43.5118 86.032,45.0128 86.032,46.8628 C86.032,48.7228 87.261,50.3238 89.295,50.3238 C90.275,50.3238 91.28,49.8888 91.987,49.1808 L92.644,50.0628 C91.901,50.8068 90.809,51.4528 89.258,51.4528 C86.541,51.4528 84.766,49.4428 84.766,46.8738 C84.766,44.3318 86.616,42.3948 89.221,42.3948" id="Fill-19" fill="#01BF62"></path>
                <path d="M96.8889,50.4348 C97.8809,50.4348 98.6879,49.7148 98.6879,48.4988 C98.6879,47.2708 97.8809,46.5388 96.9379,46.5388 C95.8709,46.5388 95.1149,47.3708 95.1149,48.4738 C95.1149,49.7148 95.9209,50.4348 96.8889,50.4348 M96.6909,43.1648 L98.9359,42.1968 L99.3329,43.1888 L96.9259,44.1938 C95.6729,44.7658 95.0769,45.4968 94.9909,46.7008 L95.0149,46.7008 C95.5739,45.8568 96.4049,45.5828 97.2359,45.5828 C98.8109,45.5828 99.9029,46.7008 99.9029,48.4738 C99.9029,50.2108 98.7129,51.4528 96.9379,51.4528 C94.8169,51.4528 93.8619,49.8638 93.8619,47.6928 C93.8619,45.4478 94.5069,44.0818 96.6909,43.1648" id="Fill-21" fill="#01BF62"></path>
                <path d="M105.9583,47.4573 C105.9213,46.3773 105.2513,45.8073 104.4323,45.8073 C103.5013,45.8073 102.7703,46.4153 102.5963,47.4573 L105.9583,47.4573 Z M104.4573,44.8763 C106.2313,44.8763 107.1733,46.2043 107.1733,47.8163 C107.1733,47.9783 107.1493,48.1523 107.1243,48.3253 L102.5593,48.3253 C102.6213,49.6783 103.5883,50.4093 104.7183,50.4093 C105.3873,50.4093 106.0703,50.1243 106.5663,49.6783 L107.0753,50.5593 C106.4663,51.1173 105.5123,51.4523 104.6443,51.4523 C102.6703,51.4523 101.3063,50.0253 101.3063,48.1643 C101.3063,46.1673 102.6703,44.8763 104.4573,44.8763 L104.4573,44.8763 Z" id="Fill-23" fill="#01BF62"></path>
                <path d="M111.8767,50.4094 C112.8697,50.4094 113.6877,49.6034 113.6877,48.1764 C113.6877,46.8114 112.9557,45.9304 111.9147,45.9304 C110.9717,45.9304 110.1027,46.6004 110.1027,48.1884 C110.1027,49.3054 110.7227,50.4094 111.8767,50.4094 L111.8767,50.4094 Z M108.9367,45.0254 L110.0537,45.0254 L110.0537,45.5834 C110.0537,45.8454 110.0157,46.0554 110.0157,46.0554 L110.0417,46.0554 C110.4377,45.2984 111.2317,44.8764 112.1497,44.8764 C113.8497,44.8764 114.9037,46.2164 114.9037,48.1644 C114.9037,50.1614 113.7127,51.4524 112.0637,51.4524 C111.2697,51.4524 110.5497,51.0554 110.1157,50.3854 L110.0907,50.3854 C110.0907,50.3854 110.1397,50.6084 110.1397,50.9304 L110.1397,53.7844 L108.9367,53.7844 L108.9367,45.0254 Z" id="Fill-25" fill="#01BF62"></path>
                <path d="M119.4583,50.4348 C120.4513,50.4348 121.2573,49.7148 121.2573,48.4988 C121.2573,47.2708 120.4513,46.5388 119.5083,46.5388 C118.4413,46.5388 117.6853,47.3708 117.6853,48.4738 C117.6853,49.7148 118.4903,50.4348 119.4583,50.4348 M119.2603,43.1648 L121.5053,42.1968 L121.9023,43.1888 L119.4953,44.1938 C118.2433,44.7658 117.6473,45.4968 117.5603,46.7008 L117.5853,46.7008 C118.1433,45.8568 118.9753,45.5828 119.8063,45.5828 C121.3813,45.5828 122.4733,46.7008 122.4733,48.4738 C122.4733,50.2108 121.2823,51.4528 119.5083,51.4528 C117.3873,51.4528 116.4313,49.8638 116.4313,47.6928 C116.4313,45.4478 117.0763,44.0818 119.2603,43.1648" id="Fill-27" fill="#01BF62"></path>
                <path d="M126.1458,50.4963 C127.2008,50.4963 127.8328,49.4303 127.8328,48.4993 L127.8328,48.2643 L127.5228,48.2643 C126.6298,48.2643 124.9678,48.3383 124.9678,49.4913 C124.9678,49.9873 125.3648,50.4963 126.1458,50.4963 M127.5108,47.3943 L127.8328,47.3943 L127.8328,47.2703 C127.8328,46.2413 127.2378,45.8933 126.4568,45.8933 C125.8358,45.8933 125.2028,46.1423 124.6938,46.5023 L124.2108,45.6213 C124.7198,45.1993 125.6748,44.8763 126.5558,44.8763 C128.1308,44.8763 129.0368,45.7453 129.0368,47.3333 L129.0368,51.3033 L127.9078,51.3033 L127.9078,50.6703 C127.9078,50.3853 127.9448,50.1743 127.9448,50.1743 L127.9208,50.1743 C127.5608,50.8933 126.7908,51.4523 125.8608,51.4523 C124.7688,51.4523 123.7638,50.7683 123.7638,49.5913 C123.7638,47.6183 126.2078,47.3943 127.5108,47.3943" id="Fill-29" fill="#01BF62"></path>
                <polygon id="Fill-31" fill="#01BF62" points="131.1223 45.0256 132.3253 45.0256 132.3253 47.5816 135.5013 47.5816 135.5013 45.0256 136.7053 45.0256 136.7053 51.3026 135.5013 51.3026 135.5013 48.6106 132.3253 48.6106 132.3253 51.3026 131.1223 51.3026"></polygon>
                <polygon id="Fill-33" fill="#01BF62" points="138.8767 45.0256 140.0797 45.0256 140.0797 47.5566 140.9607 47.5566 142.6727 45.0256 144.0377 45.0256 141.9407 48.0156 141.9407 48.0406 144.2857 51.3026 142.8587 51.3026 140.9857 48.5866 140.0797 48.5866 140.0797 51.3026 138.8767 51.3026"></polygon>
                <path d="M148.3811,50.4094 C149.5601,50.4094 150.5401,49.4664 150.5401,48.1524 C150.5401,46.8494 149.5601,45.9194 148.3811,45.9194 C147.1901,45.9194 146.2221,46.8494 146.2221,48.1524 C146.2221,49.4664 147.1901,50.4094 148.3811,50.4094 M148.3681,44.8764 C150.2421,44.8764 151.7551,46.2544 151.7551,48.1524 C151.7551,50.0624 150.2421,51.4524 148.3811,51.4524 C146.5071,51.4524 144.9941,50.0624 144.9941,48.1524 C144.9941,46.2544 146.5071,44.8764 148.3681,44.8764" id="Fill-35" fill="#01BF62"></path>
                <path d="M153.8035,45.0256 L155.1435,45.0256 L156.7435,48.5736 C156.9175,48.9466 157.0915,49.4176 157.0915,49.4176 L157.1165,49.4176 C157.1165,49.4176 157.3025,48.9586 157.4635,48.5736 L159.1015,45.0256 L160.4165,45.0256 L160.9615,51.3026 L159.7955,51.3026 L159.5225,47.5686 C159.5105,47.1966 159.5355,46.4896 159.5355,46.4896 L159.5105,46.4896 C159.5105,46.4896 159.3485,46.9236 159.1135,47.4076 L157.6245,50.5466 L156.5945,50.5466 L155.1065,47.4206 C154.9075,46.9616 154.7095,46.4896 154.7095,46.4896 L154.6845,46.4896 C154.6845,46.4896 154.7215,47.1966 154.6975,47.5686 L154.4245,51.3026 L153.2585,51.3026 L153.8035,45.0256 Z" id="Fill-37" fill="#01BF62"></path>
                <g id="Group-41" transform="translate(15.000000, 0.000000)">
                    <mask id="mask-4" fill="white">
                        <use xlink:href="#path-3"></use>
                    </mask>
                    <g id="Clip-40"></g>
                    <path d="M14.3362,0.4485 C13.4702,0.4485 12.6332,0.5625 11.8432,0.7715 C11.0532,0.5625 10.2172,0.4485 9.3512,0.4485 C4.5472,0.4485 0.6402,3.9045 0.6402,8.1525 L1.8262,8.1525 C1.8262,4.5585 5.2012,1.6355 9.3512,1.6355 C9.4612,1.6355 9.5672,1.6445 9.6762,1.6485 C7.2442,3.0165 5.6262,5.4205 5.6262,8.1525 L6.8112,8.1525 C6.8112,5.3165 8.9182,2.9035 11.8432,2.0105 C14.7692,2.9035 16.8752,5.3165 16.8752,8.1525 L18.0612,8.1525 C18.0612,5.4205 16.4432,3.0165 14.0112,1.6485 C14.1192,1.6445 14.2262,1.6355 14.3362,1.6355 C18.4852,1.6355 21.8612,4.5585 21.8612,8.1525 L23.0472,8.1525 C23.0472,3.9045 19.1392,0.4485 14.3362,0.4485" id="Fill-39" fill="#3A3F4C" mask="url(#mask-4)"></path>
                </g>
                <g id="Group-44" transform="translate(0.000000, 9.000000)">
                    <mask id="mask-6" fill="white">
                        <use xlink:href="#path-5"></use>
                    </mask>
                    <g id="Clip-43"></g>
                    <polygon id="Fill-42" fill="#3A3F4C" mask="url(#mask-6)" points="-0.0002 47.0002 3.9558 0.5422 47.3838 0.5422 49.6528 27.1992"></polygon>
                </g>
                <g id="Group-47" transform="translate(0.000000, 23.000000)">
                    <mask id="mask-8" fill="white">
                        <use xlink:href="#path-7"></use>
                    </mask>
                    <g id="Clip-46"></g>
                    <polygon id="Fill-45" fill="#01BF62" mask="url(#mask-8)" points="33.5784 0.4328 32.5674 19.7298 46.6134 32.9998 -0.0006 32.9998"></polygon>
                </g>
            </g>
        </g>
    </g>
</svg>