<svg width="40" height="40" viewBox="0 0 40 40" fill="none" xmlns="http://www.w3.org/2000/svg">
<path fill-rule="evenodd" clip-rule="evenodd" d="M29.099 39H20V5C22.6274 4.99969 24.414 3.89323 25.3156 2.71092L25 3.5C25.2962 3.54936 25.623 3.59506 25.9702 3.64361L25.9702 3.64361L25.9702 3.64361C27.9675 3.9229 30.6369 4.29617 32 6C34 8.5 35 12 35.5 18C35.9 22.8 36 28.1667 36 30.5H38.3213C37.9705 30.8113 37.507 31 36.9991 31H32V17C32 15.8954 31.1046 15 30 15C28.8954 15 28 15.8954 28 17V37C28 37.9497 28.6619 38.7447 29.5495 38.9491C29.4047 38.9824 29.2539 39 29.099 39ZM33.3906 3.30125C35.4737 4.96321 37.2691 8.07827 37.9989 13.6939C38.1312 14.7118 38.2462 15.7591 38.3461 16.8117C37.6963 12.3672 35.9334 5.53075 33.3906 3.30125ZM32.7431 2.83569C32.1716 2.46731 31.5853 2.19546 30.9989 2C29.4995 1.50018 27.0007 1.00036 26 1H25.9989L25.9989 1.00273L26 1C26.3619 1.07239 26.7836 1.1322 27.2466 1.19787C28.84 1.42389 30.9227 1.71931 32.7431 2.83569Z" fill="#1D7CE6" fill-opacity="0.1"/>
<path fill-rule="evenodd" clip-rule="evenodd" d="M30.6837 2.94868C30.4213 2.86123 30.1225 2.77271 29.8032 2.68658C29.5014 3.82295 28.8474 5.13774 27.6881 6.27604C26.0994 7.83586 23.6287 9 19.9999 9C16.3712 9 13.9004 7.83586 12.3118 6.27604C11.1525 5.13773 10.4985 3.82293 10.1967 2.68655C9.87739 2.77269 9.57849 2.86122 9.31612 2.94868C8.12405 3.34604 6.77407 4.50645 5.58335 6.4263C4.40682 8.32329 3.44832 10.8664 2.98817 13.8465C2.34112 18.037 2.13433 23.5349 2.04606 27H7.9997V16C7.9997 15.4477 8.44742 15 8.9997 15C9.55199 15 9.9997 15.4477 9.9997 16V35H29.9997V16C29.9997 15.4477 30.4474 15 30.9997 15C31.552 15 31.9997 15.4477 31.9997 16V30H37.0001C37.5569 30 37.99 29.5542 37.9813 29.0194L37.981 29H32V27H37.9366C37.8384 23.4515 37.595 18.3371 37.0083 13.8228C36.0378 6.35587 33.1935 3.78529 30.6837 2.94868ZM26.8035 2.06952C27.1091 2.11037 27.4652 2.16843 27.8517 2.24157C27.6289 3.03565 27.1514 4.00007 26.2868 4.84896C25.1171 5.99748 23.1712 7 19.9999 7C16.8287 7 14.8828 5.99748 13.7131 4.84896C12.8485 4.00006 12.371 3.03563 12.1482 2.24155C12.5124 2.17263 12.8496 2.1171 13.143 2.07674C13.7623 4.34682 16.3462 6 19.9999 6C22.1927 6 23.917 5.30332 25.1093 4.34053C25.9104 3.69374 26.5116 2.88766 26.8035 2.06952ZM31.9997 32H37.0001C38.6522 32 40.0084 30.6606 39.981 28.9867C39.9254 25.588 39.7172 19.1482 38.9916 13.565C37.9621 5.64413 34.8064 2.21473 31.3161 1.05132C30.5145 0.784104 29.4716 0.524535 28.5085 0.331919C27.5654 0.143296 26.6066 0 25.9999 0H24.9999V1C24.9999 1.34896 24.7136 2.08953 23.8529 2.78447C23.0328 3.44668 21.7571 4 19.9999 4C16.3102 4 14.9999 2.19523 14.9999 1V0H13.9999C13.3931 0 12.4344 0.143296 11.4913 0.331919C10.5282 0.524535 9.4853 0.784104 8.68366 1.05132C6.87573 1.65396 5.2039 3.24355 3.88371 5.37217C2.54934 7.52365 1.50783 10.3275 1.01159 13.5413C0.219838 18.669 0.0719006 25.628 0.00718811 28.6721L0.000584868 28.9813C-0.0354449 30.6518 1.31047 32 2.95627 32H7.9997V37C7.9997 38.6569 9.34285 40 10.9997 40H28.9997C30.6566 40 31.9997 38.6569 31.9997 37V32ZM7.9997 30V29H2.00064L2.00012 29.0245C1.98852 29.5625 2.4207 30 2.95627 30H7.9997ZM10.9997 38C10.4474 38 9.9997 37.5523 9.9997 37H29.9997C29.9997 37.5523 29.552 38 28.9997 38H10.9997ZM20.9363 13.6489C20.7899 13.2586 20.4168 13 20 13C19.5831 13 19.21 13.2586 19.0636 13.6489L17.807 17H14C13.5646 17 13.1793 17.2817 13.0471 17.6965C12.915 18.1114 13.0665 18.564 13.4217 18.8158L16.6518 21.1056L15.5442 24.706C15.4181 25.1158 15.5674 25.5605 15.9153 25.8113C16.2632 26.062 16.7322 26.063 17.0812 25.8137L20 23.7289L22.9187 25.8137C23.2677 26.063 23.7368 26.062 24.0847 25.8113C24.4326 25.5605 24.5819 25.1158 24.4558 24.7059L23.3481 21.1056L26.5783 18.8158C26.9335 18.564 27.0849 18.1114 26.9528 17.6965C26.8207 17.2817 26.4354 17 26 17H22.193L20.9363 13.6489ZM19.4363 18.3511L20 16.848L20.5637 18.3511C20.71 18.7414 21.0831 19 21.5 19H22.8602L21.6013 19.8924C21.2491 20.1421 21.0969 20.5896 21.2238 21.0023L21.6745 22.4672L20.5812 21.6863C20.2335 21.4379 19.7664 21.4379 19.4187 21.6863L18.3255 22.4672L18.7761 21.0023C18.9031 20.5896 18.7509 20.1421 18.3987 19.8924L17.1398 19H18.5C18.9168 19 19.2899 18.7414 19.4363 18.3511Z" fill="#1D7CE6"/>
</svg>
