<svg width="18" height="18" viewBox="0 0 18 18" fill="none" xmlns="http://www.w3.org/2000/svg">
<path d="M6.00001 11C6.00001 9.34315 7.34315 8 9.00001 8C9.55229 8 10 7.55228 10 7C10 6.44772 9.55229 6 9.00001 6C6.23858 6 4.00001 8.23858 4.00001 11C4.00001 11.5523 4.44772 12 5.00001 12C5.55229 12 6.00001 11.5523 6.00001 11Z" fill="#999999"/>
<path fill-rule="evenodd" clip-rule="evenodd" d="M6.00001 1C6.00001 0.447715 6.44772 0 7.00001 0H11C11.5523 0 12 0.447715 12 1C12 1.55228 11.5523 2 11 2H10V3.06189C13.9463 3.55399 17 6.92038 17 11V13.1339C17.2516 13.2793 17.4358 13.5319 17.4864 13.8356L17.9864 16.8356C18.0347 17.1256 17.953 17.4221 17.763 17.6464C17.573 17.8707 17.294 18 17 18H1.00001C0.706055 18 0.426991 17.8707 0.236988 17.6464C0.0469841 17.4221 -0.0347118 17.1256 0.0136136 16.8356L0.513614 13.8356C0.564227 13.5319 0.748439 13.2793 1.00001 13.1339V11C1.00001 6.92038 4.0537 3.55399 8.00001 3.06189V2H7.00001C6.44772 2 6.00001 1.55228 6.00001 1ZM9.00001 5C5.6863 5 3.00001 7.68629 3.00001 11V13H15V11C15 7.68629 12.3137 5 9.00001 5ZM2.34713 15L2.18047 16H15.8195L15.6529 15H2.34713Z" fill="#999999"/>
</svg>
