<svg width="18" height="18" viewBox="0 0 18 18" fill="none" xmlns="http://www.w3.org/2000/svg">
<path fill-rule="evenodd" clip-rule="evenodd" d="M0 9C0 4.02944 4.02944 0 9 0C13.9706 0 18 4.02944 18 9C18 13.9706 13.9706 18 9 18C4.02944 18 0 13.9706 0 9ZM3.39361 4.80783C2.5184 5.97641 2 7.42767 2 9C2 10.5723 2.5184 12.0236 3.39362 13.1922L4.8284 11.7574C4.30488 10.967 4 10.0191 4 9C4 7.98092 4.30488 7.03304 4.8284 6.24261L3.39361 4.80783ZM4.80783 3.39362L6.24261 4.8284C7.03304 4.30488 7.98092 4 9 4C10.0191 4 10.967 4.30488 11.7574 4.8284L13.1922 3.39362C12.0236 2.5184 10.5723 2 9 2C7.42766 2 5.97641 2.5184 4.80783 3.39362ZM14.6064 4.80783L13.1716 6.24261C13.6951 7.03304 14 7.98092 14 9C14 10.0191 13.6951 10.967 13.1716 11.7574L14.6064 13.1922C15.4816 12.0236 16 10.5723 16 9C16 7.42767 15.4816 5.97641 14.6064 4.80783ZM13.1922 14.6064L11.7574 13.1716C10.967 13.6951 10.0191 14 9 14C7.98092 14 7.03304 13.6951 6.24261 13.1716L4.80783 14.6064C5.97641 15.4816 7.42767 16 9 16C10.5723 16 12.0236 15.4816 13.1922 14.6064ZM12 9C12 7.34315 10.6569 6 9 6C7.34315 6 6 7.34315 6 9C6 10.6569 7.34315 12 9 12C10.6569 12 12 10.6569 12 9Z" fill="#999999"/>
</svg>
