<svg width="18" height="18" viewBox="0 0 18 18" fill="none" xmlns="http://www.w3.org/2000/svg">
<path d="M7 12C8.10457 12 9 11.1046 9 10C9 11.1046 9.89543 12 11 12C12.1046 12 13 11.1046 13 10C13 9.2431 12.5795 8.58441 11.9595 8.24474L12.3775 7.47936C12.6423 6.99467 12.464 6.38713 11.9793 6.12238C11.4946 5.85764 10.887 6.03594 10.6223 6.52064L9.27485 8.98752C9.10018 9.28449 9 9.63055 9 10C9 9.2431 8.57955 8.58441 7.95946 8.24474L8.37751 7.47936C8.64226 6.99467 8.46395 6.38713 7.97926 6.12238C7.49457 5.85764 6.88703 6.03594 6.62228 6.52064L5.27485 8.9875C5.10018 9.28448 5 9.63054 5 10C5 11.1046 5.89543 12 7 12Z" fill="#999999"/>
<path fill-rule="evenodd" clip-rule="evenodd" d="M0 5C0 2.23858 2.23858 0 5 0H13C15.7614 0 18 2.23858 18 5V13C18 15.7614 15.7614 18 13 18H2C0.895431 18 0 17.1046 0 16V5ZM5 2C3.34315 2 2 3.34315 2 5V16H13C14.6569 16 16 14.6569 16 13V5C16 3.34315 14.6569 2 13 2H5Z" fill="#999999"/>
</svg>
