<svg width="40" height="40" viewBox="0 0 40 40" fill="none" xmlns="http://www.w3.org/2000/svg">
<path opacity="0.1" fill-rule="evenodd" clip-rule="evenodd" d="M25 1H5V5H5.125L0.75 13.3125L3.5 12.9375L6.8125 10.8125L8.1875 5H24.75L21.75 5.5L22.8125 9.9375L29.0625 13.3125L28.6875 10.8125L24.75 5H25V1ZM29.3096 27.9744C28.9486 31.5652 28.4238 36.7858 29.5 38L38.8125 26.3125L34.25 21.0625L29.5 24.5C29.6351 24.7364 29.4936 26.1436 29.3096 27.9744Z" fill="#307FDD"/>
<path fill-rule="evenodd" clip-rule="evenodd" d="M30.06 11.7497C30.0609 11.6378 30.0435 11.5264 30.0085 11.42L26 5V1C26 0.431148 25.5388 0 24.9699 0H5C4.43115 0 4 0.431148 4 1V4.9237L0.103294 11.42C0.0682721 11.5264 0.0508898 11.6378 0.0517911 11.7497V38.9698C0.0517911 39.5386 0.513002 39.9998 1.08185 39.9998H12.2644C12.7649 40.009 13.1995 39.6569 13.2945 39.1655L15.0456 30.0391L16.7967 39.1655C16.8917 39.6569 17.3263 40.009 17.8268 39.9998H28.9782C29.204 40.0046 29.4292 39.933 29.6127 39.7906C29.7014 39.7234 29.7797 39.6413 29.8437 39.5466L29.844 39.5429L39.7926 26.6097C40.0932 26.2189 40.0642 25.6674 39.7241 25.3103L34.9622 20.3103C34.6269 19.9582 34.0868 19.8984 33.6825 20.1685L30.0497 22.5959V16.1436L30.06 11.7497ZM35.1458 29.3704L30.0497 35.9953V25.0013L30.7346 24.5437L35.0738 29.2991C35.0968 29.3243 35.1209 29.3481 35.1458 29.3704ZM36.3811 27.7645L37.6851 26.0693L34.0942 22.2989L32.4165 23.4198L36.3811 27.7645ZM18.5 38H27.9896V14.2812C21.8298 12.4477 21.1943 8.75027 20.8853 6H20V14C20 18 17.4318 19.9926 16 20V24.4768L18.5 38ZM16 6H18V14C18.1477 15.8218 17.5 17.5 16 18V6ZM22.966 6C23.2854 8.42065 23.6942 10.3591 27.9896 12.0999V11.9145L24.5 6H22.966ZM22 2H24V4H22V2ZM20 2H16V4H20V2ZM14 4H10V2H14V4ZM8 2H6V4H8V2ZM2.11192 11.9145L5.39782 6H6.93177L6.92209 6.07589C6.618 8.46144 6.37249 10.3875 2.11192 12.0999V11.9145ZM2 38H11.5L14 24.4768V6H9C8.69098 8.75027 8.18037 12.4683 2 14.2812V38Z" fill="#307FDD"/>
</svg>
