<svg width="18" height="18" viewBox="0 0 18 18" fill="none" xmlns="http://www.w3.org/2000/svg">
<path d="M9.00003 18C7.21999 18 5.47995 17.4722 3.9999 16.4832C2.51986 15.4943 1.36627 14.0887 0.685084 12.4442C0.00389528 10.7996 -0.174329 8.99006 0.172938 7.24423C0.520205 5.4984 1.3774 3.89475 2.63607 2.63607C3.89475 1.3774 5.4984 0.520205 7.24423 0.172938C8.99006 -0.174329 10.7996 0.00389528 12.4442 0.685084C14.0887 1.36627 15.4943 2.51986 16.4832 3.9999C17.4722 5.47995 18 7.21999 18 9.00003C18 11.387 17.0518 13.6762 15.364 15.364C13.6762 17.0518 11.387 18 9.00003 18ZM11.571 15.5C9.92725 14.834 8.0888 14.834 6.44503 15.5C8.0888 16.1661 9.92725 16.1661 11.571 15.5V15.5ZM9.00003 2.00003C7.57195 1.99448 6.17664 2.42756 5.00265 3.24069C3.82866 4.05381 2.93262 5.20776 2.43569 6.5466C1.93877 7.88543 1.86491 9.34459 2.22409 10.7268C2.58326 12.1089 3.35812 13.3475 4.44399 14.2751C5.81793 13.4417 7.39409 13.001 9.001 13.001C10.6079 13.001 12.1841 13.4417 13.558 14.2751C14.644 13.3474 15.419 12.1087 15.7781 10.7263C16.1372 9.34391 16.0632 7.88461 15.566 6.54568C15.0688 5.20675 14.1725 4.05274 12.9982 3.23977C11.8239 2.4268 10.4283 1.99406 9.00003 2.00003V2.00003ZM9.00003 12C8.2089 12 7.43553 11.7654 6.77774 11.3259C6.11994 10.8864 5.60728 10.2617 5.30453 9.53079C5.00178 8.79988 4.92253 7.99561 5.07687 7.21969C5.23121 6.44377 5.61219 5.73101 6.1716 5.1716C6.73101 4.61219 7.44377 4.23121 8.21969 4.07687C8.99562 3.92253 9.79988 4.00178 10.5308 4.30453C11.2617 4.60728 11.8864 5.11994 12.3259 5.77774C12.7654 6.43553 13 7.2089 13 8.00003C13 9.06089 12.5786 10.0783 11.8285 10.8285C11.0783 11.5786 10.0609 12 9.00003 12ZM9.00003 6.00003C8.60446 6.00003 8.21778 6.1173 7.88888 6.33706C7.55998 6.55682 7.30362 6.86919 7.15225 7.23464C7.00087 7.6001 6.96131 8.00226 7.03848 8.39022C7.11565 8.77819 7.30614 9.13451 7.58584 9.41421C7.86555 9.69392 8.22187 9.8844 8.60983 9.96157C8.99779 10.0387 9.39995 9.99918 9.76541 9.8478C10.1309 9.69643 10.4432 9.44007 10.663 9.11117C10.8828 8.78227 11 8.39559 11 8.00003C11 7.46959 10.7893 6.96091 10.4142 6.58584C10.0391 6.21077 9.53046 6.00003 9.00003 6.00003Z" fill="#999999"/>
</svg>
