<svg width="40" height="40" viewBox="0 0 40 40" fill="none" xmlns="http://www.w3.org/2000/svg">
<path opacity="0.1" fill-rule="evenodd" clip-rule="evenodd" d="M15.5 1.5L18.5 9.5H21.5L24.5 1.5H15.5ZM6 10L2 34H9.5C11 29.1667 12.4 17.6 6 10ZM28 27H18V30H28V27ZM36.7676 34L32.7676 10C26.3676 17.6 27.7676 29.1667 29.2676 34H36.7676Z" fill="#307FDD"/>
<path fill-rule="evenodd" clip-rule="evenodd" d="M16.6259 2C17.1779 5.47752 18.882 7.69018 19.9782 8.70109C21.0729 7.65786 22.8463 5.43727 23.381 2H16.6259ZM24.488 -6.38045e-08C24.8547 -0.00448906 25.2016 0.193639 25.3805 0.5259L27.7933 5.00692C31.6812 5.15551 33.7536 7.66496 33.989 9.35139L37.9869 33.8388C38.0342 34.1283 37.952 34.424 37.7619 34.6476C37.5719 34.8711 37.2934 34.9999 37 34.9999H30.8736C31.2521 36.4191 31.6699 37.6486 32.0682 38.6209C32.1946 38.9293 32.159 39.2804 31.9732 39.5572C31.7875 39.8339 31.4762 40 31.1429 40H20L19.9888 39.9999H8C7.66198 39.9999 7.34683 39.8292 7.16225 39.546C6.97767 39.2628 6.94864 38.9056 7.08508 38.5963C7.51146 37.6298 7.95861 36.4088 8.36411 35H2.00001C1.70663 35 1.42806 34.8711 1.23806 34.6476C1.04806 34.4241 0.965803 34.1284 1.01307 33.8388L5.01156 9.34809C5.14707 8.42814 5.84635 7.34361 6.96523 6.5104C8.03861 5.71107 9.54645 5.09934 11.5069 5.01094L14.6778 0.43073C14.8707 0.152136 15.1873 -0.00513667 15.5156 -6.38045e-08H24.488ZM21 10.7352V24H27.5582C27.6938 19.1076 28.8393 13.8698 31.9112 9.31718C31.6312 8.67785 30.7466 7.57404 28.941 7.16163C29.0239 7.39225 29.0198 7.64726 28.9261 7.8774C28.8134 8.15381 28.5832 8.36545 28.2983 8.45448L21 10.7352ZM19 31V37.9999H9.48313C10.1841 36.119 10.8645 33.7083 11.3042 31H11.4921L11.5 31H15.5L15.5148 31H19ZM27.7509 29H18.6632C18.8792 28.5453 19 28.0368 19 27.5C19 26.9632 18.8791 26.4546 18.6632 26H20H27.5573C27.5841 27.0222 27.6514 28.0254 27.7509 29ZM12 24V24H11.7835C11.6376 19.1029 10.4045 13.8632 7.10512 9.3111C7.25978 8.9944 7.58135 8.54522 8.15977 8.11448C8.62483 7.76816 9.24308 7.44635 10.0348 7.23846C9.98176 7.43427 9.98881 7.64435 10.0597 7.84016C10.1698 8.14456 10.4205 8.37682 10.7324 8.46346L19 10.76V24H12ZM15.5 26H11.7845C11.7557 27.0222 11.6833 28.0254 11.5764 29H15.5097C16.3336 28.9948 17 28.3252 17 27.5C17 26.6716 16.3284 26 15.5 26ZM21 38V31H28V30.973C28.4092 33.6939 29.0445 36.115 29.6984 38H21ZM35.8235 32.9999H30.3971C29.9451 30.856 29.6146 28.4162 29.5542 25.8514C29.4485 21.3674 30.1689 16.5683 32.4447 12.3048L35.8235 32.9999ZM16.8701 8.09266L12.6227 6.91283L14.9118 3.60644C15.3637 5.43666 16.0938 6.93095 16.8701 8.09266ZM3.17651 33L6.5794 12.1573C9.10726 16.4586 9.90289 21.3167 9.78782 25.8496C9.72269 28.4153 9.36589 30.8561 8.87827 33H3.17651ZM23.1805 7.95842L26.5449 6.90701L24.9873 4.01417C24.542 5.59726 23.877 6.91057 23.1805 7.95842Z" fill="#307FDD"/>
</svg>
