<svg width="40" height="40" viewBox="0 0 40 40" fill="none" xmlns="http://www.w3.org/2000/svg">
<path d="M5.76214 5.67337L11.1333 3.37143C11.62 3.16286 12.1928 3.3638 12.4854 3.8051C13.7336 5.68778 17.0556 9.76028 21.1117 9.32515C21.8017 9.25112 22.5059 9.72512 22.5182 10.419C22.6045 15.3023 22.9694 29.6818 22.9982 38.0026C23.0001 38.5549 22.5523 39 22 39H9C8.44772 39 8 38.5523 8 38V36.4142C8 36.149 7.89464 35.8946 7.70711 35.7071L7.29289 35.2929C7.10536 35.1054 7 34.851 7 34.5858V32V15.1098C7 15.0368 6.99201 14.9641 6.97619 14.8928L5.17988 6.80944C5.07556 6.34001 5.32014 5.8628 5.76214 5.67337Z" fill="#1D7CE6" fill-opacity="0.1"/>
<path d="M33.0266 15.387L35 7L36 18V34C36 34.5523 35.5523 35 35 35H34C33.4477 35 33 34.5523 33 34V15.6161C33 15.5389 33.0089 15.4621 33.0266 15.387Z" fill="#1D7CE6" fill-opacity="0.1"/>
<path fill-rule="evenodd" clip-rule="evenodd" d="M14 0H13.5858L13.2929 0.292893L11.4291 2.15672L4.60608 5.08085L4.29803 5.21287L4.13176 5.50386L5 6C4.13176 5.50386 4.13168 5.50399 4.13159 5.50415L4.13134 5.5046L4.13055 5.50598L4.12789 5.51064L4.11833 5.52749L4.08285 5.59049C4.05217 5.6452 4.00775 5.72497 3.95155 5.82733C3.83917 6.03202 3.67955 6.32735 3.48842 6.69368C3.10658 7.42554 2.59684 8.4449 2.08619 9.59386C1.08919 11.8371 0 14.764 0 17C0 19.038 0.210849 22.8213 0.418715 26.064C0.52308 27.6921 0.627423 29.1946 0.705666 30.29C0.744792 30.8378 0.777403 31.2839 0.800241 31.5932L0.826764 31.9501L0.833767 32.0434L0.835426 32.0654L0.83557 32.0673L0.949066 34.1109C1.00795 35.1708 1.88452 36 2.94599 36H6.58579L7 36.4142V38C7 39.1046 7.89543 40 9 40H31C32.1046 40 33 39.1046 33 38V36.4142L33.4142 36H37.054C38.1155 36 38.9921 35.1708 39.0509 34.1109L39.1644 32.0673L39.1646 32.0656L39.1662 32.0434L39.1732 31.9501L39.1998 31.5932C39.2226 31.2839 39.2552 30.8378 39.2943 30.29C39.3726 29.1946 39.4769 27.6921 39.5813 26.064C39.7892 22.8213 40 19.038 40 17C40 14.764 38.9108 11.8371 37.9138 9.59386C37.4032 8.4449 36.8934 7.42554 36.5116 6.69368C36.3205 6.32735 36.1608 6.03202 36.0485 5.82733C35.9923 5.72497 35.9478 5.6452 35.9171 5.59049L35.8817 5.52749L35.8721 5.51064L35.8694 5.50598L35.8687 5.5046L35.8684 5.50415C35.8683 5.50399 35.8682 5.50386 35 6L35.8682 5.50386L35.702 5.21287L35.3939 5.08085L28.5709 2.15672L26.7071 0.292893L26.4142 0H26H14ZM6.15606 6.59251L11.6535 4.23647C11.7378 4.36415 11.8268 4.50201 11.923 4.65087L11.9235 4.65151L11.9235 4.65154L11.9237 4.65192L11.9238 4.65198C12.0307 4.81754 12.1465 4.99671 12.2742 5.19062C12.7059 5.84609 13.2322 6.59996 13.8947 7.30816C15.2428 8.74919 17.1584 10 20 10C20.7064 10 21.3737 9.89758 22 9.71987V38H9V37H19V35H8.41421L8 34.5858V32V15.1098C8 14.9638 7.98403 14.8184 7.95237 14.6759L6.15606 6.59251ZM24 38H31V37H24V38ZM32 34.5858L31.5858 35H24V8.84639C25.0437 8.22457 25.9193 7.43161 26.6122 6.67572C27.3486 5.87229 27.9143 5.07301 28.2958 4.47589C28.3415 4.40445 28.3846 4.33577 28.4251 4.27015L33.8439 6.59251L32.0476 14.6759C32.016 14.8184 32 14.9638 32 15.1098V32V34.5858ZM22.2618 7.5C23.3722 7.00432 24.3398 6.19483 25.1378 5.32428C25.7764 4.62771 26.2732 3.92699 26.6104 3.39911C26.6624 3.31773 26.7105 3.2407 26.7545 3.16871L26 2.41421L21 7.41421V7.90316C21.3443 7.83627 21.6778 7.73657 22 7.60988V7.5H22.2618ZM19 7.41421V7.92971C17.3878 7.6948 16.2493 6.89758 15.3553 5.94184C14.8094 5.35837 14.3566 4.71641 13.9445 4.09063C13.8498 3.94676 13.7541 3.79849 13.658 3.64977L13.6579 3.64958L13.6578 3.6495C13.5403 3.46753 13.4224 3.2849 13.3054 3.10886L14 2.41421L19 7.41421ZM20 5.58579L16.4142 2H23.5858L20 5.58579ZM37.054 34H34V33H37.1096L37.054 34ZM37.2379 31H34V15.1098L35.3813 8.89387C35.6069 9.35701 35.8466 9.86715 36.0862 10.4061C37.0892 12.6629 38 15.236 38 17C38 18.962 37.7942 22.6787 37.5854 25.936C37.4814 27.5579 37.3774 29.0554 37.2994 30.1475C37.2764 30.4693 37.2557 30.7559 37.2379 31ZM6 33V34H2.94599L2.89043 33H6ZM6 31H2.7621C2.7443 30.7559 2.72357 30.4693 2.70058 30.1475C2.62258 29.0554 2.51859 27.5579 2.41462 25.936C2.20582 22.6787 2 18.962 2 17C2 15.236 2.91081 12.6629 3.91381 10.4061C4.15336 9.86715 4.39313 9.35701 4.61869 8.89386L6 15.1098V31ZM20 14C20.5523 14 21 13.5523 21 13C21 12.4477 20.5523 12 20 12C19.4477 12 19 12.4477 19 13C19 13.5523 19.4477 14 20 14ZM21 18C21 18.5523 20.5523 19 20 19C19.4477 19 19 18.5523 19 18C19 17.4477 19.4477 17 20 17C20.5523 17 21 17.4477 21 18ZM20 24C20.5523 24 21 23.5523 21 23C21 22.4477 20.5523 22 20 22C19.4477 22 19 22.4477 19 23C19 23.5523 19.4477 24 20 24ZM21 28C21 28.5523 20.5523 29 20 29C19.4477 29 19 28.5523 19 28C19 27.4477 19.4477 27 20 27C20.5523 27 21 27.4477 21 28ZM20 34C20.5523 34 21 33.5523 21 33C21 32.4477 20.5523 32 20 32C19.4477 32 19 32.4477 19 33C19 33.5523 19.4477 34 20 34Z" fill="#1D7CE6"/>
</svg>
