<svg width="40" height="40" viewBox="0 0 40 40" fill="none" xmlns="http://www.w3.org/2000/svg">
<path fill-rule="evenodd" clip-rule="evenodd" d="M12.5 8C10.6667 9.33333 8.49999 12 6.5 17C4.41597 22.2101 4.46726 27.4329 4.49467 30.2235C4.49747 30.5086 4.50002 30.7683 4.50002 31C5.32795 31.276 5.54658 31.2473 6.16483 31.1662C6.66669 31.1004 7.43187 31 9.00002 31V35H31V31H37.5C38.5 31 39.5 30 39 27.5C38.8486 26.7431 38.7431 25.8944 38.6279 24.968C38.3625 22.8347 38.0459 20.2889 37 17.5C35.3125 13 33.5 10 30 7C29 7.66667 25.6 9 20 9C14.4 9 13.5 8.66667 12.5 8ZM16 24C16 24.5833 15 26.5 13 27V31H27V27C25.5 27 24 24.5 24 24H16Z" fill="#1D7CE6" fill-opacity="0.1"/>
<path fill-rule="evenodd" clip-rule="evenodd" d="M12.9298 0.00650311C12.9676 0.00217122 13.0056 0 13.0436 0H26.957C26.995 0 27.0331 0.00217122 27.0709 0.00650311C28.9974 0.227295 31.2919 1.37354 31.9093 4.20372C32.1284 5.20842 31.94 6.08635 31.4789 6.81385C33.4054 8.28375 36.3208 11.3586 38.3729 18.4781C39.5595 22.595 39.88 26.5351 39.9673 28.9664C40.0282 30.6634 38.6434 32 37.0002 32L37.0002 34C37.0002 35.1046 36.1048 36 35.0002 36H32V37C32 38.6569 30.6568 40 29 40H11C9.34312 40 7.99997 38.6569 7.99997 37V36H5.00021C3.89564 36 3.00021 35.1046 3.00021 34V32H2.99998C1.35615 32 -0.0275514 30.6623 0.0325253 28.9663C0.117001 26.5814 0.422474 22.7425 1.53642 18.7324C3.48005 11.7353 6.6054 8.37661 8.53459 6.83425C8.06403 6.10278 7.86994 5.21783 8.09116 4.20372C8.70855 1.37349 11.0033 0.227287 12.9298 0.00650311ZM32 32H35.0002V34H32V32ZM5.00021 32V34H7.99997V32H5.00021ZM27.5568 9.23683C28.428 8.99176 29.2826 8.66234 30.0071 8.21162C31.5972 9.35177 34.4291 12.0168 36.4511 19.0321C37.575 22.9312 37.8843 26.6919 37.9686 29.0382C37.9869 29.5487 37.566 30 37.0002 30H32V20C32 19.4477 31.5523 19 31 19C30.4477 19 30 19.4477 30 20V34H25C24.4477 34 24 34.4477 24 35C24 35.5523 24.4477 36 25 36H30V37C30 37.5523 29.5523 38 29 38H11C10.4477 38 9.99997 37.5523 9.99997 37V36H20C20.5523 36 21 35.5523 21 35C21 34.4477 20.5523 34 20 34H9.99997V20C9.99997 19.4477 9.55226 19 8.99997 19C8.44769 19 7.99997 19.4477 7.99997 20V30H2.99998C2.43485 30 2.01315 29.5486 2.03127 29.0371C2.11285 26.7341 2.40783 23.0679 3.46346 19.2676C5.36554 12.4202 8.41371 9.43087 10.0083 8.22087C10.7296 8.66685 11.5785 8.99344 12.4437 9.23683C13.2618 9.46699 14.143 9.6358 15.0301 9.75524C15.0104 9.83356 15 9.91556 15 10V16C15 16.5523 15.4477 17 16 17C16.5522 17 17 16.5523 17 16V10C17 9.98151 16.9995 9.96314 16.9985 9.9449C18.0975 10.0117 19.1373 10.0131 20.0003 9.97373C20.8632 10.0131 21.9027 10.0117 23.0015 9.94495C23.0005 9.96317 23 9.98153 23 10V18C23 18.5523 23.4477 19 24 19C24.5522 19 25 18.5523 25 18V10C25 9.91559 24.9895 9.83362 24.9698 9.75533C25.8571 9.63588 26.7385 9.46704 27.5568 9.23683ZM24.3423 7.81887C25.2679 7.70931 26.1861 7.54482 27.0152 7.31157C28.1267 6.99888 28.9679 6.59226 29.4697 6.12231C29.9171 5.70335 30.0908 5.25159 29.9552 4.62998C29.6416 3.19244 28.6527 2.43057 27.5299 2.12442C27.4357 2.33032 27.3389 2.54637 27.2371 2.77332L27.2371 2.77347L27.2369 2.7738C27.0953 3.0897 26.9443 3.42675 26.7775 3.78703C26.3674 4.67276 25.8885 5.63676 25.3116 6.52683C25.0243 6.97003 24.7028 7.40954 24.3423 7.81887ZM25.3918 2H14.6089L14.6165 2.01701L14.6166 2.01718L14.6167 2.01751C14.7556 2.32703 14.8968 2.64158 15.0381 2.94673C15.4355 3.80501 15.8676 4.66808 16.3673 5.43898C17.3851 7.00923 18.5312 7.97265 20.0003 7.97265C21.4695 7.97265 22.6155 7.00923 23.6333 5.43898C24.133 4.66808 24.5652 3.80501 24.9626 2.94673C25.1039 2.64143 25.2452 2.32671 25.3841 2.01704L25.3918 2ZM12.4707 2.12442C12.565 2.33032 12.6618 2.54636 12.7635 2.77332C12.9052 3.08936 13.0563 3.42657 13.2232 3.78703C13.6333 4.67276 14.1121 5.63676 14.689 6.52683C14.9763 6.97003 15.2978 7.40955 15.6584 7.81888C14.7327 7.70931 13.8145 7.54482 12.9853 7.31157C11.8738 6.99888 11.0325 6.59226 10.5307 6.1223C10.0834 5.70333 9.90961 5.25158 10.0452 4.62998C10.3588 3.19246 11.3478 2.43058 12.4707 2.12442ZM16 23C15.4545 23 15.011 23.4367 15.0002 23.9796C15.0002 23.9753 15.0002 23.9732 14.9998 23.9731C14.9994 23.973 14.9984 23.9766 14.9965 23.9838C14.989 24.0109 14.9673 24.0902 14.9053 24.2238C14.8159 24.4165 14.673 24.6559 14.4743 24.9002C14.0748 25.3911 13.4986 25.8446 12.7574 26.0299C12.3123 26.1411 12 26.5411 12 27V27.0082V27.0164V27.0247V27.0329V27.0412V27.0495V27.0578V27.0661V27.0744V27.0827V27.0911V27.0994V27.1078V27.1162V27.1246V27.133V27.1414V27.1499V27.1583V27.1668V27.1752V27.1837V27.1922V27.2007V27.2092V27.2178V27.2263V27.2349V27.2435V27.252V27.2606V27.2692V27.2778V27.2865V27.2951V27.3037V27.3124V27.3211V27.3298V27.3384V27.3471V27.3558V27.3646V27.3733V27.382V27.3908V27.3996V27.4083V27.4171V27.4259V27.4347V27.4435V27.4523V27.4611V27.47V27.4788V27.4877V27.4965V27.5054V27.5143V27.5232V27.5321V27.541V27.5499V27.5588V27.5678V27.5767V27.5856V27.5946V27.6036V27.6125V27.6215V27.6305V27.6395V27.6485V27.6575V27.6665V27.6755V27.6846V27.6936V27.7026V27.7117V27.7207V27.7298V27.7389V27.7479V27.757V27.7661V27.7752V27.7843V27.7934V27.8025V27.8116V27.8208V27.8299V27.839V27.8482V27.8573V27.8665V27.8756V27.8848V27.8939V27.9031V27.9123V27.9215V27.9306V27.9398V27.949V27.9582V27.9674V27.9766V27.9858V27.995V28.0042V28.0135V28.0227V28.0319V28.0411V28.0504V28.0596V28.0688V28.0781V28.0873V28.0966V28.1058V28.1151V28.1243V28.1336V28.1429V28.1521V28.1614V28.1706V28.1799V28.1892V28.1985V28.2077V28.217V28.2263V28.2356V28.2448V28.2541V28.2634V28.2727V28.282V28.2913V28.3006V28.3098V28.3191V28.3284V28.3377V28.347V28.3563V28.3656V28.3749V28.3842V28.3934V28.4027V28.412V28.4213V28.4306V28.4399V28.4492V28.4585V28.4678V28.477V28.4863V28.4956V28.5049V28.5142V28.5234V28.5327V28.542V28.5513V28.5605V28.5698V28.5791V28.5884V28.5976V28.6069V28.6161V28.6254V28.6347V28.6439V28.6532V28.6624V28.6716V28.6809V28.6901V28.6994V28.7086V28.7178V28.7271V28.7363V28.7455V28.7547V28.7639V28.7731V28.7823V28.7915V28.8007V28.8099V28.8191V28.8283V28.8375V28.8466V28.8558V28.865V28.8741V28.8833V28.8924V28.9016V28.9107V28.9198V28.929V28.9381V28.9472V28.9563V28.9654V28.9745V28.9836V28.9927V29.0018V29.0109V29.0199V29.029V29.0381V29.0471V29.0561V29.0652V29.0742V29.0832V29.0922V29.1013V29.1103V29.1192V29.1282V29.1372V29.1462V29.1551V29.1641V29.173V29.182V29.1909V29.1998V29.2088V29.2177V29.2266V29.2355V29.2443V29.2532V29.2621V29.2709V29.2798V29.2886V29.2974V29.3062V29.3151V29.3239V29.3326V29.3414V29.3502V29.359V29.3677V29.3765V29.3852V29.3939V29.4026V29.4113V29.42V29.4287V29.4373V29.446V29.4547V29.4633V29.4719V29.4805V29.4891V29.4977V29.5063V29.5149V29.5234V29.532V29.5405V29.549V29.5575V29.566V29.5745V29.583V29.5915V29.5999V29.6083V29.6168V29.6252V29.6336V29.642V29.6503V29.6587V29.667V29.6754V29.6837V29.692V29.7003V29.7086V29.7168V29.7251V29.7333V29.7416V29.7498V29.758V29.7661V29.7743V29.7825V29.7906V29.7987V29.8068V29.8149V29.823V29.8311V29.8391V29.8472V29.8552V29.8632V29.8712V29.8792V29.8871V29.8951V29.903V29.9109V29.9188V29.9267V29.9345V29.9424V29.9502V29.958V29.9658V29.9736V29.9814V29.9891V29.9968V30.0046V30.0123V30.0199V30.0276V30.0352V30.0429V30.0505V30.0581V30.0656V30.0732V30.0807V30.0883V30.0958V30.1032V30.1107V30.1182V30.1256V30.133V30.1404V30.1478V30.1551V30.1625V30.1698V30.1771V30.1844V30.1916V30.1989V30.2061V30.2133V30.2205V30.2276V30.2348V30.2419V30.249V30.2561V30.2631V30.2702V30.2772V30.2842V30.2912V30.2981V30.3051V30.312V30.3189V30.3258V30.3326V30.3395V30.3463V30.3531V30.3598V30.3666V30.3733V30.38V30.3867V30.3934V30.4V30.4066V30.4132V30.4198V30.4264V30.4329V30.4394V30.4459V30.4523V30.4588V30.4652V30.4716V30.4779V30.4843V30.4906V30.4969V30.5032V30.5094V30.5157V30.5219V30.5281V30.5342V30.5403V30.5465V30.5525V30.5586V30.5646V30.5707V30.5766V30.5826V30.5885V30.5945V30.6003V30.6062V30.612V30.6179V30.6236V30.6294V30.6351V30.6409V30.6465V30.6522V30.6578V30.6634V30.669V30.6746V30.6801V30.6856V30.6911V30.6965V30.702V30.7074V30.7127V30.7181V30.7234V30.7287V30.7339V30.7392V30.7444V30.7496V30.7547V30.7598V30.7649V30.77V30.775V30.7801V30.785V30.79V30.7949V30.7998V30.8047V30.8096V30.8144V30.8192V30.8239V30.8286V30.8333V30.838V30.8427V30.8473V30.8519V30.8564V30.8609V30.8654V30.8699V30.8743V30.8787V30.8831V30.8875V30.8918V30.8961V30.9003V30.9045V30.9087V30.9129V30.917V30.9211V30.9252V30.9292V30.9333V30.9372V30.9412V30.9451V30.949V30.9528V30.9566V30.9604V30.9642V30.9679V30.9716V30.9753V30.9789V30.9825V30.9861V30.9896V30.9931V30.9966V31C12 31.5523 12.4477 32 13 32H27C27.5523 32 28 31.5523 28 31V27C28 26.4477 27.5523 26 27 26C26.9007 26 26.7229 25.9553 26.4657 25.7781C26.2148 25.6052 25.954 25.3508 25.7114 25.0543C25.4711 24.7606 25.2723 24.4546 25.1383 24.2056C25.071 24.0807 25.027 23.9831 25.0027 23.9188C24.9995 23.9103 24.9969 23.903 24.9947 23.8968C24.9431 23.393 24.5174 23 24 23H23.9906H23.9811H23.9716H23.962H23.9524H23.9427H23.933H23.9232H23.9133H23.9034H23.8935H23.8835H23.8734H23.8633H23.8531H23.8429H23.8326H23.8223H23.8119H23.8014H23.7909H23.7804H23.7698H23.7591H23.7484H23.7377H23.7269H23.716H23.7051H23.6942H23.6832H23.6721H23.661H23.6498H23.6386H23.6273H23.616H23.6047H23.5933H23.5818H23.5703H23.5587H23.5471H23.5355H23.5238H23.512H23.5002H23.4884H23.4765H23.4646H23.4526H23.4405H23.4285H23.4163H23.4042H23.3919H23.3797H23.3674H23.355H23.3426H23.3302H23.3177H23.3051H23.2925H23.2799H23.2673H23.2545H23.2418H23.229H23.2161H23.2032H23.1903H23.1773H23.1643H23.1513H23.1382H23.125H23.1118H23.0986H23.0853H23.072H23.0587H23.0453H23.0318H23.0184H23.0048H22.9913H22.9777H22.9641H22.9504H22.9367H22.9229H22.9091H22.8953H22.8814H22.8675H22.8536H22.8396H22.8255H22.8115H22.7974H22.7832H22.7691H22.7548H22.7406H22.7263H22.712H22.6976H22.6832H22.6688H22.6543H22.6398H22.6253H22.6107H22.5961H22.5815H22.5668H22.5521H22.5373H22.5226H22.5077H22.4929H22.478H22.4631H22.4481H22.4332H22.4181H22.4031H22.388H22.3729H22.3578H22.3426H22.3274H22.3121H22.2969H22.2816H22.2662H22.2509H22.2355H22.2201H22.2046H22.1891H22.1736H22.1581H22.1425H22.1269H22.1113H22.0956H22.0799H22.0642H22.0484H22.0327H22.0169H22.001H21.9852H21.9693H21.9534H21.9374H21.9215H21.9055H21.8895H21.8734H21.8574H21.8413H21.8251H21.809H21.7928H21.7766H21.7604H21.7441H21.7279H21.7116H21.6953H21.6789H21.6625H21.6462H21.6297H21.6133H21.5968H21.5804H21.5638H21.5473H21.5308H21.5142H21.4976H21.481H21.4643H21.4477H21.431H21.4143H21.3976H21.3808H21.3641H21.3473H21.3305H21.3137H21.2968H21.2799H21.2631H21.2462H21.2292H21.2123H21.1953H21.1784H21.1614H21.1444H21.1273H21.1103H21.0932H21.0761H21.059H21.0419H21.0248H21.0076H20.9905H20.9733H20.9561H20.9389H20.9216H20.9044H20.8871H20.8699H20.8526H20.8353H20.818H20.8006H20.7833H20.7659H20.7485H20.7312H20.7138H20.6963H20.6789H20.6615H20.644H20.6266H20.6091H20.5916H20.5741H20.5566H20.5391H20.5215H20.504H20.4864H20.4689H20.4513H20.4337H20.4161H20.3985H20.3809H20.3632H20.3456H20.328H20.3103H20.2926H20.275H20.2573H20.2396H20.2219H20.2042H20.1865H20.1688H20.151H20.1333H20.1156H20.0978H20.0801H20.0623H20.0445H20.0268H20.009H19.9912H19.9734H19.9556H19.9378H19.92H19.9022H19.8844H19.8666H19.8488H19.8309H19.8131H19.7953H19.7774H19.7596H19.7418H19.7239H19.7061H19.6882H19.6704H19.6525H19.6347H19.6168H19.5989H19.5811H19.5632H19.5454H19.5275H19.5096H19.4918H19.4739H19.4561H19.4382H19.4203H19.4025H19.3846H19.3667H19.3489H19.331H19.3132H19.2953H19.2775H19.2596H19.2418H19.2239H19.2061H19.1882H19.1704H19.1526H19.1347H19.1169H19.0991H19.0813H19.0635H19.0456H19.0278H19.01H18.9922H18.9745H18.9567H18.9389H18.9211H18.9033H18.8856H18.8678H18.8501H18.8323H18.8146H18.7969H18.7791H18.7614H18.7437H18.726H18.7083H18.6906H18.673H18.6553H18.6376H18.62H18.6024H18.5847H18.5671H18.5495H18.5319H18.5143H18.4967H18.4792H18.4616H18.444H18.4265H18.409H18.3915H18.374H18.3565H18.339H18.3215H18.3041H18.2866H18.2692H18.2518H18.2344H18.217H18.1996H18.1822H18.1649H18.1475H18.1302H18.1129H18.0956H18.0783H18.0611H18.0438H18.0266H18.0093H17.9921H17.975H17.9578H17.9406H17.9235H17.9064H17.8893H17.8722H17.8551H17.838H17.821H17.804H17.787H17.77H17.753H17.7361H17.7192H17.7022H17.6854H17.6685H17.6516H17.6348H17.618H17.6012H17.5844H17.5677H17.5509H17.5342H17.5175H17.5009H17.4842H17.4676H17.451H17.4344H17.4179H17.4013H17.3848H17.3683H17.3518H17.3354H17.319H17.3026H17.2862H17.2698H17.2535H17.2372H17.2209H17.2047H17.1884H17.1722H17.156H17.1399H17.1237H17.1076H17.0916H17.0755H17.0595H17.0435H17.0275H17.0115H16.9956H16.9797H16.9639H16.948H16.9322H16.9164H16.9007H16.8849H16.8692H16.8536H16.8379H16.8223H16.8067H16.7912H16.7756H16.7601H16.7447H16.7292H16.7138H16.6985H16.6831H16.6678H16.6525H16.6373H16.6221H16.6069H16.5917H16.5766H16.5615H16.5464H16.5314H16.5164H16.5014H16.4865H16.4716H16.4568H16.4419H16.4271H16.4124H16.3976H16.383H16.3683H16.3537H16.3391H16.3245H16.31H16.2955H16.2811H16.2667H16.2523H16.238H16.2237H16.2094H16.1952H16.181H16.1668H16.1527H16.1386H16.1246H16.1106H16.0966H16.0827H16.0688H16.055H16.0412H16.0274H16.0137H16ZM24.9859 23.8685C24.986 23.8686 24.9869 23.8714 24.9881 23.8766C24.9864 23.8711 24.9858 23.8684 24.9859 23.8685ZM16.7197 25.0653C16.7296 25.0438 16.7395 25.0221 16.7493 25H16.7601H16.7756H16.7912H16.8067H16.8223H16.8379H16.8536H16.8692H16.8849H16.9007H16.9164H16.9322H16.948H16.9639H16.9797H16.9956H17.0115H17.0275H17.0435H17.0595H17.0755H17.0916H17.1076H17.1237H17.1399H17.156H17.1722H17.1884H17.2047H17.2209H17.2372H17.2535H17.2698H17.2862H17.3026H17.319H17.3354H17.3518H17.3683H17.3848H17.4013H17.4179H17.4344H17.451H17.4676H17.4842H17.5009H17.5175H17.5342H17.5509H17.5677H17.5844H17.6012H17.618H17.6348H17.6516H17.6685H17.6854H17.7022H17.7192H17.7361H17.753H17.77H17.787H17.804H17.821H17.838H17.8551H17.8722H17.8893H17.9064H17.9235H17.9406H17.9578H17.975H17.9921H18.0093H18.0266H18.0438H18.0611H18.0783H18.0956H18.1129H18.1302H18.1475H18.1649H18.1822H18.1996H18.217H18.2344H18.2518H18.2692H18.2866H18.3041H18.3215H18.339H18.3565H18.374H18.3915H18.409H18.4265H18.444H18.4616H18.4792H18.4967H18.5143H18.5319H18.5495H18.5671H18.5847H18.6024H18.62H18.6376H18.6553H18.673H18.6906H18.7083H18.726H18.7437H18.7614H18.7791H18.7969H18.8146H18.8323H18.8501H18.8678H18.8856H18.9033H18.9211H18.9389H18.9567H18.9745H18.9922H19.01H19.0278H19.0456H19.0635H19.0813H19.0991H19.1169H19.1347H19.1526H19.1704H19.1882H19.2061H19.2239H19.2418H19.2596H19.2775H19.2953H19.3132H19.331H19.3489H19.3667H19.3846H19.4025H19.4203H19.4382H19.4561H19.4739H19.4918H19.5096H19.5275H19.5454H19.5632H19.5811H19.5989H19.6168H19.6347H19.6525H19.6704H19.6882H19.7061H19.7239H19.7418H19.7596H19.7774H19.7953H19.8131H19.8309H19.8488H19.8666H19.8844H19.9022H19.92H19.9378H19.9556H19.9734H19.9912H20.009H20.0268H20.0445H20.0623H20.0801H20.0978H20.1156H20.1333H20.151H20.1688H20.1865H20.2042H20.2219H20.2396H20.2573H20.275H20.2926H20.3103H20.328H20.3456H20.3632H20.3809H20.3985H20.4161H20.4337H20.4513H20.4689H20.4864H20.504H20.5215H20.5391H20.5566H20.5741H20.5916H20.6091H20.6266H20.644H20.6615H20.6789H20.6963H20.7138H20.7312H20.7485H20.7659H20.7833H20.8006H20.818H20.8353H20.8526H20.8699H20.8871H20.9044H20.9216H20.9389H20.9561H20.9733H20.9905H21.0076H21.0248H21.0419H21.059H21.0761H21.0932H21.1103H21.1273H21.1444H21.1614H21.1784H21.1953H21.2123H21.2292H21.2462H21.2631H21.2799H21.2968H21.3137H21.3305H21.3473H21.3641H21.3808H21.3976H21.4143H21.431H21.4477H21.4643H21.481H21.4976H21.5142H21.5308H21.5473H21.5638H21.5804H21.5968H21.6133H21.6297H21.6462H21.6625H21.6789H21.6953H21.7116H21.7279H21.7441H21.7604H21.7766H21.7928H21.809H21.8251H21.8413H21.8574H21.8734H21.8895H21.9055H21.9215H21.9374H21.9534H21.9693H21.9852H22.001H22.0169H22.0327H22.0484H22.0642H22.0799H22.0956H22.1113H22.1269H22.1425H22.1581H22.1736H22.1891H22.2046H22.2201H22.2355H22.2509H22.2662H22.2816H22.2969H22.3121H22.3274H22.3426H22.3578H22.3729H22.388H22.4031H22.4181H22.4332H22.4481H22.4631H22.478H22.4929H22.5077H22.5226H22.5373H22.5521H22.5668H22.5815H22.5961H22.6107H22.6253H22.6398H22.6543H22.6688H22.6832H22.6976H22.712H22.7263H22.7406H22.7548H22.7691H22.7832H22.7974H22.8115H22.8255H22.8396H22.8536H22.8675H22.8814H22.8953H22.9091H22.9229H22.9367H22.9504H22.9641H22.9777H22.9913H23.0048H23.0184H23.0318H23.0453H23.0587H23.072H23.0853H23.0986H23.1118H23.125H23.1382H23.1513H23.1643H23.1773H23.1903H23.2032H23.2161H23.229H23.2418H23.2545H23.2673H23.2799H23.2925H23.2975C23.323 25.0511 23.3497 25.1024 23.3773 25.1538C23.5714 25.5142 23.8413 25.9269 24.1635 26.3207C24.4834 26.7117 24.8789 27.1135 25.3311 27.4251C25.5303 27.5623 25.7547 27.6916 26 27.7927V30H14V29.9968V29.9891V29.9814V29.9736V29.9658V29.958V29.9502V29.9424V29.9345V29.9267V29.9188V29.9109V29.903V29.8951V29.8871V29.8792V29.8712V29.8632V29.8552V29.8472V29.8391V29.8311V29.823V29.8149V29.8068V29.7987V29.7906V29.7825V29.7743V29.7661V29.758V29.7498V29.7416V29.7333V29.7251V29.7168V29.7086V29.7003V29.692V29.6837V29.6754V29.667V29.6587V29.6503V29.642V29.6336V29.6252V29.6168V29.6083V29.5999V29.5915V29.583V29.5745V29.566V29.5575V29.549V29.5405V29.532V29.5234V29.5149V29.5063V29.4977V29.4891V29.4805V29.4719V29.4633V29.4547V29.446V29.4373V29.4287V29.42V29.4113V29.4026V29.3939V29.3852V29.3765V29.3677V29.359V29.3502V29.3414V29.3326V29.3239V29.3151V29.3062V29.2974V29.2886V29.2798V29.2709V29.2621V29.2532V29.2443V29.2355V29.2266V29.2177V29.2088V29.1998V29.1909V29.182V29.173V29.1641V29.1551V29.1462V29.1372V29.1282V29.1192V29.1103V29.1013V29.0922V29.0832V29.0742V29.0652V29.0561V29.0471V29.0381V29.029V29.0199V29.0109V29.0018V28.9927V28.9836V28.9745V28.9654V28.9563V28.9472V28.9381V28.929V28.9198V28.9107V28.9016V28.8924V28.8833V28.8741V28.865V28.8558V28.8466V28.8375V28.8283V28.8191V28.8099V28.8007V28.7915V28.7823V28.7731V28.7639V28.7547V28.7455V28.7363V28.7271V28.7178V28.7086V28.6994V28.6901V28.6809V28.6716V28.6624V28.6532V28.6439V28.6347V28.6254V28.6161V28.6069V28.5976V28.5884V28.5791V28.5698V28.5605V28.5513V28.542V28.5327V28.5234V28.5142V28.5049V28.4956V28.4863V28.477V28.4678V28.4585V28.4492V28.4399V28.4306V28.4213V28.412V28.4027V28.3934V28.3842V28.3749V28.3656V28.3563V28.347V28.3377V28.3284V28.3191V28.3098V28.3006V28.2913V28.282V28.2727V28.2634V28.2541V28.2448V28.2356V28.2263V28.217V28.2077V28.1985V28.1892V28.1799V28.1706V28.1614V28.1521V28.1429V28.1336V28.1243V28.1151V28.1058V28.0966V28.0873V28.0781V28.0688V28.0596V28.0504V28.0411V28.0319V28.0227V28.0135V28.0042V27.995V27.9858V27.9766V27.9674V27.9582V27.949V27.9398V27.9306V27.9215V27.9123V27.9031V27.8939V27.8848V27.8756V27.8665V27.8573V27.8482V27.839V27.8299V27.8208V27.8116V27.8025V27.7934V27.7843V27.7752V27.7661V27.757V27.7479V27.7389V27.7298V27.7207V27.7142C14.8795 27.3353 15.5528 26.7436 16.0257 26.1623C16.327 25.792 16.559 25.4116 16.7197 25.0653Z" fill="#1D7CE6"/>
</svg>
