<svg width="40" height="40" viewBox="0 0 40 40" fill="none" xmlns="http://www.w3.org/2000/svg">
<path opacity="0.1" fill-rule="evenodd" clip-rule="evenodd" d="M12.5 5L12 1H17V4L18 5H23L24 4V1H29L27.5 7L23.5 10L17 9.5L12.5 5ZM23 35H31V39H23V35ZM2.5 26C1.67157 26 1 26.6716 1 27.5C1 28.3284 1.67157 29 2.5 29H18.5C19.3284 29 20 28.3284 20 27.5C20 26.6716 19.3284 26 18.5 26H2.5ZM1 32.5C1 31.6716 1.67157 31 2.5 31H18.5C19.3284 31 20 31.6716 20 32.5C20 33.3284 19.3284 34 18.5 34H2.5C1.67157 34 1 33.3284 1 32.5ZM2.5 36C1.67157 36 1 36.6716 1 37.5C1 38.3284 1.67157 39 2.5 39H18.5C19.3284 39 20 38.3284 20 37.5C20 36.6716 19.3284 36 18.5 36H2.5Z" fill="#307FDD"/>
<path fill-rule="evenodd" clip-rule="evenodd" d="M33.2992 11.9476L32.9896 11.756L32.9164 11.7108L32.159 11.2421L31.5801 10.8839C31.4624 10.8061 31.3081 10.8029 31.1879 10.8756C31.0656 10.9499 30.9896 11.0902 30.9896 11.2421V11.7779V11.8383V12.7765V12.8704V34H24C23.4477 34 23 34.4477 23 35C23 35.5523 23.4477 36 24 36H30.9896V38H28.9896L23.0002 38V40.0001L30.9896 40C32.0942 40 32.9896 39.1045 32.9896 38V14.1079L33.9478 14.7008C34.4029 14.9824 34.9519 15.0699 35.4719 14.9436C35.992 14.8174 36.4398 14.488 36.7151 14.029L39.7151 9.02905C40.2173 8.1922 40.0421 7.11515 39.3006 6.48057L32.29 0.480574C31.9277 0.170476 31.4665 5.79357e-05 30.9896 5.66244e-05L23.012 3.51027e-05C23.008 1.17117e-05 23.004 0 23 0H18C17.9969 0 17.9937 7.19064e-06 17.9906 2.15563e-05L10.0002 0C9.56741 0 9.14634 0.140357 8.80015 0.400005L0.800145 6.40006C-0.0197617 7.015 -0.242134 8.15022 0.285167 9.02905L3.28517 14.029C3.81997 14.9204 4.94841 15.2535 5.8815 14.7954L7.96883 13.7707V23H3.5C1.567 23 1.87399e-09 24.567 1.87399e-09 26.5C1.87399e-09 27.4793 0.402235 28.3647 1.05051 29C0.402235 29.6353 1.87399e-09 30.5207 1.87399e-09 31.5C1.87399e-09 32.4793 0.402235 33.3647 1.05051 34C0.402235 34.6353 1.87399e-09 35.5207 1.87399e-09 36.5C1.87399e-09 38.433 1.567 40 3.5 40H17.5C19.433 40 21 38.433 21 36.5C21 35.5207 20.5978 34.6353 19.9495 34C20.5978 33.3647 21 32.4793 21 31.5C21 30.5207 20.5978 29.6353 19.9495 29C20.5978 28.3647 21 27.4793 21 26.5C21 24.567 19.433 23 17.5 23H8.00015V21.0001H9.96883L9.96883 12.7889V12.7433V12.0539V11.7428V11.2089C9.96874 11.0571 9.89272 10.9168 9.77037 10.8425C9.65002 10.7698 9.49554 10.7731 9.37824 10.8508L8.6488 11.2089L8.64725 11.2097L8.00212 11.5264L7.96883 11.5427L5.00015 13.0001L2.00015 8.00006L10.0002 2H11C11 6.97056 15.2533 11 20.5 11C25.7467 11 30 6.97059 30 2.00005L30.9896 2.00006L38.0002 8.00006L36.0292 11.2849L35.0002 13.0001L33.2992 11.9476ZM28 2.00005L25 2.00004V4C25 5.10457 24.1046 6 23 6H18C16.8954 6 16 5.10457 16 4V2L13 2C13 5.76548 16.2546 9 20.5 9C24.7454 9 28 5.76551 28 2.00005ZM18 2V4H23V2.00004L18 2ZM7.96883 25H3.5C2.67157 25 2 25.6716 2 26.5C2 27.3284 2.67157 28 3.5 28H7.96883V25ZM8.00015 28V25H17.5C18.3284 25 19 25.6716 19 26.5C19 27.3284 18.3284 28 17.5 28H8.00015ZM7.96883 30H3.5C2.67157 30 2 30.6716 2 31.5C2 32.3284 2.67157 33 3.5 33H7.96883V30ZM8.00015 33V30H17.5C18.3284 30 19 30.6716 19 31.5C19 32.3284 18.3284 33 17.5 33H8.00015ZM7.96883 35H3.5C2.67157 35 2 35.6716 2 36.5C2 37.3284 2.67157 38 3.5 38H7.96883V35ZM8.00015 38V35H17.5C18.3284 35 19 35.6716 19 36.5C19 37.3284 18.3284 38 17.5 38H8.00015Z" fill="#307FDD"/>
</svg>
