<svg width="18" height="18" viewBox="0 0 18 18" fill="none" xmlns="http://www.w3.org/2000/svg">
<path d="M9 8C7.89543 8 7 7.10457 7 6C7 4.89543 7.89543 4 9 4C10.1046 4 11 4.89543 11 6C11 7.10457 10.1046 8 9 8Z" fill="#999999"/>
<path fill-rule="evenodd" clip-rule="evenodd" d="M9.66896 14.7433L9 14C9.66896 14.7433 9.66879 14.7435 9.66896 14.7433L9.67101 14.7415L9.67486 14.738L9.68791 14.7261L9.73453 14.6833C9.77444 14.6465 9.83161 14.5932 9.90359 14.5248C10.0475 14.3881 10.2509 14.1907 10.4942 13.9434C10.9795 13.4501 11.6288 12.7522 12.2809 11.9372C12.9305 11.1252 13.5988 10.177 14.1086 9.18288C14.6128 8.1996 15 7.09855 15 6C15 2.68629 12.3137 0 9 0C5.68629 0 3 2.68629 3 6C3 7.09855 3.38719 8.1996 3.89143 9.18288C4.40123 10.177 5.06954 11.1252 5.71913 11.9372C6.37117 12.7522 7.02054 13.4501 7.50582 13.9434C7.74905 14.1907 7.95251 14.3881 8.09641 14.5248C8.16839 14.5932 8.22556 14.6465 8.26547 14.6833L8.31209 14.7261L8.32514 14.738L8.32899 14.7415L8.33024 14.7426C8.33042 14.7427 8.33104 14.7433 9 14L8.33104 14.7433C8.71134 15.0856 9.28866 15.0856 9.66896 14.7433ZM9 12.6101L8.93168 12.5409C8.47946 12.0812 7.87883 11.4353 7.28087 10.6878C6.68046 9.93729 6.09877 9.10428 5.67107 8.27025C5.23781 7.4254 5 6.65145 5 6C5 3.79086 6.79086 2 9 2C11.2091 2 13 3.79086 13 6C13 6.65145 12.7622 7.4254 12.3289 8.27025C11.9012 9.10428 11.3195 9.93729 10.7191 10.6878C10.1212 11.4353 9.52054 12.0812 9.06832 12.5409L9 12.6101Z" fill="#999999"/>
<path d="M3.70711 11.2929C4.09763 11.6834 4.09763 12.3166 3.70711 12.7071L2.29289 14.1213C2.10536 14.3089 2 14.5632 2 14.8284V15C2 15.5523 2.44772 16 3 16H15C15.5523 16 16 15.5523 16 15V14.8284C16 14.5632 15.8946 14.3089 15.7071 14.1213L14.2929 12.7071C13.9024 12.3166 13.9024 11.6834 14.2929 11.2929C14.6834 10.9024 15.3166 10.9024 15.7071 11.2929L17.1213 12.7071C17.6839 13.2697 18 14.0328 18 14.8284V15C18 16.6569 16.6569 18 15 18H3C1.34315 18 0 16.6569 0 15V14.8284C0 14.0328 0.316071 13.2697 0.87868 12.7071L2.29289 11.2929C2.68342 10.9024 3.31658 10.9024 3.70711 11.2929Z" fill="#999999"/>
</svg>
