<svg id="Group_37_copy" data-name="Group 37 copy" xmlns="http://www.w3.org/2000/svg" width="40" height="40" viewBox="0 0 40 40">
  <defs>
    <style>
      .cls-1, .cls-2 {
        fill: #2077cf;
        fill-rule: evenodd;
      }

      .cls-2 {
        opacity: 0.1;
      }
    </style>
  </defs>
  <path id="Rounded_Rectangle_878_copy_4" data-name="Rounded Rectangle 878 copy 4" class="cls-1" d="M565,2812H541a8,8,0,0,1-8-8v-28a4,4,0,0,1,4-4h32a4,4,0,0,1,4,4v28A8,8,0,0,1,565,2812Zm6-36a2,2,0,0,0-2-2H537a2,2,0,0,0-2,2v7h36v-7Zm0,9H535v19a6,6,0,0,0,6,6h24a6,6,0,0,0,6-6v-19Zm-3,20H538a1,1,0,0,1,0-2h30A1,1,0,0,1,568,2805Zm0-3H538a1,1,0,0,1,0-2h30A1,1,0,0,1,568,2802Zm0-3H538a1,1,0,0,1,0-2h30A1,1,0,0,1,568,2799Zm0-3H538a1,1,0,0,1,0-2h30A1,1,0,0,1,568,2796Zm-21-17a1,1,0,1,1-1,1A1,1,0,0,1,547,2779Zm4,0h8a1,1,0,0,1,0,2h-8A1,1,0,0,1,551,2779Z" transform="translate(-533 -2772)"/>
  <path class="cls-2" d="M553,2773h16.937l2.063,2v29.4l-2,4.6-4.586,2H553v-38Z" transform="translate(-533 -2772)"/>
</svg>
