<svg id="Group_55_copy_2" data-name="Group 55 copy 2" xmlns="http://www.w3.org/2000/svg" width="40" height="40" viewBox="0 0 40 40">
  <defs>
    <style>
      .cls-1, .cls-2 {
        fill: #2077cf;
        fill-rule: evenodd;
      }

      .cls-2 {
        opacity: 0.1;
      }
    </style>
  </defs>
  <path id="Rounded_Rectangle_922_copy" data-name="Rounded Rectangle 922 copy" class="cls-1" d="M867.712,3614.04C866.4,3623.15,860.763,3630,854,3630h-7c-5.364,0-10.053-3.77-12.7-9.41A9.009,9.009,0,0,1,828,3612v-4a9.009,9.009,0,0,1,6.3-8.59c2.649-5.64,7.338-9.41,12.7-9.41h7c6.763,0,12.4,6.85,13.712,15.96a4.456,4.456,0,0,1,.288,1.54v5A4.456,4.456,0,0,1,867.712,3614.04ZM854,3628c5.05,0,9.36-4.69,11.129-11.32a4.35,4.35,0,0,1-3.909-.32c-1.285,5.1-4.072,9.28-7.661,11.62C853.706,3627.99,853.852,3628,854,3628Zm-7,0a7.956,7.956,0,0,0,.847-0.05,17.361,17.361,0,0,1-5.632-7.21A9.524,9.524,0,0,1,840,3621h-2v-0.06a8.274,8.274,0,0,1-1,.06c-0.1,0-.188-0.01-0.282-0.01C839.093,3625.25,842.811,3628,847,3628Zm0.849-20.54a8.007,8.007,0,0,0-4.268-5.59A8.976,8.976,0,0,1,846,3608v4a8.974,8.974,0,0,1-2.4,6.11,7.975,7.975,0,0,0,4.372-6.48,2.659,2.659,0,0,1-.968-2.13A2.724,2.724,0,0,1,847.849,3607.46ZM830,3608v4a7,7,0,0,0,14,0v-4A7,7,0,0,0,830,3608Zm17-16c-4.189,0-7.907,2.75-10.282,7.01,0.094,0,.187-0.01.282-0.01a8.274,8.274,0,0,1,1,.06V3599h2a9.524,9.524,0,0,1,2.215.26,17.361,17.361,0,0,1,5.632-7.21A7.956,7.956,0,0,0,847,3592Zm-2.909,7.88a10.02,10.02,0,0,1,5.744,7.35A2.6,2.6,0,0,1,851,3609.5a2.646,2.646,0,0,1-1.034,2.18,10,10,0,0,1-5.876,8.44c1.546,3.4,3.845,5.97,6.541,7.15,4.35-1.76,7.752-6.57,8.916-12.66a4.438,4.438,0,0,1-.547-2.11v-5a4.438,4.438,0,0,1,.547-2.11c-1.164-6.09-4.566-10.9-8.916-12.66C847.936,3593.91,845.637,3596.48,844.091,3599.88ZM854,3592c-0.148,0-.294.01-0.441,0.02,3.589,2.34,6.376,6.52,7.661,11.62a4.35,4.35,0,0,1,3.909-.32C863.36,3596.69,859.05,3592,854,3592Zm12,15.5a2.491,2.491,0,0,0-4.338-1.68c0.01,0.06.027,0.12,0.037,0.18h-0.188a2.473,2.473,0,0,0-.511,1.5v5a2.473,2.473,0,0,0,.511,1.5H861.7c-0.01.06-.027,0.12-0.037,0.18A2.491,2.491,0,0,0,866,3612.5v-5Zm-32,1.5a1.625,1.625,0,1,1,1-1.5A1.328,1.328,0,0,1,834,3609Zm0.44,2.55v-0.01a2.975,2.975,0,0,0,5.127-.01l0.024,0.02a0.993,0.993,0,1,1,1.579,1.16,4.955,4.955,0,0,1-8.441-.14l0.022-.02a0.96,0.96,0,0,1-.189-0.55A0.991,0.991,0,0,1,834.44,3611.55ZM840,3609a1.625,1.625,0,1,1,1-1.5A1.328,1.328,0,0,1,840,3609Z" transform="translate(-828 -3590)"/>
  <path id="Shape_1048_copy" data-name="Shape 1048 copy" class="cls-2" d="M864,3622l-3,4-4,3h-5l1-1,1-1,2-3,2-2,2-4,1-2h3l2-1v4Zm-3-18-1-2-2-4-2-2-2-3-1-1-1-1h5l4,3,3,4,2,3v4l-2-1h-3Zm-20,23-4-3-2-3,4-1,3-1,2,4,3,3,3,2v1h-6Zm3-30-2,4-3-1-4-1,2-3,4-3,3-2h6v1l-3,2Z" transform="translate(-828 -3590)"/>
</svg>
