<svg id="Group_27_copy_4" data-name="Group 27 copy 4" xmlns="http://www.w3.org/2000/svg" width="40" height="40" viewBox="0 0 40 40">
  <metadata><?xpacket begin="﻿" id="W5M0MpCehiHzreSzNTczkc9d"?>
<x:xmpmeta xmlns:x="adobe:ns:meta/" x:xmptk="Adobe XMP Core 5.6-c142 79.160924, 2017/07/13-01:06:39        ">
   <rdf:RDF xmlns:rdf="http://www.w3.org/1999/02/22-rdf-syntax-ns#">
      <rdf:Description rdf:about=""/>
   </rdf:RDF>
</x:xmpmeta>
                                                                                                    
                                                                                                    
                                                                                                    
                                                                                                    
                                                                                                    
                                                                                                    
                                                                                                    
                                                                                                    
                                                                                                    
                                                                                                    
                                                                                                    
                                                                                                    
                                                                                                    
                                                                                                    
                                                                                                    
                                                                                                    
                                                                                                    
                                                                                                    
                                                                                                    
                                                                                                    
                           
<?xpacket end="w"?></metadata>
<defs>
    <style>
      .cls-1, .cls-2 {
        fill: #2077cf;
        fill-rule: evenodd;
      }

      .cls-2 {
        opacity: 0.1;
      }
    </style>
  </defs>
  <path id="Rounded_Rectangle_780" data-name="Rounded Rectangle 780" class="cls-1" d="M1260,1238a9,9,0,0,1-2.65-17.6l-0.82-4.29-13.77,2.76-0.76,2.08a8.98,8.98,0,1,1-4-.95,8.752,8.752,0,0,1,2.13.27l0.81-2.19-1.62-4.08H1238a1,1,0,0,1,0-2h6a1,1,0,0,1,0,2h-2.53l1.14,2.86,13.55-2.71-0.98-5.15H1253a1,1,0,0,1,0-2h3a0.8,0.8,0,0,1,.15.03,0.185,0.185,0,0,1,.07.02,0.729,0.729,0,0,1,.26.09c0.05,0.03.09,0.06,0.14,0.09a0.681,0.681,0,0,1,.12.12,0.888,0.888,0,0,1,.16.22,0.488,0.488,0,0,0,.03.07,0.843,0.843,0,0,1,.06.14l0.89,4.66a0.985,0.985,0,0,1,.62-0.4,1,1,0,0,1,1.17.79l0.37,1.97a1,1,0,0,1-1.52,1.02l0.8,4.21c0.22-.01.45-0.03,0.68-0.03A9,9,0,0,1,1260,1238Zm-18.71-15.14-1.79,4.84a1.948,1.948,0,0,1,.5,1.3,2,2,0,1,1-2.37-1.96l1.81-4.89a6.9,6.9,0,0,0-1.44-.15A7.1,7.1,0,1,0,1241.29,1222.86ZM1260,1222c-0.1,0-.2.03-0.3,0.03l0.96,5.09A2,2,0,1,1,1258,1229a1.976,1.976,0,0,1,.69-1.5l-0.96-5.09A6.922,6.922,0,1,0,1260,1222Zm-30,18h37.99a1.1,1.1,0,0,1,.4.08,0.607,0.607,0,0,1,.1.07,0.6,0.6,0,0,1,.36.36,0.607,0.607,0,0,1,.07.1,0.98,0.98,0,0,1,0,.77,0.9,0.9,0,0,1-.18.28,0.133,0.133,0,0,0-.03.05l-5,5a1,1,0,0,1-1.42-1.42l3.3-3.29h-5.18l-4.7,4.71a1,1,0,0,1-1.42-1.42l3.3-3.29h-5.18l-4.7,4.71a1,1,0,0,1-1.42-1.42l3.3-3.29h-5.18l-4.7,4.71a1,1,0,0,1-1.42-1.42l3.3-3.29h-5.18l-4.7,4.71a1,1,0,0,1-1.42-1.42l3.3-3.29H1230A1,1,0,0,1,1230,1240Z" transform="translate(-1229 -1207)"/>
  <path id="Ellipse_813_copy" data-name="Ellipse 813 copy" class="cls-2" d="M1261.5,1237a6.5,6.5,0,1,1,6.5-6.5A6.5,6.5,0,0,1,1261.5,1237Zm-22,0a6.5,6.5,0,1,1,6.5-6.5A6.5,6.5,0,0,1,1239.5,1237Z" transform="translate(-1229 -1207)"/>
</svg>
