<svg width="18" height="18" viewBox="0 0 18 18" fill="none" xmlns="http://www.w3.org/2000/svg">
<path fill-rule="evenodd" clip-rule="evenodd" d="M0.675782 2.34921C0.980807 0.976596 2.19825 0 3.60434 0H14.4384C15.8151 0 17.015 0.936892 17.3489 2.27239L17.9104 4.5186C17.9699 4.75657 18 5.00093 18 5.24621V6C18 6.8885 17.6137 7.68679 17 8.23611V15C17 16.6569 15.6569 18 14 18H4C2.34315 18 1 16.6569 1 15V8.23611C0.386251 7.68679 0 6.8885 0 6V5.71954C0 5.50066 0.0239556 5.28243 0.0714388 5.06875L0.675782 2.34921ZM13 8.2361C13.5308 8.71115 14.2316 9 15 9V15C15 15.5523 14.5523 16 14 16H12V13C12 11.3431 10.6569 10 9 10C7.34315 10 6 11.3431 6 13V16H4C3.44772 16 3 15.5523 3 15V9C3.76835 9 4.46924 8.71115 5 8.23611C5.53076 8.71115 6.23165 9 7 9C7.76836 9 8.46924 8.71115 9 8.2361C9.53076 8.71115 10.2316 9 11 9C11.7684 9 12.4692 8.71115 13 8.2361ZM8 6C8 6.55228 7.55228 7 7 7C6.44772 7 6 6.55228 6 6C6 5.44772 5.55228 5 5 5C4.44772 5 4 5.44772 4 6C4 6.55228 3.55228 7 3 7C2.44772 7 2 6.55228 2 6V5.71954C2 5.64658 2.00799 5.57384 2.02381 5.50261L2.62816 2.78307C2.72983 2.32553 3.13564 2 3.60434 2H14.4384C14.8973 2 15.2973 2.3123 15.4086 2.75746L15.9701 5.00368C15.99 5.083 16 5.16445 16 5.24621V6C16 6.55228 15.5523 7 15 7C14.4477 7 14 6.55228 14 6C14 5.44772 13.5523 5 13 5C12.4477 5 12 5.44772 12 6C12 6.55228 11.5523 7 11 7C10.4477 7 10 6.55228 10 6C10 5.44772 9.55229 5 9 5C8.44772 5 8 5.44772 8 6ZM10 16V13C10 12.4477 9.55228 12 9 12C8.44772 12 8 12.4477 8 13V16H10Z" fill="#999999"/>
</svg>
