<svg width="18" height="18" viewBox="0 0 18 18" fill="none" xmlns="http://www.w3.org/2000/svg">
<path d="M6 5C6 4.44772 6.44772 4 7 4H11C11.5523 4 12 4.44772 12 5C12 5.55228 11.5523 6 11 6H7C6.44772 6 6 5.55228 6 5Z" fill="#999999"/>
<path d="M7 7C6.44772 7 6 7.44772 6 8C6 8.55228 6.44772 9 7 9H11C11.5523 9 12 8.55228 12 8C12 7.44772 11.5523 7 11 7H7Z" fill="#999999"/>
<path fill-rule="evenodd" clip-rule="evenodd" d="M2 3C2 1.34315 3.34315 0 5 0H13C14.6569 0 16 1.34315 16 3V11C17.1046 11 18 11.8954 18 13V15C18 16.6569 16.6569 18 15 18H3C1.34314 18 0 16.6569 0 15V11C0 9.89543 0.895431 9 2 9V3ZM3 16H15C15.5523 16 16 15.5523 16 15V13H9.47214C9.0064 13 8.54706 12.8916 8.1305 12.6833L4.76393 11L2 11V15C2 15.5523 2.44771 16 3 16ZM13 2C13.5523 2 14 2.44772 14 3V11H9.47214C9.31689 11 9.16378 10.9639 9.02492 10.8944L5.65836 9.21115C5.38065 9.07229 5.07442 9 4.76393 9H4V3C4 2.44772 4.44772 2 5 2H13Z" fill="#999999"/>
</svg>
