<svg width="42" height="40" viewBox="0 0 42 40" fill="none" xmlns="http://www.w3.org/2000/svg">
<path d="M9 36V28H21H33V36H9Z" fill="#1D7CE6" fill-opacity="0.1"/>
<path d="M21 9L14 1H27.5L21 9Z" fill="#1D7CE6" fill-opacity="0.1"/>
<path fill-rule="evenodd" clip-rule="evenodd" d="M14 1.72217e-10C12.1328 -1.4901e-05 10.6922 0.966972 9.73195 1.97149C9.03347 2.70217 8.5173 3.52725 8.23418 4.17523C8.16463 4.20363 8.10173 4.23193 8.04763 4.25705C7.7791 4.38173 7.49127 4.54495 7.21999 4.7145C6.69229 5.04431 6.12005 5.46572 5.79288 5.79289C3.04864 8.53713 2.00885 10.6051 2.00004 12.9697L1.00171 29.9413L0.954651 30.7413L1.72527 30.9615L7.99999 32.7543V39V40H8.99999H33H34V39V32.7543L40.2747 30.9615L41.0453 30.7413L40.9983 29.9413L39.9999 12.9683C39.9924 12.0986 39.679 10.9564 39.0852 9.74683C38.4741 8.50211 37.5347 7.12047 36.2071 5.79289C35.8799 5.46572 35.3077 5.04431 34.78 4.7145C34.5087 4.54495 34.2209 4.38173 33.9524 4.25705C33.9146 4.23952 33.8725 4.22044 33.8269 4.20085C33.7456 3.99033 33.6376 3.76793 33.5101 3.54349C33.234 3.05769 32.8392 2.51434 32.342 2.00292C31.36 0.992846 29.8679 1.72217e-10 28 1.72217e-10H14ZM10.6471 4H10.6395C10.7921 3.78942 10.9712 3.56943 11.1777 3.35349C11.8192 2.68233 12.625 2.15342 13.5709 2.02822L15.7474 4.51565L17.2588 6.24292L12.4061 4.08619L12.2122 4H12V5L12 4H11.9999H11.9997H11.9995H11.9993H11.999H11.9986H11.9982H11.9977H11.9972H11.9966H11.9959H11.9952H11.9945H11.9937H11.9928H11.9919H11.9909H11.9899H11.9888H11.9877H11.9865H11.9853H11.984H11.9826H11.9812H11.9798H11.9783H11.9767H11.9751H11.9735H11.9718H11.97H11.9682H11.9664H11.9645H11.9625H11.9605H11.9585H11.9564H11.9542H11.952H11.9498H11.9475H11.9451H11.9427H11.9403H11.9378H11.9352H11.9327H11.93H11.9273H11.9246H11.9218H11.919H11.9162H11.9132H11.9103H11.9073H11.9042H11.9011H11.898H11.8948H11.8916H11.8883H11.885H11.8816H11.8782H11.8748H11.8713H11.8678H11.8642H11.8606H11.8569H11.8532H11.8495H11.8457H11.8418H11.838H11.834H11.8301H11.8261H11.8221H11.818H11.8139H11.8097H11.8055H11.8013H11.797H11.7927H11.7883H11.7839H11.7795H11.775H11.7705H11.766H11.7614H11.7568H11.7521H11.7474H11.7427H11.7379H11.7331H11.7283H11.7234H11.7185H11.7135H11.7085H11.7035H11.6984H11.6933H11.6882H11.683H11.6778H11.6726H11.6673H11.662H11.6567H11.6513H11.6459H11.6405H11.635H11.6295H11.624H11.6184H11.6128H11.6072H11.6016H11.5959H11.5901H11.5844H11.5786H11.5728H11.5669H11.5611H11.5552H11.5492H11.5432H11.5373H11.5312H11.5252H11.5191H11.513H11.5068H11.5007H11.4945H11.4883H11.482H11.4757H11.4694H11.4631H11.4567H11.4503H11.4439H11.4375H11.431H11.4245H11.418H11.4115H11.4049H11.3983H11.3917H11.385H11.3784H11.3717H11.365H11.3582H11.3515H11.3447H11.3379H11.331H11.3242H11.3173H11.3104H11.3035H11.2965H11.2896H11.2826H11.2756H11.2685H11.2615H11.2544H11.2473H11.2402H11.2331H11.2259H11.2188H11.2116H11.2044H11.1971H11.1899H11.1826H11.1753H11.168H11.1607H11.1533H11.146H11.1386H11.1312H11.1238H11.1164H11.1089H11.1015H11.094H11.0865H11.079H11.0714H11.0639H11.0563H11.0488H11.0412H11.0336H11.026H11.0183H11.0107H11.003H10.9954H10.9877H10.98H10.9723H10.9645H10.9568H10.949H10.9413H10.9335H10.9257H10.9179H10.9101H10.9023H10.8944H10.8866H10.8787H10.8709H10.863H10.8551H10.8472H10.8393H10.8314H10.8235H10.8155H10.8076H10.7996H10.7917H10.7837H10.7757H10.7677H10.7597H10.7517H10.7437H10.7357H10.7277H10.7197H10.7116H10.7036H10.6955H10.6875H10.6794H10.6714H10.6633H10.6552H10.6471ZM17.2526 3.19864L16.2038 2H25.7962L24.7474 3.19864L21 7.48141L17.2526 3.19864ZM26.2526 4.51565L28.4284 2.02896C29.3862 2.15844 30.2383 2.70827 30.908 3.39708C31.1025 3.59715 31.2745 3.80202 31.4218 4H31.4176H31.4095H31.4014H31.3933H31.3852H31.3771H31.369H31.3609H31.3528H31.3448H31.3367H31.3286H31.3205H31.3125H31.3044H31.2964H31.2883H31.2803H31.2723H31.2643H31.2562H31.2482H31.2402H31.2322H31.2243H31.2163H31.2083H31.2003H31.1924H31.1845H31.1765H31.1686H31.1607H31.1528H31.1449H31.137H31.1291H31.1212H31.1134H31.1055H31.0977H31.0899H31.0821H31.0743H31.0665H31.0587H31.0509H31.0432H31.0354H31.0277H31.02H31.0123H31.0046H30.9969H30.9893H30.9816H30.974H30.9664H30.9588H30.9512H30.9436H30.9361H30.9285H30.921H30.9135H30.906H30.8985H30.8911H30.8836H30.8762H30.8688H30.8614H30.854H30.8466H30.8393H30.832H30.8247H30.8174H30.8101H30.8029H30.7956H30.7884H30.7812H30.774H30.7669H30.7598H30.7526H30.7455H30.7385H30.7314H30.7244H30.7174H30.7104H30.7034H30.6965H30.6896H30.6827H30.6758H30.6689H30.6621H30.6553H30.6485H30.6417H30.635H30.6283H30.6216H30.6149H30.6083H30.6017H30.5951H30.5885H30.582H30.5755H30.569H30.5625H30.5561H30.5496H30.5433H30.5369H30.5306H30.5243H30.518H30.5117H30.5055H30.4993H30.4931H30.487H30.4809H30.4748H30.4687H30.4627H30.4567H30.4508H30.4448H30.4389H30.433H30.4272H30.4214H30.4156H30.4098H30.4041H30.3984H30.3928H30.3871H30.3815H30.376H30.3704H30.3649H30.3595H30.354H30.3486H30.3433H30.3379H30.3326H30.3274H30.3221H30.3169H30.3118H30.3066H30.3015H30.2965H30.2915H30.2865H30.2815H30.2766H30.2717H30.2669H30.2621H30.2573H30.2526H30.2479H30.2432H30.2386H30.234H30.2294H30.2249H30.2205H30.216H30.2116H30.2073H30.203H30.1987H30.1945H30.1903H30.1861H30.182H30.1779H30.1739H30.1699H30.1659H30.162H30.1581H30.1543H30.1505H30.1468H30.1431H30.1394H30.1358H30.1322H30.1287H30.1252H30.1217H30.1183H30.115H30.1117H30.1084H30.1052H30.102H30.0988H30.0957H30.0927H30.0897H30.0867H30.0838H30.081H30.0781H30.0754H30.0726H30.07H30.0673H30.0647H30.0622H30.0597H30.0573H30.0549H30.0525H30.0502H30.048H30.0458H30.0436H30.0415H30.0395H30.0375H30.0355H30.0336H30.0317H30.0299H30.0282H30.0265H30.0248H30.0232H30.0217H30.0202H30.0187H30.0173H30.016H30.0147H30.0135H30.0123H30.0112H30.0101H30.0091H30.0081H30.0072H30.0063H30.0055H30.0047H30.0041H30.0034H30.0028H30.0023H30.0018H30.0014H30.001H30.0007H30.0004H30.0002H30.0001H30H29.7878L29.5938 4.08619L24.7412 6.24292L26.2526 4.51565ZM11.7839 6H11.7878L20 9.64987V35H9.99999V32V19C9.99999 18.4477 9.55227 18 8.99999 18C8.4477 18 7.99999 18.4477 7.99999 19V30.6743L3.04533 29.2587L3.58995 20H3.99999C5.65684 20 6.99999 18.6569 6.99999 17V15C6.99999 13.3733 5.70521 12.0489 4.09 12.0013C4.33851 10.6857 5.15652 9.25768 7.20709 7.20711C7.37993 7.03428 7.80768 6.70569 8.27999 6.4105C8.50871 6.26755 8.72087 6.14952 8.88985 6.07107C8.98602 6.02642 9.04147 6.00737 9.06331 6H9.06369H9.06747H9.07129H9.07516H9.07907H9.08302H9.08701H9.09104H9.09512H9.09923H9.10338H9.10757H9.1118H9.11608H9.12039H9.12474H9.12913H9.13356H9.13802H9.14253H9.14707H9.15165H9.15627H9.16093H9.16562H9.17035H9.17512H9.17992H9.18476H9.18964H9.19455H9.1995H9.20449H9.20951H9.21456H9.21965H9.22478H9.22994H9.23514H9.24036H9.24563H9.25092H9.25626H9.26162H9.26702H9.27245H9.27791H9.28341H9.28894H9.2945H9.30009H9.30572H9.31138H9.31706H9.32278H9.32853H9.33432H9.34013H9.34597H9.35184H9.35775H9.36368H9.36964H9.37564H9.38166H9.38771H9.39379H9.3999H9.40603H9.4122H9.41839H9.42461H9.43086H9.43714H9.44344H9.44977H9.45613H9.46251H9.46892H9.47536H9.48182H9.48831H9.49483H9.50137H9.50793H9.51452H9.52113H9.52777H9.53444H9.54113H9.54784H9.55458H9.56134H9.56812H9.57493H9.58175H9.58861H9.59548H9.60238H9.6093H9.61624H9.6232H9.63019H9.6372H9.64422H9.65127H9.65834H9.66543H9.67254H9.67968H9.68683H9.694H9.70119H9.7084H9.71563H9.72288H9.73014H9.73743H9.74473H9.75205H9.7594H9.76675H9.77413H9.78152H9.78893H9.79636H9.8038H9.81126H9.81874H9.82624H9.83374H9.84127H9.84881H9.85637H9.86394H9.87152H9.87913H9.88674H9.89437H9.90202H9.90967H9.91735H9.92503H9.93273H9.94044H9.94817H9.95591H9.96366H9.97142H9.9792H9.98698H9.99478H10.0026H10.0104H10.0182H10.0261H10.0339H10.0418H10.0497H10.0576H10.0655H10.0734H10.0813H10.0892H10.0971H10.1051H10.113H10.121H10.129H10.1369H10.1449H10.1529H10.1609H10.1689H10.1769H10.185H10.193H10.201H10.2091H10.2171H10.2252H10.2332H10.2413H10.2494H10.2574H10.2655H10.2736H10.2817H10.2898H10.2979H10.306H10.3141H10.3222H10.3303H10.3384H10.3465H10.3547H10.3628H10.3709H10.379H10.3872H10.3953H10.4034H10.4116H10.4197H10.4278H10.436H10.4441H10.4523H10.4604H10.4685H10.4767H10.4848H10.4929H10.5011H10.5092H10.5173H10.5255H10.5336H10.5417H10.5499H10.558H10.5661H10.5742H10.5823H10.5905H10.5986H10.6067H10.6148H10.6229H10.631H10.6391H10.6471H10.6552H10.6633H10.6714H10.6794H10.6875H10.6955H10.7036H10.7116H10.7197H10.7277H10.7357H10.7437H10.7517H10.7597H10.7677H10.7757H10.7837H10.7917H10.7996H10.8076H10.8155H10.8235H10.8314H10.8393H10.8472H10.8551H10.863H10.8709H10.8787H10.8866H10.8944H10.9023H10.9101H10.9179H10.9257H10.9335H10.9413H10.949H10.9568H10.9645H10.9723H10.98H10.9877H10.9954H11.003H11.0107H11.0183H11.026H11.0336H11.0412H11.0488H11.0563H11.0639H11.0714H11.079H11.0865H11.094H11.1015H11.1089H11.1164H11.1238H11.1312H11.1386H11.146H11.1533H11.1607H11.168H11.1753H11.1826H11.1899H11.1971H11.2044H11.2116H11.2188H11.2259H11.2331H11.2402H11.2473H11.2544H11.2615H11.2685H11.2756H11.2826H11.2896H11.2965H11.3035H11.3104H11.3173H11.3242H11.331H11.3379H11.3447H11.3515H11.3582H11.365H11.3717H11.3784H11.385H11.3917H11.3983H11.4049H11.4115H11.418H11.4245H11.431H11.4375H11.4439H11.4503H11.4567H11.4631H11.4694H11.4757H11.482H11.4883H11.4945H11.5007H11.5068H11.513H11.5191H11.5252H11.5312H11.5373H11.5432H11.5492H11.5552H11.5611H11.5669H11.5728H11.5786H11.5844H11.5901H11.5959H11.6016H11.6072H11.6128H11.6184H11.624H11.6295H11.635H11.6405H11.6459H11.6513H11.6567H11.662H11.6673H11.6726H11.6778H11.683H11.6882H11.6933H11.6984H11.7035H11.7085H11.7135H11.7185H11.7234H11.7283H11.7331H11.7379H11.7427H11.7474H11.7521H11.7568H11.7614H11.766H11.7705H11.775H11.7795H11.7839ZM3.94289 14L3.7076 18H3.99999C4.55227 18 4.99999 17.5523 4.99999 17V15C4.99999 14.4477 4.55227 14 3.99999 14H3.94289ZM9.99999 37V38H20V37H9.99999ZM22 38H32V37H22V38ZM32 35V32V19C32 18.4477 32.4477 18 33 18C33.5523 18 34 18.4477 34 19V30.6743L38.9547 29.2587L38.41 20H38C36.3431 20 35 18.6569 35 17V15C35 13.3999 36.2527 12.0924 37.8309 12.0047C37.7184 11.6105 37.5438 11.1455 37.2898 10.6282C36.7759 9.58122 35.9653 8.37953 34.7929 7.20711C34.6201 7.03428 34.1923 6.70569 33.72 6.4105C33.4913 6.26755 33.2791 6.14952 33.1101 6.07107C33.014 6.02642 32.9585 6.00737 32.9367 6H32.9363H32.9325H32.9287H32.9248H32.9209H32.917H32.913H32.9089H32.9049H32.9007H32.8966H32.8924H32.8882H32.8839H32.8796H32.8752H32.8708H32.8664H32.862H32.8575H32.8529H32.8483H32.8437H32.839H32.8344H32.8296H32.8249H32.8201H32.8152H32.8103H32.8054H32.8005H32.7955H32.7905H32.7854H32.7803H32.7752H32.77H32.7648H32.7596H32.7543H32.7491H32.7437H32.7384H32.733H32.7275H32.7221H32.7166H32.711H32.7055H32.6999H32.6943H32.6886H32.6829H32.6772H32.6714H32.6657H32.6598H32.654H32.6481H32.6422H32.6363H32.6303H32.6243H32.6183H32.6123H32.6062H32.6001H32.5939H32.5878H32.5816H32.5754H32.5691H32.5628H32.5565H32.5502H32.5438H32.5375H32.5311H32.5246H32.5182H32.5117H32.5052H32.4986H32.492H32.4855H32.4788H32.4722H32.4655H32.4588H32.4521H32.4454H32.4386H32.4319H32.4251H32.4182H32.4114H32.4045H32.3976H32.3907H32.3837H32.3768H32.3698H32.3628H32.3558H32.3487H32.3416H32.3345H32.3274H32.3203H32.3132H32.306H32.2988H32.2916H32.2843H32.2771H32.2698H32.2625H32.2552H32.2479H32.2406H32.2332H32.2258H32.2185H32.211H32.2036H32.1962H32.1887H32.1812H32.1737H32.1662H32.1587H32.1512H32.1436H32.136H32.1285H32.1209H32.1132H32.1056H32.098H32.0903H32.0826H32.0749H32.0672H32.0595H32.0518H32.0441H32.0363H32.0286H32.0208H32.013H32.0052H31.9974H31.9896H31.9817H31.9739H31.966H31.9582H31.9503H31.9424H31.9345H31.9266H31.9187H31.9108H31.9028H31.8949H31.8869H31.879H31.871H31.863H31.855H31.847H31.839H31.831H31.823H31.815H31.807H31.7989H31.7909H31.7829H31.7748H31.7667H31.7587H31.7506H31.7425H31.7345H31.7264H31.7183H31.7102H31.7021H31.694H31.6859H31.6778H31.6697H31.6615H31.6534H31.6453H31.6372H31.6291H31.6209H31.6128H31.6047H31.5965H31.5884H31.5803H31.5721H31.564H31.5559H31.5477H31.5396H31.5314H31.5233H31.5152H31.507H31.4989H31.4908H31.4826H31.4745H31.4664H31.4582H31.4501H31.442H31.4339H31.4258H31.4176H31.4095H31.4014H31.3933H31.3852H31.3771H31.369H31.3609H31.3528H31.3448H31.3367H31.3286H31.3205H31.3125H31.3044H31.2964H31.2883H31.2803H31.2723H31.2643H31.2562H31.2482H31.2402H31.2322H31.2243H31.2163H31.2083H31.2003H31.1924H31.1845H31.1765H31.1686H31.1607H31.1528H31.1449H31.137H31.1291H31.1212H31.1134H31.1055H31.0977H31.0899H31.0821H31.0743H31.0665H31.0587H31.0509H31.0432H31.0354H31.0277H31.02H31.0123H31.0046H30.9969H30.9893H30.9816H30.974H30.9664H30.9588H30.9512H30.9436H30.9361H30.9285H30.921H30.9135H30.906H30.8985H30.8911H30.8836H30.8762H30.8688H30.8614H30.854H30.8466H30.8393H30.832H30.8247H30.8174H30.8101H30.8029H30.7956H30.7884H30.7812H30.774H30.7669H30.7598H30.7526H30.7455H30.7385H30.7314H30.7244H30.7174H30.7104H30.7034H30.6965H30.6896H30.6827H30.6758H30.6689H30.6621H30.6553H30.6485H30.6417H30.635H30.6283H30.6216H30.6149H30.6083H30.6017H30.5951H30.5885H30.582H30.5755H30.569H30.5625H30.5561H30.5496H30.5433H30.5369H30.5306H30.5243H30.518H30.5117H30.5055H30.4993H30.4931H30.487H30.4809H30.4748H30.4687H30.4627H30.4567H30.4508H30.4448H30.4389H30.433H30.4272H30.4214H30.4156H30.4098H30.4041H30.3984H30.3928H30.3871H30.3815H30.376H30.3704H30.3649H30.3595H30.354H30.3486H30.3433H30.3379H30.3326H30.3274H30.3221H30.3169H30.3118H30.3066H30.3015H30.2965H30.2915H30.2865H30.2815H30.2766H30.2717H30.2669H30.2621H30.2573H30.2526H30.2479H30.2432H30.2386H30.234H30.2294H30.2249H30.2205H30.216H30.2122L22 9.64987V35H32ZM38.0571 14H38C37.4477 14 37 14.4477 37 15V17C37 17.5523 37.4477 18 38 18H38.2924L38.0571 14ZM28 16C27.4477 16 27 15.5523 27 15C27 14.4477 27.4477 14 28 14C28.5523 14 29 14.4477 29 15C29 15.5523 28.5523 16 28 16ZM25 15C25 16.6569 26.3431 18 28 18C29.6568 18 31 16.6569 31 15C31 13.3431 29.6568 12 28 12C26.3431 12 25 13.3431 25 15ZM16.8 27.6C17.1314 27.1582 17.0418 26.5314 16.6 26.2C16.1582 25.8686 15.5314 25.9582 15.2 26.4L12.2 30.4C11.8686 30.8418 11.9582 31.4686 12.4 31.8C12.8418 32.1314 13.4686 32.0418 13.8 31.6L16.8 27.6ZM25.4 26.2C24.9582 26.5314 24.8686 27.1582 25.2 27.6L28.2 31.6C28.5314 32.0418 29.1582 32.1314 29.6 31.8C30.0418 31.4686 30.1314 30.8418 29.8 30.4L26.8 26.4C26.4686 25.9582 25.8418 25.8686 25.4 26.2Z" fill="#1D7CE6"/>
</svg>
