<svg width="40" height="40" viewBox="0 0 40 40" fill="none" xmlns="http://www.w3.org/2000/svg">
<path d="M28 39L25 36V18H35.1529C35.6417 18 36.0589 18.3534 36.1393 18.8356L37 24L38.852 36.0382C38.9344 36.5735 38.5755 37.0772 38.0425 37.1741L28 39Z" fill="#1D7CE6" fill-opacity="0.1"/>
<path fill-rule="evenodd" clip-rule="evenodd" d="M5 0C5.55228 0 6 0.447715 6 1V7H21V1C21 0.447715 21.4477 0 22 0C22.5523 0 23 0.447715 23 1V7.64922L26.5617 12.1014C26.8454 12.456 27 12.8966 27 13.3508V17H25V13.3508L21.5194 9H5.48062L2 13.3508V23H11L10.6923 25H2V26H10.5C10.5128 26 10.5256 26.0002 10.5384 26.0007L10.2308 28H2C0.895431 28 0 27.1046 0 26V24V13.3508C0 12.8966 0.154562 12.456 0.438262 12.1014L4 7.64922V1C4 0.447715 4.44772 0 5 0ZM18.7253 17C19.2065 16.2303 19.5 15.3895 19.5 14.5C19.5 13.7098 19.1273 12.8591 18.5651 12.2165C17.9863 11.555 17.1047 11 16 11C14.9121 11 14.0623 11.5402 13.5367 11.9907L13.5 12.0225L13.4633 11.9907C12.9377 11.5402 12.0879 11 11 11C9.85781 11 8.96899 11.5439 8.38806 12.2274C7.82697 12.8875 7.5 13.7369 7.5 14.5C7.5 15.8434 8.16939 17.0757 9.14394 18.1198C9.78263 18.8041 10.5823 19.4416 11.4967 20.0201L11.7215 18.6712C11.7654 18.4073 11.8599 18.1627 11.9938 17.9466C11.4488 17.5594 10.983 17.159 10.6061 16.7552C9.83061 15.9244 9.5 15.1566 9.5 14.5C9.5 14.2631 9.62303 13.8625 9.91194 13.5226C10.181 13.2061 10.5422 13 11 13C11.4121 13 11.8123 13.2098 12.1617 13.5093C12.3285 13.6522 12.4616 13.7972 12.5521 13.9058C12.5968 13.9595 12.6296 14.0024 12.6495 14.0294C12.6594 14.0428 12.666 14.0521 12.6692 14.0566L12.6704 14.0584L13.5 15.3028L14.3296 14.0584L14.3308 14.0566L14.3333 14.0531C14.337 14.0479 14.3427 14.0399 14.3505 14.0294C14.3704 14.0024 14.4032 13.9595 14.4479 13.9058C14.5384 13.7972 14.6715 13.6522 14.8383 13.5093C15.1877 13.2098 15.5879 13 16 13C16.3953 13 16.7637 13.195 17.0599 13.5335C17.3727 13.8909 17.5 14.2902 17.5 14.5C17.5 15.1566 17.1694 15.9243 16.3939 16.7552C16.3176 16.837 16.2376 16.9186 16.1541 17H18.7253ZM12.8743 19.6712C13.0351 18.7068 13.8695 18 14.8471 18H35.1529C36.1306 18 36.9649 18.7068 37.1257 19.6712L37.9856 24.8309L39.4848 33.3262C39.4867 33.337 39.4884 33.3478 39.49 33.3586L39.8527 35.8982C40.0056 36.9683 39.2805 37.9662 38.2155 38.1514L27.6713 39.9852C27.319 40.0465 26.9607 39.9149 26.7318 39.6402L25.0892 37.669L23.8321 39.5547C23.6138 39.8821 23.2238 40.0511 22.8356 39.9864L11.7993 38.147C10.7277 37.9684 9.99457 36.9669 10.1482 35.8914L10.5101 33.3586C10.5107 33.3537 10.5115 33.3489 10.5122 33.3441C10.5132 33.3381 10.5142 33.3322 10.5152 33.3262L12.0144 24.8309L12.8743 19.6712ZM13.839 26L12.6571 32.6973L18.4321 33.7667L25 34.983L37.3429 32.6973L36.161 26H13.839ZM14.1805 24H35.8195L35.1529 20H14.8471L14.1805 24ZM37.6574 34.673L26.8619 36.6722L27.8982 37.9157L37.8729 36.181L37.6574 34.673ZM23.3267 36.7071L18.0679 35.7333L12.3426 34.673L12.1281 36.1742L22.5266 37.9073L23.3267 36.7071ZM25 23C25.5523 23 26 22.5523 26 22C26 21.4477 25.5523 21 25 21C24.4477 21 24 21.4477 24 22C24 22.5523 24.4477 23 25 23Z" fill="#1D7CE6"/>
</svg>
