<svg width="40" height="40" viewBox="0 0 40 40" fill="none" xmlns="http://www.w3.org/2000/svg">
<path d="M9.01022 16.4035L9.90579 7.89532C9.95936 7.38637 10.3885 7 10.9003 7H16C16.5523 7 17 7.44772 17 8V38C17 38.5523 16.5523 39 16 39H11.9151C11.3971 39 10.9649 38.6045 10.919 38.0885L9.00866 16.5967C9.00294 16.5324 9.00346 16.4677 9.01022 16.4035Z" fill="#1D7CE6" fill-opacity="0.1"/>
<path d="M27.0001 17.0858V7.5C27.0001 6.94772 27.4478 6.5 28.0001 6.5H29.0001C29.5523 6.5 30.0001 6.05228 30.0001 5.5V3C30.0001 2.44772 30.4478 2 31.0001 2H38.0001C38.5523 2 39.0001 2.44772 39.0001 3V17.5L38.0001 32V34.5C38.0001 35.0523 37.5523 35.5 37.0001 35.5H31.0001C30.4478 35.5 30.0001 35.0523 30.0001 34.5V32L28.54 19.3461C28.5141 19.122 28.4132 18.9132 28.2537 18.7536L27.293 17.7929C27.1054 17.6054 27.0001 17.351 27.0001 17.0858Z" fill="#1D7CE6" fill-opacity="0.1"/>
<path fill-rule="evenodd" clip-rule="evenodd" d="M23.0001 3H17.0001V4H15.0001V3C15.0001 1.89543 15.8955 1 17.0001 1H23.764C24.3133 0.386251 25.1116 0 26.0001 0H28.0001C28.8886 0 29.6868 0.386251 30.2362 1H38.0001C39.1046 1 40.0001 1.89543 40.0001 3V17V17.0333L39.9978 17.0665L39.0001 32.0333V35C39.0001 36.1046 38.1046 37 37.0001 37H31.0001C29.8955 37 29.0001 36.1046 29.0001 35V32.0711L27.0331 18.3021L27.0001 18.2361L26.9671 18.3021L25.0001 32.0711V35C25.0001 36.1046 24.1046 37 23.0001 37H19.9999V35H23.0001V33H19.9999V31H23.1328L24.9872 18.0192C25.0176 17.8064 25.0821 17.5999 25.1782 17.4076L25.2112 17.3416C25.9483 15.8675 28.0519 15.8675 28.7889 17.3416L28.8219 17.4076C28.918 17.5999 28.9826 17.8064 29.013 18.0192L30.8674 31H37.0645L38.0001 16.9667V14.8289C32.835 13.6732 30.733 9.70226 30.1585 7.08355C29.6129 7.64859 28.8475 8 28.0001 8H26.0001C25.1531 8 24.3881 7.649 23.8426 7.08453C23.4884 8.7102 22.5516 10.8335 20.662 12.5022C20.4717 12.6702 20.2353 12.7527 19.9999 12.7526V10.3441C20.9759 9.24923 21.5338 8.01187 21.8058 7H19.9999V6C19.9999 5.63571 19.9025 5.29417 19.7324 5H22.9884H23.0001V3ZM31.0001 5L34.0001 5H38.0001V3L31.0001 3V5ZM25.0001 3C25.0001 2.44772 25.4478 2 26.0001 2H28.0001C28.5523 2 29.0001 2.44772 29.0001 3V5C29.0001 5.55228 28.5523 6 28.0001 6H26.0001C25.4478 6 25.0001 5.55229 25.0001 5V3ZM38.0001 12.7675V7H34.0001H32.1925C32.7186 8.97148 34.3228 11.7599 38.0001 12.7675ZM31.0001 33V35H37.0001V33H31.0001ZM3.6886 6C2.73509 6 1.91418 6.67312 1.72736 7.60814L0.0414498 16.046C-0.00587131 16.2829 -0.00990279 16.5263 0.0295503 16.7646L2.11736 29.3739L2.12136 29.398L2.12654 29.422L4.0736 38.4229C4.27269 39.3432 5.08677 40 6.02839 40H15.9863C17.0909 40 17.9863 39.1046 17.9863 38V8C17.9863 6.89543 17.0909 6 15.9863 6H3.6886ZM3.6886 8H15.9863V10H3.28899L3.6886 8ZM2.88939 12L2.00269 16.4379L4.0865 29.023L6.02839 38H15.9863V12H2.88939ZM5.00006 14H6.00006H13.0001H14.0001V15V18.5C14.0001 20.9853 11.9853 23 9.50006 23C7.01478 23 5.00006 20.9853 5.00006 18.5V15V14ZM7.00006 16V18.5C7.00006 19.8807 8.11935 21 9.50006 21C10.8808 21 12.0001 19.8807 12.0001 18.5V16H7.00006Z" fill="#1D7CE6"/>
</svg>
