<svg width="40" height="40" viewBox="0 0 40 40" fill="none" xmlns="http://www.w3.org/2000/svg">
<path d="M12 1H20C20.5523 1 21 1.44772 21 2V5V30L30 21L33.2929 17.7071C33.6834 17.3166 34.3166 17.3166 34.7071 17.7071L38.314 21.314C38.6962 21.6962 38.7055 22.3129 38.3351 22.7065L35 26.25L23.2961 38.6854C23.1072 38.8862 22.8437 39 22.5679 39H21H12C11.4477 39 11 38.5523 11 38V12.5V5V2C11 1.44772 11.4477 1 12 1Z" fill="#1D7CE6" fill-opacity="0.1"/>
<path fill-rule="evenodd" clip-rule="evenodd" d="M3.00002 2C3.00002 0.895431 3.89545 0 5.00002 0H20C21.1046 0 22 0.895431 22 2V4V19.9904L25.2741 16.5345L28.5675 13.0581C29.3417 12.2409 30.6376 12.2234 31.4336 13.0194L39.0211 20.6069C39.7855 21.3713 39.8042 22.6047 39.0633 23.3918L35.7282 26.9354L24.0243 39.3707C23.6464 39.7723 23.1194 40 22.5679 40H21H5.86279C4.87142 40 4.02966 39.2738 3.88438 38.2931L0.0486932 12.4022C-0.000992801 12.0668 0.0353957 11.7243 0.154442 11.4069L3.00002 3.81867V2ZM4.69302 5L2.0271 12.1091L5.86279 38H17V37H19V38H20V22.5V5H19V6H17V5H4.69302ZM20 3V2H5.00002V3H20ZM22 38H22.5679L33.6079 26.27L26.0183 18.657L22 22.8985V38ZM27.3943 17.2045L34.9794 24.8129L37.6069 22.0211L30.0194 14.4336L27.3943 17.2045ZM5 9H6H14H15V10V13V15C15 17.7614 12.7614 20 10 20C7.23858 20 5 17.7614 5 15V13V10V9ZM7 11V12H13V11H7ZM13 14H7V15C7 16.6569 8.34315 18 10 18C11.6569 18 13 16.6569 13 15V14ZM17 7V9H19V7H17ZM19 10H17V12H19V10ZM19 13H17V15H19V13ZM17 16V18H19V16H17ZM19 19H17V21H19V19ZM17 22V24H19V22H17ZM17 25V27H19V25H17ZM17 28V30H19V28H17ZM17 31V33H19V31H17ZM17 34V36H19V34H17Z" fill="#1D7CE6"/>
</svg>
