<svg width="18" height="18" viewBox="0 0 18 18" fill="none" xmlns="http://www.w3.org/2000/svg">
<path d="M4 6C4 5.44772 4.44772 5 5 5H10C10.5523 5 11 5.44772 11 6C11 6.55228 10.5523 7 10 7H5C4.44772 7 4 6.55228 4 6Z" fill="#999999"/>
<path d="M5 8C4.44772 8 4 8.44771 4 9C4 9.55229 4.44772 10 5 10H10C10.5523 10 11 9.55229 11 9C11 8.44771 10.5523 8 10 8H5Z" fill="#999999"/>
<path d="M4 12C4 11.4477 4.44772 11 5 11H8C8.55228 11 9 11.4477 9 12C9 12.5523 8.55228 13 8 13H5C4.44772 13 4 12.5523 4 12Z" fill="#999999"/>
<path fill-rule="evenodd" clip-rule="evenodd" d="M3 0C1.34315 0 0 1.34315 0 3V15C0 16.6569 1.34315 18 3 18H15.5C16.8807 18 18 16.8807 18 15.5V7C18 6.44772 17.5523 6 17 6C16.4477 6 16 6.44772 16 7V15.5C16 15.7761 15.7761 16 15.5 16C15.2239 16 15 15.7761 15 15.5V3C15 1.34315 13.6569 0 12 0H3ZM13 16V3C13 2.44772 12.5523 2 12 2H3C2.44772 2 2 2.44772 2 3V15C2 15.5523 2.44772 16 3 16H13Z" fill="#999999"/>
</svg>
