<svg width="40" height="40" viewBox="0 0 40 40" fill="none" xmlns="http://www.w3.org/2000/svg">
<path fill-rule="evenodd" clip-rule="evenodd" d="M39 23V36C39 37.6569 37.6569 39 36 39H29V15H31C35.4183 15 39 18.5817 39 23ZM14 22C12.8954 22 12 22.8954 12 24V31C12 32.1046 12.8954 33 14 33H17.1735C18.2079 33 19.0716 32.2112 19.1653 31.1811L19.8017 24.1811C19.9081 23.0098 18.9859 22 17.8099 22H14Z" fill="#1D7CE6" fill-opacity="0.1"/>
<path fill-rule="evenodd" clip-rule="evenodd" d="M9.4919 4.13875L8.0868 21H15.9132L14.5081 4.13875C14.5059 4.12883 14.5032 4.11676 14.4999 4.10271C14.4862 4.04542 14.4628 3.95679 14.4263 3.84748C14.3524 3.62567 14.231 3.33671 14.0429 3.0547C13.6854 2.51841 13.0949 2 12 2C10.9051 2 10.3146 2.51841 9.95705 3.0547C9.76904 3.33671 9.64762 3.62567 9.57368 3.84748C9.53725 3.95679 9.51379 4.04542 9.50015 4.10271C9.49681 4.11676 9.49407 4.12883 9.4919 4.13875ZM7.50345 3.91695L6.0797 21.002C4.45944 21.0603 3.18742 22.3977 3.18979 24H3.14792C1.4069 24 0.0315014 25.4771 0.155545 27.2137L0.86983 37.2137C0.981967 38.7837 2.28829 40 3.86221 40H20.1377C21.7116 40 23.018 38.7837 23.1301 37.2137L23.8444 27.2137C23.9684 25.4771 22.593 24 20.852 24H20.8101C20.8125 22.3977 19.5405 21.0603 17.9203 21.002L16.4965 3.91695L16.4931 3.87607L16.4864 3.8356L15.5 4C16.4864 3.8356 16.4863 3.83512 16.4862 3.83463L16.4861 3.83358L16.4857 3.83128L16.4847 3.82582L16.4822 3.81158C16.4802 3.80062 16.4775 3.78676 16.4742 3.77019C16.4676 3.73708 16.4582 3.69298 16.4455 3.63947C16.42 3.5327 16.381 3.38696 16.3237 3.21502C16.2101 2.87433 16.019 2.41329 15.7071 1.9453C15.0646 0.981586 13.9051 0 12 0C10.0949 0 8.93543 0.981586 8.29295 1.9453C7.98096 2.41329 7.78988 2.87433 7.67632 3.21502C7.61901 3.38696 7.57996 3.5327 7.55454 3.63947C7.5418 3.69298 7.53239 3.73708 7.52577 3.77019C7.52245 3.78676 7.51983 3.80062 7.51783 3.81158L7.51528 3.82582L7.51434 3.83128L7.51394 3.83358L7.51377 3.83463C7.51369 3.83512 7.51361 3.8356 8.5 4L7.51361 3.8356L7.50686 3.87607L7.50345 3.91695ZM29 9C26.7909 9 25 10.7909 25 13V14.223C21.9763 14.9091 19.5309 17.1176 18.5121 20H19.6621C19.9917 20 20.3014 20.0793 20.5741 20.2193C21.6498 17.7367 24.1221 16 27 16H31C34.866 16 38 19.134 38 23V31H25.3816L25.2639 33H33.6666L33 35V36H36V35L35.3333 33H38V36C38 37.1046 37.1046 38 36 38H24.9698L24.9629 38.1174C24.9007 39.1746 24.0253 40 22.9663 40H36C38.2091 40 40 38.2091 40 36V23C40 18.7168 37.008 15.1325 33 14.223V13C33 10.7909 31.2091 9 29 9ZM31 14L31 13C31 11.8954 30.1046 11 29 11C27.8954 11 27 11.8954 27 13V14H31ZM26 21C25.4477 21 25 21.4477 25 22C25 22.5523 25.4477 23 26 23H32C32.5523 23 33 22.5523 33 22C33 21.4477 32.5523 21 32 21H26ZM3.14792 26C2.56758 26 2.10911 26.4924 2.15046 27.0712L2.86475 37.0712C2.90213 37.5946 3.33757 38 3.86221 38H20.1377C20.6624 38 21.0978 37.5946 21.1352 37.0712L21.8495 27.0712C21.8908 26.4924 21.4324 26 20.852 26H20.6405L20.1612 31.2716C20.0207 32.8168 18.7251 34 17.1735 34H6.8264C5.27479 34 3.97919 32.8168 3.83872 31.2716L3.35948 26H3.14792ZM5.19414 24.0905C5.1409 23.5049 5.602 23 6.19003 23H17.8099C18.3979 23 18.859 23.5049 18.8058 24.0905L18.1694 31.0905C18.1226 31.6056 17.6907 32 17.1735 32H6.8264C6.30919 32 5.87733 31.6056 5.8305 31.0905L5.19414 24.0905ZM12 30C12.5523 30 13 29.5523 13 29C13 28.4477 12.5523 28 12 28C11.4477 28 11 28.4477 11 29C11 29.5523 11.4477 30 12 30Z" fill="#1D7CE6"/>
</svg>
