<svg id="Group_50_copy" data-name="Group 50 copy" xmlns="http://www.w3.org/2000/svg" width="40" height="40.03" viewBox="0 0 40 40.03">
  <defs>
    <style>
      .cls-1, .cls-2 {
        fill: #2077cf;
        fill-rule: evenodd;
      }

      .cls-2 {
        opacity: 0.1;
      }
    </style>
  </defs>
  <path id="Rounded_Rectangle_905" data-name="Rounded Rectangle 905" class="cls-1" d="M866,3196H856a2,2,0,0,1-2-2v-15a2,2,0,0,1,1.027-1.74A1.758,1.758,0,0,1,855,3177v-3a1.978,1.978,0,0,1,1-1.72V3163h0a6.768,6.768,0,0,1,2.591-4.66c2.435-2.2,5.486-3,6.815-1.81a2.109,2.109,0,0,1,.59,1.9v13.85a1.978,1.978,0,0,1,1,1.72v3a1.758,1.758,0,0,1-.027.26A2,2,0,0,1,868,3179v15A2,2,0,0,1,866,3196Zm-2-37.74a0.284,0.284,0,0,0-.1-0.18c-0.457-.39-2.125.39-3.726,1.73s-2.527,2.73-2.07,3.11,2.125-.39,3.726-1.73c1.312-1.09,2.157-2.22,2.172-2.8v-0.13Zm0,3.81c-0.191.2-.379,0.4-0.6,0.59A7.957,7.957,0,0,1,858,3165h0v7h6v-9.93Zm1,11.93h-8v3h8v-3Zm1,5H856v15h2v-12a1,1,0,0,1,2,0v12h6v-15Zm-18,17H831a3,3,0,0,1-3-3v-22a3,3,0,0,1,3-3h3v-2h-1a2,2,0,0,1-2-2v-1a7,7,0,0,1,7-7h3a7,7,0,0,1,7,7v1a2,2,0,0,1-2,2h-1v2h3a3,3,0,0,1,3,3v22A3,3,0,0,1,848,3196Zm-2-32v-1a5,5,0,0,0-5-5h-3a5,5,0,0,0-5,5v1h13Zm-10,2v2h7v-2h-7Zm13,5a1,1,0,0,0-1-1H831a1,1,0,0,0-1,1v22a1,1,0,0,0,1,1h17a1,1,0,0,0,1-1v-22Zm-9.5,15a6.5,6.5,0,1,1,6.5-6.5A6.5,6.5,0,0,1,839.5,3186Zm0-11a4.5,4.5,0,1,0,4.5,4.5A4.5,4.5,0,0,0,839.5,3175Zm-2.5,15h5a1,1,0,0,1,0,2h-5A1,1,0,0,1,837,3190Z" transform="translate(-828 -3155.97)"/>
  <path id="Rounded_Rectangle_908" data-name="Rounded Rectangle 908" class="cls-2" d="M859,3195v-16h8v16h-8Zm0-22h6v5h-6v-5Zm-13-8H835a6,6,0,0,1,6-6h3a5.786,5.786,0,0,1,2,.37V3165Zm-5,12a4,4,0,1,1-4,4A4,4,0,0,1,841,3177Z" transform="translate(-828 -3155.97)"/>
</svg>
