<svg width="20" height="16" viewBox="0 0 20 16" fill="none" xmlns="http://www.w3.org/2000/svg">
<path fill-rule="evenodd" clip-rule="evenodd" d="M0 1C0 0.447715 0.447715 0 1 0H3.6327C4.62801 0 5.47185 0.73186 5.6126 1.71716L5.79587 3H17.057C18.4534 3 19.42 4.39474 18.9297 5.70225L18.1797 7.70225C17.8869 8.48285 17.1407 9 16.307 9H6.3673C5.372 9 4.52815 8.26814 4.3874 7.28284L3.6327 2H1C0.447715 2 0 1.55228 0 1ZM6.08158 5L6.3673 7L16.307 7L17.057 5H6.08158ZM8 12C7.44772 12 7 12.4477 7 13C7 13.5523 7.44772 14 8 14C8.55228 14 9 13.5523 9 13C9 12.4477 8.55228 12 8 12ZM5 13C5 11.3431 6.34315 10 8 10C9.65685 10 11 11.3431 11 13C11 14.6569 9.65685 16 8 16C6.34315 16 5 14.6569 5 13ZM14 13C14 12.4477 14.4477 12 15 12C15.5523 12 16 12.4477 16 13C16 13.5523 15.5523 14 15 14C14.4477 14 14 13.5523 14 13ZM15 10C13.3431 10 12 11.3431 12 13C12 14.6569 13.3431 16 15 16C16.6569 16 18 14.6569 18 13C18 11.3431 16.6569 10 15 10Z" fill="#999999"/>
</svg>
