<svg width="40" height="40" viewBox="0 0 40 40" fill="none" xmlns="http://www.w3.org/2000/svg">
<path opacity="0.1" fill-rule="evenodd" clip-rule="evenodd" d="M17 12H20L21 11V4L20 3L19 2L16 1L15 2L13 3L12 4H11L9 3L8 2L7 1H4L3 2L2 3L1 4V10L2 11L5 12L7 13H16L17 12ZM11 18L9 28H13L11 18ZM22.2381 18H33.7619L39 36.9C39 36.9 34.8095 39 28 39C21.1905 39 17 36.9 17 36.9L22.2381 18Z" fill="#307FDD"/>
<path fill-rule="evenodd" clip-rule="evenodd" d="M21.0001 16C21.0001 14.8954 21.8956 14 23.0001 14H33.0001C34.1047 14 35.0001 14.8954 35.0001 16V18C35.0001 18.1456 34.969 18.284 34.913 18.4088L39.9638 36.6329C40.0914 37.0934 39.8754 37.5799 39.4481 37.794L39.0001 36.9C39.4481 37.794 39.4478 37.7942 39.4475 37.7943L39.4468 37.7947L39.4451 37.7955L39.4405 37.7978L39.4267 37.8046L39.4066 37.8143L39.3807 37.8267C39.342 37.8451 39.2871 37.8707 39.2164 37.9025C39.075 37.966 38.8705 38.054 38.6058 38.1584C38.0766 38.3671 37.3065 38.6411 36.3202 38.9138C34.3479 39.4592 31.5078 40 28.0001 40C24.4925 40 21.6524 39.4592 19.6801 38.9138C18.6938 38.6411 17.9236 38.3671 17.3944 38.1584C17.1298 38.054 16.9252 37.966 16.7839 37.9025C16.7132 37.8707 16.6583 37.8451 16.6195 37.8267C16.6001 37.8175 16.5848 37.8101 16.5735 37.8046L16.5597 37.7978L16.5551 37.7955L16.5534 37.7947L16.5527 37.7943C16.5524 37.7942 16.5521 37.794 17.0001 36.9L16.5521 37.794C16.1249 37.5799 15.9088 37.0934 16.0364 36.6329L21.0872 18.4088C21.0313 18.284 21.0001 18.1456 21.0001 18V16ZM23.0001 17H33.0001V16H23.0001V17ZM22.9988 19L18.1972 36.3249C18.6653 36.507 19.3442 36.746 20.213 36.9862C22.0383 37.4908 24.6982 38 28.0001 38C31.302 38 33.9619 37.4908 35.7872 36.9862C36.656 36.746 37.3349 36.507 37.803 36.3249L33.0015 19H31.0199L32.9807 28.8039C33.089 29.3454 32.7378 29.8723 32.1962 29.9806C31.6547 30.0889 31.1279 29.7377 31.0195 29.1961L29.0195 19.1961C29.0064 19.1303 29 19.0647 28.9999 19H27.0003C27.0002 19.0647 26.9939 19.1303 26.9807 19.1961L24.9807 29.1961C24.8724 29.7377 24.3456 30.0889 23.804 29.9806C23.2624 29.8723 22.9112 29.3454 23.0195 28.8039L24.9803 19H22.9988Z" fill="#307FDD"/>
<path fill-rule="evenodd" clip-rule="evenodd" d="M20 13H18C17.7297 12.9942 17.4638 12.9308 17.22 12.814L17.16 13.155L19.0887 18.1471L18.2008 21.3508L15.73 14.966L15 14H7L6.32996 14.943L2.24002 25.534L3.30005 26C4.83939 26.416 6.41193 26.6974 8 26.841C8 26.841 7.99 26.831 8 26.827L9.98999 17.788C10.0295 17.588 10.1293 17.4049 10.2759 17.2631C10.4224 17.1214 10.6088 17.0278 10.8101 16.995H10.83C10.9433 16.9977 11.0567 16.9977 11.17 16.995H11.1899C11.3912 17.0278 11.5776 17.1214 11.7241 17.2631C11.8707 17.4049 11.9705 17.588 12.01 17.788L14 26.827C14.0066 26.827 14.0045 26.8309 14.0023 26.835C14.0012 26.8371 14 26.841 14 26.841C14.9364 26.7563 15.8673 26.6237 16.7893 26.4439L16.2115 28.5289C10.7975 29.5159 5.17 28.952 0 26.837V26H0.0200195C0.0137372 25.8387 0.0481015 25.6785 0.119995 25.534L4.84998 13.266L4.78003 12.819C4.53544 12.9329 4.26976 12.9946 4 13H2C1.46957 13 0.960888 12.7893 0.585815 12.4142C0.210743 12.0391 0 11.5304 0 11V6C0 4.4087 0.632106 2.88257 1.75732 1.75735C2.88254 0.632136 4.4087 0 6 0H16C17.5913 0 19.1175 0.632136 20.2427 1.75735C21.3679 2.88257 22 4.4087 22 6V11C22 11.2626 21.9483 11.5227 21.8478 11.7654C21.7473 12.008 21.5999 12.2285 21.4142 12.4142C21.2285 12.5999 21.008 12.7472 20.7654 12.8477C20.5227 12.9483 20.2626 13 20 13ZM11.6071 26.9826L11.6073 26.9826C11.7245 26.9774 11.8415 26.9723 11.96 26.969L11 22.624L10.04 26.969C10.1584 26.9723 10.2754 26.9774 10.3926 26.9825L10.3927 26.9826L10.3929 26.9826C10.5923 26.9913 10.7922 27 11 27C11.2078 27 11.4077 26.9913 11.6071 26.9826ZM8.78003 2C9.33628 2.62878 10.1605 3.00009 11 3.00009C11.8395 3.00009 12.6637 2.62878 13.22 2H8.78003ZM20 6C20 4.93913 19.5785 3.92172 18.8284 3.17157C18.0782 2.42142 17.0609 2 16 2H15.58C14.7916 3.80002 12.9651 4.99411 11 4.99411C9.0349 4.99411 7.20839 3.80002 6.42004 2H6C4.93913 2 3.92178 2.42142 3.17163 3.17157C2.42149 3.92172 2 4.93913 2 6V11H4L3.98999 8.164C3.89504 7.63172 4.27109 7.09188 4.81006 7.00201C5.3535 6.90906 5.88566 7.28482 5.97998 7.828L6.69995 12.061C6.79525 12.0221 6.89706 12.0014 7 12H15.3101L16.02 7.828C16.1143 7.28482 16.6465 6.90906 17.1899 7.00201C17.7289 7.09188 18.105 7.63172 18.01 8.164L18 11H20V6Z" fill="#307FDD"/>
</svg>
