<svg id="Group_38_copy" data-name="Group 38 copy" xmlns="http://www.w3.org/2000/svg" width="40" height="40" viewBox="0 0 40 40">
  <defs>
    <style>
      .cls-1, .cls-2 {
        fill: #2077cf;
        fill-rule: evenodd;
      }

      .cls-2 {
        opacity: 0.1;
      }
    </style>
  </defs>
  <path id="Rounded_Rectangle_885_copy_3" data-name="Rounded Rectangle 885 copy 3" class="cls-1" d="M785,2788H755a5,5,0,0,1-5-5v-8a3,3,0,0,1,3-3h34a3,3,0,0,1,3,3v8A5,5,0,0,1,785,2788Zm3-13a1,1,0,0,0-1-1H753a1,1,0,0,0-1,1v8a3,3,0,0,0,3,3h30a3,3,0,0,0,3-3v-8Zm-2,2H754a1,1,0,0,1,0-2h32A1,1,0,0,1,786,2777Zm-18,6h4a1,1,0,0,1,0,2h-4A1,1,0,0,1,768,2783Zm-8,8h20a5,5,0,0,1,5,5v11a5,5,0,0,1-5,5H760a5,5,0,0,1-5-5v-11A5,5,0,0,1,760,2791Zm20,2H760a3,3,0,0,0-3,3v2.96a17.271,17.271,0,0,0,4.686-.96h-0.032A19.251,19.251,0,0,1,772,2795h10.816A2.994,2.994,0,0,0,780,2793Zm-20,17h20a3,3,0,0,0,3-3v-2.96a17.271,17.271,0,0,0-4.686.96h0.032A19.251,19.251,0,0,1,768,2808H757.184A2.994,2.994,0,0,0,760,2810Zm0-4h8a16.757,16.757,0,0,0,5.686-1h-0.032a19.289,19.289,0,0,1,9.346-2.96V2797H772a16.757,16.757,0,0,0-5.686,1h0.032a19.289,19.289,0,0,1-9.346,2.96V2806h3Z" transform="translate(-750 -2772)"/>
  <path class="cls-2" d="M786,2787H754a3,3,0,0,1-3-3v-4h38v4A3,3,0,0,1,786,2787Zm-21,17c2.354,0,7.782-5,11-5h8v9l-2,3H758l-1-2-1-3v-2h9Z" transform="translate(-750 -2772)"/>
</svg>
