<svg width="61" height="68" viewBox="0 0 61 68" fill="none" xmlns="http://www.w3.org/2000/svg">
<path fill-rule="evenodd" clip-rule="evenodd" d="M35.676 0.919962C34.6635 0.917356 33.6549 1.04645 32.6757 1.304C31.7006 1.04641 30.696 0.917307 29.6874 0.919962C23.9268 0.919962 19.2344 5.07237 19.2344 10.1609H20.6625C20.6625 5.85245 24.7069 2.3481 29.6874 2.3481H30.0834C28.6496 3.09476 27.4423 4.21237 26.5874 5.58442C25.7325 6.95648 25.2613 8.53274 25.223 10.1489H26.6391C26.7229 8.44131 27.3504 6.80524 28.4299 5.47957C29.5094 4.1539 30.9845 3.20806 32.6397 2.78015C34.2949 3.20806 35.77 4.1539 36.8495 5.47957C37.929 6.80524 38.5565 8.44131 38.6403 10.1489H40.0564C40.0205 8.54266 39.5581 6.97488 38.7166 5.60623C37.8752 4.23757 36.685 3.11726 35.268 2.3601H35.664C40.6445 2.3601 44.6889 5.86445 44.6889 10.1729H46.117C46.129 5.07237 41.4366 0.919962 35.676 0.919962Z" fill="#999999"/>
<path fill-rule="evenodd" clip-rule="evenodd" d="M0.460938 67.5876L5.21341 11.8301H57.3226L60.0468 43.8252L0.460938 67.5876Z" fill="#999999"/>
<path fill-rule="evenodd" clip-rule="evenodd" d="M40.7609 28.498L39.5488 51.6603L56.3985 67.5859H0.460938L40.7609 28.498Z" fill="#656565"/>
</svg>
