<svg width="18" height="18" viewBox="0 0 18 18" fill="none" xmlns="http://www.w3.org/2000/svg">
<path d="M4 9C4 8.44771 4.44772 8 5 8H8C8.55228 8 9 8.44771 9 9C9 9.55229 8.55228 10 8 10H5C4.44772 10 4 9.55229 4 9Z" fill="#999999"/>
<path d="M5 11C4.44772 11 4 11.4477 4 12C4 12.5523 4.44772 13 5 13H8C8.55228 13 9 12.5523 9 12C9 11.4477 8.55228 11 8 11H5Z" fill="#999999"/>
<path fill-rule="evenodd" clip-rule="evenodd" d="M12 0H15C16.6569 0 18 1.34315 18 3V15C18 16.6569 16.6569 18 15 18H2C0.89543 18 0 17.1046 0 16V6C0 4.89543 0.895431 4 2 4H11V1C11 0.447715 11.4477 0 12 0ZM16 3C16 2.44772 15.5523 2 15 2H13V12H15C15.3506 12 15.6872 12.0602 16 12.1707V3ZM11 13C11 13.5523 11.4477 14 12 14H15C15.5523 14 16 14.4477 16 15C16 15.5523 15.5523 16 15 16H2V6H11V13Z" fill="#999999"/>
</svg>
