<svg width="18" height="18" viewBox="0 0 18 18" fill="none" xmlns="http://www.w3.org/2000/svg">
<path fill-rule="evenodd" clip-rule="evenodd" d="M10.3726 0.568791C9.60198 -0.158347 8.39802 -0.158347 7.62741 0.568791L0.313705 7.46993C0.113483 7.65886 0 7.92197 0 8.19725V17C0 17.5523 0.447715 18 1 18H6C6.55228 18 7 17.5523 7 17C7 17 7 17 7 16.9999V11.9999C7 10.8954 7.89543 9.99993 9 9.99993C10.1046 9.99993 11 10.8954 11 11.9999V16.9999C11 17 11 17 11 17C11 17.5523 11.4477 18 12 18H17C17.5523 18 18 17.5523 18 17V8.19725C18 7.92197 17.8865 7.65886 17.6863 7.46993L10.3726 0.568791ZM13 16H16V8.62857L9 2.02344L2 8.62857V16H5V11.9999C5 9.79079 6.79086 7.99993 9 7.99993C11.2091 7.99993 13 9.79079 13 11.9999V16Z" fill="#999999"/>
</svg>
