<svg width="18" height="18" viewBox="0 0 18 18" fill="none" xmlns="http://www.w3.org/2000/svg">
<path fill-rule="evenodd" clip-rule="evenodd" d="M0 4C0 1.79086 1.79086 0 4 0H14C16.2091 0 18 1.79086 18 4V14C18 16.2091 16.2091 18 14 18H4C1.79086 18 0 16.2091 0 14V4ZM4 2C2.89543 2 2 2.89543 2 4H5V2H4ZM7 2V4H16C16 2.89543 15.1046 2 14 2H7ZM5 6H2V8H5V6ZM2 12V10H5V12H2ZM2 14C2 15.1046 2.89543 16 4 16H5V14H2ZM7 14V16H14C15.1046 16 16 15.1046 16 14H7ZM16 12V10H7V12H16ZM16 6V8H7V6H16Z" fill="#999999"/>
</svg>
