<svg width="18" height="18" viewBox="0 0 18 18" fill="none" xmlns="http://www.w3.org/2000/svg">
<path fill-rule="evenodd" clip-rule="evenodd" d="M0 2C0 0.895431 0.895431 0 2 0C3.10457 0 4 0.895431 4 2C4 3.10457 3.10457 4 2 4C0.895431 4 0 3.10457 0 2ZM0 9C0 7.89543 0.895431 7 2 7C3.10457 7 4 7.89543 4 9C4 10.1046 3.10457 11 2 11C0.895431 11 0 10.1046 0 9ZM2 14C0.895431 14 0 14.8954 0 16C0 17.1046 0.895431 18 2 18C3.10457 18 4 17.1046 4 16C4 14.8954 3.10457 14 2 14ZM7 2C7 0.895431 7.89543 0 9 0C10.1046 0 11 0.895431 11 2C11 3.10457 10.1046 4 9 4C7.89543 4 7 3.10457 7 2ZM9 7C7.89543 7 7 7.89543 7 9C7 10.1046 7.89543 11 9 11C10.1046 11 11 10.1046 11 9C11 7.89543 10.1046 7 9 7ZM7 16C7 14.8954 7.89543 14 9 14C10.1046 14 11 14.8954 11 16C11 17.1046 10.1046 18 9 18C7.89543 18 7 17.1046 7 16ZM16 0C14.8954 0 14 0.895431 14 2C14 3.10457 14.8954 4 16 4C17.1046 4 18 3.10457 18 2C18 0.895431 17.1046 0 16 0ZM14 9C14 7.89543 14.8954 7 16 7C17.1046 7 18 7.89543 18 9C18 10.1046 17.1046 11 16 11C14.8954 11 14 10.1046 14 9ZM16 14C14.8954 14 14 14.8954 14 16C14 17.1046 14.8954 18 16 18C17.1046 18 18 17.1046 18 16C18 14.8954 17.1046 14 16 14Z" fill="#999999"/>
</svg>
