<svg xmlns="http://www.w3.org/2000/svg" width="40" height="40" viewBox="0 0 40 40">
  <defs>
    <style>
      .cls-1 {
        fill: #1d7ce6;
        fill-rule: evenodd;
      }
    </style>
  </defs>
  <path id="Ellipse_310_copy_2" data-name="Ellipse 310 copy 2" class="cls-1" d="M659.815,372.6a19.912,19.912,0,0,1,0,26.8l4.863,4.862a1,1,0,1,1-1.415,1.414l-4.862-4.862a19.912,19.912,0,0,1-26.8,0l-4.862,4.862a1,1,0,1,1-1.414-1.414l4.862-4.862a19.915,19.915,0,0,1,0-26.8l-4.862-4.862a1,1,0,0,1,1.414-1.414l4.863,4.862a19.91,19.91,0,0,1,26.8,0l4.862-4.862a1,1,0,0,1,1.415,1.414ZM645,368a18,18,0,1,0,18,18A18,18,0,0,0,645,368Zm0,31a13,13,0,1,1,13-13A13,13,0,0,1,645,399Zm0-24a11,11,0,1,0,11,11A11,11,0,0,0,645,375Zm0,17a6,6,0,1,1,6-6A6,6,0,0,1,645,392Zm0-10a4,4,0,1,0,4,4A4,4,0,0,0,645,382Z" transform="translate(-625 -366)"/>
</svg>
