<svg width="18" height="18" viewBox="0 0 18 18" fill="none" xmlns="http://www.w3.org/2000/svg">
<path d="M4 0C3.44772 0 3 0.447715 3 1C3 1.55228 3.44772 2 4 2H5.58579L0.292893 7.29289C-0.0976311 7.68342 -0.0976311 8.31658 0.292893 8.70711C0.683417 9.09763 1.31658 9.09763 1.70711 8.70711L8.70711 1.70711C8.9931 1.42111 9.07866 0.990991 8.92388 0.617317C8.7691 0.243642 8.40446 0 8 0H4Z" fill="#999999"/>
<path fill-rule="evenodd" clip-rule="evenodd" d="M13.5 0C12.6716 0 12 0.671573 12 1.5V4H9.5C8.67157 4 8 4.67157 8 5.5V8H5.5C4.67157 8 4 8.67157 4 9.5V12H1.5C0.671573 12 1.49012e-08 12.6716 1.49012e-08 13.5V16.5C1.49012e-08 17.3284 0.671573 18 1.5 18H16.5C17.3284 18 18 17.3284 18 16.5V1.5C18 0.671573 17.3284 0 16.5 0H13.5ZM14 4.5V2H16V16H2V14H4.5C5.32843 14 6 13.3284 6 12.5V10H8.5C9.32843 10 10 9.32843 10 8.5V6H12.5C13.3284 6 14 5.32843 14 4.5Z" fill="#999999"/>
</svg>
