<svg width="18" height="18" viewBox="0 0 18 18" fill="none" xmlns="http://www.w3.org/2000/svg">
<path fill-rule="evenodd" clip-rule="evenodd" d="M3 0C1.34315 0 0 1.34315 0 3V15C0 16.6569 1.34315 18 3 18H9C10.6569 18 12 16.6569 12 15V3C12 1.34315 10.6569 0 9 0H3ZM2 3C2 2.44772 2.44772 2 3 2H9C9.55229 2 10 2.44772 10 3V15C10 15.5523 9.55228 16 9 16H3C2.44772 16 2 15.5523 2 15V3Z" fill="#999999"/>
<path d="M17 2C17.5523 2 18 1.55228 18 1C18 0.447715 17.5523 0 17 0H15C14.4477 0 14 0.447715 14 1C14 1.55228 14.4477 2 15 2H17Z" fill="#999999"/>
<path d="M18 5C18 5.55228 17.5523 6 17 6H15C14.4477 6 14 5.55228 14 5C14 4.44772 14.4477 4 15 4H17C17.5523 4 18 4.44772 18 5Z" fill="#999999"/>
<path d="M17 10C17.5523 10 18 9.55229 18 9C18 8.44771 17.5523 8 17 8H15C14.4477 8 14 8.44771 14 9C14 9.55229 14.4477 10 15 10H17Z" fill="#999999"/>
<path d="M18 13C18 13.5523 17.5523 14 17 14H15C14.4477 14 14 13.5523 14 13C14 12.4477 14.4477 12 15 12H17C17.5523 12 18 12.4477 18 13Z" fill="#999999"/>
<path d="M17 18C17.5523 18 18 17.5523 18 17C18 16.4477 17.5523 16 17 16H15C14.4477 16 14 16.4477 14 17C14 17.5523 14.4477 18 15 18H17Z" fill="#999999"/>
</svg>
