<?xml version="1.0" encoding="UTF-8"?>
<svg width="78px" height="78px" viewBox="0 0 78 78" version="1.1" xmlns="http://www.w3.org/2000/svg" xmlns:xlink="http://www.w3.org/1999/xlink">
    <!-- Generator: Sketch 53.1 (72631) - https://sketchapp.com -->
    <title>Group 8</title>
    <desc>Created with Sketch.</desc>
    <g id="Page-1" stroke="none" stroke-width="1" fill="none" fill-rule="evenodd">
        <g id="Group-8" transform="translate(0.630200, 0.328600)">
            <path d="M65.583,0 C71.825,0 76.886,5.061 76.886,11.303 L76.886,65.583 C76.886,71.825 71.825,76.886 65.583,76.886 L11.303,76.886 C5.06,76.886 0,71.825 0,65.583 L0,11.303 C0,5.061 5.06,0 11.303,0 L65.583,0 Z" id="Fill-751" fill="transparent"></path>
            <path d="M38.0535,16.6924 C38.1435,16.6924 38.2305,16.7014 38.3195,16.7044 C36.3305,17.8234 35.0065,19.7894 35.0065,22.0244 L35.9765,22.0244 C35.9765,19.7044 37.6995,17.7304 40.0925,17.0004 C42.4865,17.7304 44.2085,19.7044 44.2085,22.0244 L45.1785,22.0244 C45.1785,19.7894 43.8555,17.8234 41.8655,16.7044 C41.9545,16.7014 42.0415,16.6924 42.1315,16.6924 C45.5255,16.6924 48.2865,19.0854 48.2865,22.0244 L49.2575,22.0244 C49.2575,18.5494 46.0605,15.7224 42.1315,15.7224 C41.4235,15.7224 40.7395,15.8154 40.0925,15.9874 C39.4465,15.8154 38.7615,15.7224 38.0535,15.7224 C34.1245,15.7224 30.9285,18.5494 30.9285,22.0244 L31.8985,22.0244 C31.8985,19.0854 34.6595,16.6924 38.0535,16.6924" id="Fill-1119" fill="#FFFFFF"></path>
            <path d="M45.2215,37.1709 L44.5295,50.4019 L54.1885,59.5279 L22.1715,59.5279 L45.2215,37.1709 Z M46.3805,49.8999 L58.7515,44.9669 L56.8945,23.1609 L21.3705,23.1609 L18.1345,61.1639 L58.3015,61.1639 L46.3805,49.8999 Z" id="Fill-1120" fill="#FFFFFF"></path>
        </g>
    </g>
</svg>