<svg width="18" height="18" viewBox="0 0 18 18" fill="none" xmlns="http://www.w3.org/2000/svg">
<path fill-rule="evenodd" clip-rule="evenodd" d="M7 0C5.34315 0 4 1.34315 4 3V4H3C1.34315 4 0 5.34315 0 7V15C0 16.6569 1.34315 18 3 18H15C16.6569 18 18 16.6569 18 15V7C18 5.34315 16.6569 4 15 4H14V3C14 1.34315 12.6569 0 11 0H7ZM12 4V3C12 2.44772 11.5523 2 11 2H7C6.44772 2 6 2.44772 6 3V4H12ZM2 15V11.605L5 11.905V12C5 13.1046 5.89543 14 7 14H11C12.1046 14 13 13.1046 13 12V11.905L16 11.605V15C16 15.5523 15.5523 16 15 16H3C2.44772 16 2 15.5523 2 15ZM7 12H11V11.011C10.9999 11.0029 10.9999 10.9947 11 10.9866V10H7V12ZM2 9.59501L5.00269 9.89528C5.05716 8.83939 5.93056 8 7 8H11C12.0694 8 12.9428 8.83939 12.9973 9.89528L16 9.59501V7C16 6.44772 15.5523 6 15 6H3C2.44772 6 2 6.44772 2 7V9.59501Z" fill="#999999"/>
</svg>
