<svg xmlns="http://www.w3.org/2000/svg" width="40" height="40" viewBox="0 0 40 40">
  <defs>
    <style>
      .cls-1 {
        fill: #1d7ce6;
        fill-rule: evenodd;
      }
    </style>
  </defs>
  <path id="Ellipse_311_copy_7" data-name="Ellipse 311 copy 7" class="cls-1" d="M665,457l-1,5a4,4,0,0,1-4,4h-0.187a15.971,15.971,0,0,1-29.626,0H630a4,4,0,0,1-4-4l-1-5a4,4,0,0,1,4-4v-5a12,12,0,0,1,12-12h8a12,12,0,0,1,12,12v1h0v2h0v2A4,4,0,0,1,665,457Zm-36-1.95a2.5,2.5,0,0,0-2,2.45l1,4a2.48,2.48,0,0,0,1.472,2.264,15.822,15.822,0,0,1-.334-1.764h2.021a13.982,13.982,0,0,0,27.682,0h2.021a15.978,15.978,0,0,1-.337,1.775A2.5,2.5,0,0,0,662,461.5l1-4a2.5,2.5,0,0,0-2-2.45V457h-3a6,6,0,0,1-12,0h-2a6,6,0,0,1-12,0h-3v-1.95ZM656,457a4,4,0,1,0-4,4A4,4,0,0,0,656,457Zm-14,0a4,4,0,1,0-4,4A4,4,0,0,0,642,457Zm9-18.8a10.057,10.057,0,0,0-2-.2h-8a10,10,0,0,0-9.95,9H643a8,8,0,0,0,8-8v-0.8Zm8,9.8a10,10,0,0,0-6-9.162V441a8,8,0,0,0,6,7.738V448Zm0,4v-1.2a10.009,10.009,0,0,1-7.469-6.6A9.985,9.985,0,0,1,643,449H631v6h1.349a5.992,5.992,0,0,1,11.3,0h2.7a5.992,5.992,0,0,1,11.3,0H659v-3Zm-22,5a1,1,0,0,1-2,0,3,3,0,0,1,3-3,1,1,0,1,1,0,2A1,1,0,0,0,637,457Zm14,0a1,1,0,0,1-2,0,3,3,0,0,1,3-3,1,1,0,1,1,0,2A1,1,0,0,0,651,457Zm-10,9h8a1,1,0,0,1,0,2h-8A1,1,0,0,1,641,466Z" transform="translate(-625 -436)"/>
</svg>
