<svg width="40" height="40" viewBox="0 0 40 40" fill="none" xmlns="http://www.w3.org/2000/svg">
<path opacity="0.1" fill-rule="evenodd" clip-rule="evenodd" d="M8 2L10 1L12 2V12H27V2L29 1L31 2V16L35 32.5L34.5 36.5L30.5 38.5L20 39L7 37.5L5 35L8 17.5V2ZM17.5 21.5L19.5 19H21L22.5 21L25 21.5L26 23.5L25 26L26 28.5L24.5 30.5H22L21 33L19 32.5L17.5 30.5H15L13.5 28L15.5 26L14 23.5L15 21.5H17.5Z" fill="#307FDD"/>
<path fill-rule="evenodd" clip-rule="evenodd" d="M9 3.03068C9 2.45159 9.46656 2 9.99986 2C10.5335 2 11 2.45168 11 3.03068V14.9693C11 15.5483 10.5335 16 9.99986 16C9.46656 16 9 15.5484 9 14.9693V3.03068ZM9.99986 0C8.65864 0 7.53331 0.891135 7.14502 2.10154L4.09209 2.86752C1.48188 3.52255 -0.312484 5.98623 0.044804 8.70351L0.541038 12.4747C0.970893 15.7426 4.23748 17.7501 7.34675 16.9393L7.46364 16.9089L4.09604 33.2343C3.56469 35.8108 5.29158 38.312 7.95392 38.835C10.9263 39.4191 15.1116 40 20 40C24.8886 40 29.0739 39.4191 32.0463 38.835C34.7083 38.312 36.4355 35.8108 35.9039 33.2343L32.5143 16.8023L32.7477 16.8418C35.7226 17.5631 39.0199 15.8138 39.4591 12.4745L39.9554 8.70332C40.3127 5.98594 38.5181 3.52248 35.9077 2.8675L32.855 2.10158C32.4666 0.891069 31.341 0 29.9999 0C29.1147 0 28.3235 0.38817 27.7762 1.00011C26.5577 0.992925 25.3702 1.36677 24.3839 2.05784C23.8592 2.42548 23.3915 2.88289 23.0063 3.42047C22.3774 4.2984 21.4388 5 19.9999 5C18.5613 5 17.6228 4.29844 16.9933 3.42021C15.8842 1.87227 14.0903 0.989141 12.2238 1.0001C11.6764 0.388159 10.8852 0 9.99986 0ZM30.702 17.9163C30.477 17.971 30.2419 18 29.9999 18C28.3333 18 27 16.624 27 14.9693V11H13V14.9693C13 16.6241 11.6666 18 9.99986 18C9.75783 18 9.52284 17.971 9.29794 17.9163L6.05482 33.6382L6.0548 33.6383C5.76084 35.0641 6.70526 36.5515 8.3394 36.8725L8.33961 36.8725C11.213 37.4372 15.2668 38 20 38C24.7334 38 28.7873 37.4372 31.6606 36.8725L31.6608 36.8725C33.2948 36.5515 34.2393 35.0639 33.9451 33.6385L33.9451 33.6383L30.702 17.9163ZM13 9.00002H27V3.07198C26.0592 3.25627 25.2037 3.78753 24.6321 4.58526C23.7232 5.85396 22.232 7 19.9999 7C17.7678 7 16.2769 5.85396 15.3677 4.58526C14.7962 3.78758 13.9407 3.25633 13 3.07201V9.00002ZM7 4.19991V14.9629L6.84204 15.0041C4.82302 15.5306 2.78711 14.2148 2.52394 12.2137L2.02771 8.44259C1.80969 6.78446 2.90195 5.2282 4.57889 4.80737L7 4.19991ZM33.1581 14.8828L33 14.8561V4.19995L35.4209 4.80737C37.0982 5.2282 38.1905 6.78446 37.9724 8.44259L37.4762 12.2137C37.213 14.2148 35.1771 15.4091 33.1581 14.8828ZM29 3.03068C29 2.45159 29.4666 2 29.9999 2C30.5333 2 31 2.45177 31 3.03068V14.9693C31 15.5482 30.5333 16 29.9999 16C29.4666 16 29 15.5484 29 14.9693V3.03068ZM20.6648 22.6581C21.3151 21.4512 21.1795 20.8003 21.0231 20.5187C20.8551 20.2162 20.4802 20 19.9998 20C19.5193 20 19.1444 20.2162 18.9765 20.5187C18.8201 20.8003 18.6844 21.4512 19.3348 22.6581C19.4023 22.7834 19.4403 22.9167 19.4513 23.05C19.6291 23.0172 19.8125 23 19.9998 23C20.1872 23 20.3705 23.0172 20.5483 23.05C20.5592 22.9167 20.5973 22.7834 20.6648 22.6581ZM22.1618 23.92C22.4631 24.233 22.697 24.6112 22.8402 25.0314C22.9202 25.0108 23.0041 24.9999 23.0905 24.9999C24.3413 24.9999 24.7485 24.5762 24.8857 24.3138C25.0569 23.9861 25.0458 23.4713 24.778 22.9744C24.5059 22.4695 24.1261 22.2596 23.8602 22.2559C23.6461 22.2529 23.0832 22.3862 22.4254 23.6068C22.3578 23.7323 22.2673 23.8374 22.1618 23.92ZM22.8402 26.9683C22.697 27.3885 22.4631 27.7668 22.1619 28.0798C22.2673 28.1623 22.3579 28.2675 22.4254 28.393C23.0832 29.6136 23.6461 29.747 23.8603 29.744C24.126 29.7403 24.5059 29.5304 24.7779 29.0255C25.0458 28.5286 25.057 28.0137 24.8857 27.686C24.7485 27.4236 24.3413 26.9999 23.0905 26.9999C23.004 26.9999 22.9202 26.9889 22.8402 26.9683ZM20.5483 28.95C20.3705 28.9828 20.1872 29 19.9998 29C19.8125 29 19.6291 28.9828 19.4513 28.95C19.4403 29.0832 19.4022 29.2164 19.3348 29.3417L19.3348 29.3417C18.6844 30.5486 18.82 31.1996 18.9765 31.4813C19.1445 31.7838 19.5194 32 19.9998 32C20.4802 32 20.8551 31.7838 21.0231 31.4813C21.1795 31.1996 21.3151 30.5486 20.6648 29.3417C20.5973 29.2164 20.5593 29.0832 20.5483 28.95ZM17.8379 28.0797C17.5367 27.7667 17.3029 27.3884 17.1597 26.9683C17.0797 26.9889 16.9958 26.9999 16.9094 26.9999C15.6585 26.9999 15.2513 27.4236 15.1141 27.686C14.9428 28.0137 14.954 28.5285 15.2218 29.0254C15.4938 29.5303 15.8736 29.7401 16.1394 29.7439C16.3535 29.7469 16.9164 29.6135 17.5741 28.3929C17.6417 28.2674 17.7323 28.1622 17.8379 28.0797ZM17.1597 25.0315C17.3029 24.6113 17.5368 24.2331 17.8379 23.9201C17.7324 23.8376 17.6418 23.7323 17.5741 23.6068C16.9164 22.3862 16.3535 22.2529 16.1394 22.2559C15.8736 22.2596 15.4938 22.4695 15.2218 22.9743C14.954 23.4713 14.9428 23.986 15.1141 24.3138C15.2513 24.5762 15.6585 24.9999 16.9094 24.9999C16.9958 24.9999 17.0797 25.0108 17.1597 25.0315ZM26.0862 25.9999C26.3168 26.2194 26.5085 26.4732 26.6582 26.7596C27.2178 27.8305 27.0282 29.0657 26.5386 29.9743C26.0531 30.8751 25.1187 31.7265 23.8884 31.7438C23.6106 31.7477 23.3406 31.7092 23.0797 31.6308C23.0169 31.9206 22.9143 32.1953 22.7715 32.4524C22.1744 33.5275 21.0343 34 19.9998 34C18.9652 34 17.8251 33.5275 17.228 32.4524C17.0852 32.1952 16.9826 31.9205 16.9199 31.6307C16.659 31.7091 16.389 31.7476 16.1112 31.7437C14.8809 31.7263 13.9465 30.875 13.4611 29.9742C12.9715 29.0655 12.7819 27.8304 13.3416 26.7595C13.4913 26.4731 13.683 26.2193 13.9136 25.9999C13.683 25.7804 13.4913 25.5266 13.3416 25.2402C12.7819 24.1694 12.9715 22.9342 13.4611 22.0256C13.9465 21.1248 14.8809 20.2734 16.1112 20.2561C16.389 20.2522 16.659 20.2907 16.9199 20.3691C16.9826 20.0793 17.0853 19.8046 17.2281 19.5476C17.8252 18.4725 18.9652 18 19.9998 18C21.0343 18 22.1744 18.4725 22.7715 19.5476C22.9143 19.8046 23.0169 20.0793 23.0797 20.3691C23.3406 20.2907 23.6106 20.2522 23.8884 20.2561C25.1187 20.2734 26.0531 21.1247 26.5385 22.0255C27.0282 22.9342 27.2178 24.1694 26.6582 25.2402C26.5085 25.5266 26.3168 25.7804 26.0862 25.9999ZM19 25.9998C19 25.4476 19.4476 25 19.9998 25C20.5523 25 21 25.4478 21 25.9998C21 26.5521 20.5521 27 19.9998 27C19.4478 27 19 26.5523 19 25.9998Z" fill="#307FDD"/>
</svg>
