<svg width="18" height="20" viewBox="0 0 18 20" fill="none" xmlns="http://www.w3.org/2000/svg">
<path fill-rule="evenodd" clip-rule="evenodd" d="M9.08723 1.65834L1.35625 9.77586C-0.159603 11.3675 0.968606 14 3.1666 14H5.29201L4.71284 15.8823C3.93657 18.4052 7.09221 20.2531 8.91263 18.3417L16.6436 10.2241C18.1595 8.63249 17.0312 6 14.8333 6H12.7078L13.287 4.11769C14.0633 1.59482 10.9076 -0.253101 9.08723 1.65834ZM3.1666 12C2.727 12 2.50135 11.4735 2.80452 11.1552L10.5355 3.03765C10.8996 2.65536 11.5307 3.02494 11.3755 3.52952L10.199 7.35296C10.1001 7.67448 10.3405 8 10.6769 8H14.8333C15.2729 8 15.4985 8.5265 15.1953 8.84483L7.46435 16.9624C7.10027 17.3446 6.46914 16.9751 6.62439 16.4705L7.80084 12.647C7.89977 12.3255 7.65935 12 7.32295 12H3.1666Z" fill="#999999"/>
</svg>
