<svg xmlns="http://www.w3.org/2000/svg" version="1.1" height="400" width="400" data-name="Layer 1" id="Layer_1"><defs id="defs870"><linearGradient gradientUnits="userSpaceOnUse" y2="182.728" x2="115.467" y1="216.662" x1="-20.634" id="linear-gradient"><stop id="stop865" stop-opacity=".1" stop-color="#fff" offset="0"/><stop id="stop867" stop-opacity=".7" stop-color="#fff" offset=".9"/></linearGradient><style id="style863">.cls-2{fill:#04e;fill-rule:evenodd}</style></defs><path id="path876" d="M213.977 180.931l-39.82-107.709a27.175 27.175 0 00-25.496-17.751l-79.825.014v32.176h74.927L178.38 181.3z" class="cls-2"/><path id="path880" d="M144.514 299.23l18.747-186.172h200.924l1.839 77.747a45.042 45.042 0 01-29.306 45.164z" class="cls-2"/><circle id="circle882" r="29.599" cy="350.113" cx="127.998"/><circle id="circle884" r="29.599" cy="350.113" cx="271.907"/><path id="path886" d="M321.923 190.805l-1.84-77.747H111.42L96.692 73.222a27.174 27.174 0 00-25.497-17.751l-26.248.01a16.09 16.09 0 00-16.085 16.09 16.09 16.09 0 0016.09 16.09h21.345l78.217 211.569 148.102-63.26a45.042 45.042 0 0029.307-45.165z" fill="#07f" fill-rule="evenodd"/></svg>