<svg width="18" height="18" viewBox="0 0 18 18" fill="none" xmlns="http://www.w3.org/2000/svg">
<path fill-rule="evenodd" clip-rule="evenodd" d="M9.00123 2.99869C6.79187 2.99869 5.00083 4.78877 5.00083 6.99694C5.00083 9.20512 6.79187 10.9952 9.00123 10.9952C11.2106 10.9952 13.0016 9.20512 13.0016 6.99694C13.0016 4.78877 11.2106 2.99869 9.00123 2.99869ZM7.00103 6.99694C7.00103 5.89286 7.89655 4.99782 9.00123 4.99782C10.1059 4.99782 11.0014 5.89286 11.0014 6.99694C11.0014 8.10103 10.1059 8.99607 9.00123 8.99607C7.89655 8.99607 7.00103 8.10103 7.00103 6.99694Z" fill="#999999"/>
<path fill-rule="evenodd" clip-rule="evenodd" d="M2.00053 6.99694C2.00053 3.13264 5.13485 0 9.00123 0C12.8676 0 16.0019 3.13264 16.0019 6.99694C16.0019 7.92235 15.8222 8.80579 15.4957 9.6143L17.8354 13.41C18.2362 14.0603 17.868 14.9109 17.1193 15.064L14.4877 15.6022L12.7025 17.6143C12.2047 18.1754 11.3033 18.0847 10.9273 17.4357L9.00428 14.1158L7.07217 17.4513C6.69623 18.1003 5.79483 18.191 5.297 17.6299L3.51184 15.6178L0.880167 15.0796C0.131529 14.9265 -0.236731 14.0759 0.164092 13.4257L2.50943 9.62085C2.18125 8.81057 2.00053 7.92485 2.00053 6.99694ZM3.67618 11.5393L2.54221 13.379L4.56604 13.7929L5.96605 15.3709L6.94186 13.6862C5.65633 13.2914 4.52851 12.5365 3.67618 11.5393ZM11.0658 13.6847L12.0335 15.3552L13.4335 13.7773L15.4573 13.3633L14.3302 11.5348C13.4785 12.5329 12.3511 13.2888 11.0658 13.6847ZM9.00123 1.99913C6.23953 1.99913 4.00073 4.23673 4.00073 6.99694C4.00073 9.75716 6.23953 11.9948 9.00123 11.9948C11.7629 11.9948 14.0017 9.75716 14.0017 6.99694C14.0017 4.23673 11.7629 1.99913 9.00123 1.99913Z" fill="#999999"/>
</svg>
