<svg width="40" height="40" viewBox="0 0 40 40" fill="none" xmlns="http://www.w3.org/2000/svg">
<path opacity="0.1" fill-rule="evenodd" clip-rule="evenodd" d="M19.9999 4C18.6541 4 17.4632 4.66366 16.7366 5.68601C16.501 6.0176 16.0879 6.17338 15.692 6.08C15.4708 6.02783 15.2392 6 14.9999 6C13.343 6 11.9999 7.34315 11.9999 9C11.9999 9.55228 11.5522 10 10.9999 10C10.3291 10 9.73538 10.3303 9.37256 10.8371L14.25 15.2499L20 20.9999L30.4141 10.5858C30.0522 10.2239 29.5522 10 28.9999 10C28.8055 10 28.6193 10.0274 28.4439 10.078C28.1421 10.1651 27.8168 10.1052 27.5657 9.91639L27.3988 9.79087C27.1482 9.6024 27.0005 9.30728 26.9999 8.99371C26.9965 7.33987 25.6548 6.00015 24.0002 6C23.6857 5.99997 23.3895 5.85202 23.2007 5.60058C22.4692 4.62676 21.3079 4 19.9999 4ZM17 32.3441C15.8388 32.9838 13.7698 33.5521 11.6002 34C11.4109 33.9046 10.9987 33.4101 11 32.6469V29.3521C10.9987 28.59 11.4109 28.0956 11.6002 28.0003C13.7698 28.4481 15.8388 29.0161 17 29.6559V32.3441ZM31 29.3533V32.648C31.0012 33.4101 30.5891 33.9045 30.3998 33.9999C28.23 33.552 26.161 32.9838 25 32.3441V29.6559C26.1612 29.016 28.2302 28.4479 30.3998 28C30.5891 28.0956 31.0012 28.59 31 29.3533ZM23 31C23 32.1046 22.1045 33 21 33C19.8954 33 19 32.1046 19 31C19 29.8954 19.8954 29 21 29C22.1045 29 23 29.8954 23 31Z" fill="#307FDD"/>
<path fill-rule="evenodd" clip-rule="evenodd" d="M16.7368 3.68601C17.4634 2.66366 18.6542 2 20 2C21.308 2 22.4693 2.62676 23.2008 3.60058C23.3897 3.85202 23.6858 3.99997 24.0003 4C25.6549 4.00015 26.9966 5.33987 27 6.99371C27.0006 7.30728 27.1483 7.6024 27.3989 7.79087L27.5658 7.91639C27.8169 8.10524 28.1422 8.1651 28.4441 8.07801C28.6194 8.02743 28.8056 8 29 8C29.9561 8 30.7555 8.67087 30.9531 9.56756C26.6638 13.1225 23.3179 16.3256 19.9916 20.3545C17.4251 17.1566 14.3452 14.3843 11.2319 11.582L11.2319 11.5819C10.5012 10.9242 9.76862 10.2648 9.04044 9.5979C9.22656 8.68605 10.0332 8 11 8C11.5523 8 12 7.55228 12 7C12 5.34315 13.3431 4 15 4C15.2394 4 15.4709 4.02783 15.6921 4.08C16.0881 4.17338 16.5011 4.0176 16.7368 3.68601ZM9.96332 13.1326C13.1806 16.0303 16.2114 18.76 18.7067 21.9531C17.6657 23.2826 16.615 24.7072 15.5266 26.2627C14.2098 25.7736 12.6062 25.3744 11.0865 25.0583L9.3675 12.5958C9.56676 12.7755 9.7654 12.9544 9.96332 13.1326ZM11.3773 27.1668C11.1207 27.1095 10.8612 27.0539 10.6002 27C10.4227 27.0896 10.0494 27.5298 10.0045 28.2133C10.0015 28.2589 9.99992 28.3056 10 28.3533V31.648C9.99906 32.2196 10.2307 32.6406 10.4264 32.8556C10.4916 32.9272 10.5529 32.976 10.6002 32.9999C11.1212 32.8923 11.6364 32.7779 12.1346 32.6571C13.7112 32.275 15.1178 31.8302 16 31.3441V30V28.6559C14.9785 28.093 13.2543 27.5856 11.3773 27.1668ZM17.2504 32.9051C17.1618 32.9761 17.0665 33.04 16.9652 33.0958C15.8218 33.7258 14.1305 34.2401 12.4105 34.6479C12.7263 36.5759 14.394 38 16.3577 38H19.4988C21.0768 35.9051 22.2552 34.6296 23.7312 33.4376C23.4822 33.3277 23.2489 33.2138 23.0348 33.0958C22.9335 33.04 22.8382 32.9761 22.7496 32.9051C22.0328 33.5838 21.065 34 20 34C18.935 34 17.9672 33.5838 17.2504 32.9051ZM10.4405 34.9935C10.9231 37.8745 13.4195 40 16.3577 40H23.6423C26.5805 40 29.0769 37.8745 29.5595 34.9935C29.8156 34.973 30.0671 34.9032 30.2997 34.786C30.8995 34.4837 31.2991 33.9475 31.525 33.5355C31.7984 33.037 32.0009 32.3942 32 31.6467V28.3545C32.0009 27.607 31.7987 26.9642 31.5254 26.4653C31.3785 26.1971 31.1582 25.8767 30.8574 25.6023L32.8691 11.018C32.9547 10.6919 33 10.3506 33 10V10C33 7.79086 31.2091 6 29 6C28.9667 6 28.9334 6.00041 28.9002 6.00123C28.4693 3.87551 26.6899 2.23926 24.4936 2.02406C23.3955 0.784023 21.7892 0 20 0C18.2101 0 16.6035 0.784491 15.5053 2.0253C15.339 2.00856 15.1704 2 15 2C12.5436 2 10.5009 3.77136 10.0796 6.1064C8.31414 6.52213 7 8.1076 7 10V10C7 10.3506 7.04533 10.6919 7.13094 11.018L9.14257 25.6023C8.84177 25.8767 8.62154 26.1971 8.4746 26.4653C8.20129 26.9642 7.99914 27.607 8 28.3545V31.6467C7.99914 32.3942 8.20162 33.037 8.47498 33.5355C8.70086 33.9475 9.10046 34.4837 9.70032 34.786C9.93289 34.9032 10.1844 34.973 10.4405 34.9935ZM18 30C18 31.1046 18.8954 32 20 32C21.1046 32 22 31.1046 22 30C22 28.8954 21.1046 28 20 28C18.8954 28 18 28.8954 18 30ZM24 31.3441V30V28.6559C25.0215 28.093 26.7457 27.5856 28.6227 27.1668C28.8793 27.1095 29.1388 27.0539 29.3998 27C29.5773 27.0896 29.9506 27.5298 29.9955 28.2133C29.9985 28.2589 30.0001 28.3056 30 28.3533V31.648C30.0013 32.4101 29.5891 32.9045 29.3998 32.9999C28.8788 32.8923 28.3636 32.7779 27.8654 32.6571C26.2888 32.275 24.8822 31.8302 24 31.3441ZM23.0348 26.9042C24.4725 26.112 26.776 25.5029 28.9135 25.0583L30.6548 12.4339C25.6054 16.7636 21.8837 20.7512 17.5886 26.8083C18.259 26.301 19.0944 26 20 26C21.065 26 22.0328 26.4162 22.7496 27.0949C22.8382 27.0239 22.9334 26.96 23.0348 26.9042ZM25.9898 34.2308C26.5094 34.3806 27.048 34.5196 27.5895 34.6479C27.2737 36.5759 25.606 38 23.6423 38H22.0333C23.3886 36.3278 24.4714 35.3265 25.9898 34.2308Z" fill="#307FDD"/>
</svg>
