<svg xmlns="http://www.w3.org/2000/svg" width="39.969" height="40" viewBox="0 0 39.969 40">
  <defs>
    <style>
      .cls-1 {
        fill: #1d7ce6;
        fill-rule: evenodd;
      }
    </style>
  </defs>
  <path id="Rounded_Rectangle_938_copy_5" data-name="Rounded Rectangle 938 copy 5" class="cls-1" d="M665,302.753c-0.06.289-.15,0.565-0.222,0.849l0.006,0c-0.014.055-.034,0.107-0.049,0.162-0.081.307-.145,0.622-0.241,0.923l-0.035-.007a19.27,19.27,0,0,1-13.5,12.66c-0.241.063-1.116,0.256-1.633,0.368a7.973,7.973,0,0,1-3.342,1.216c0,0.026.015,0.048,0.015,0.074v10.329l3.482-2a4.4,4.4,0,0,1,1.731-5.751c0.118-.068.244-0.106,0.365-0.161h0c3-1.675,6.395-2.084,9.423-.134,0.174,3.371-1.9,6.289-4.9,7.964l-0.011-.02c-0.1.066-.179,0.143-0.281,0.2a4.5,4.5,0,0,1-5.094-.5L646,331.635V335a1,1,0,0,1-2,0v-3.412l-4.656-2.659a4.544,4.544,0,0,1-5.122.5c-0.1-.059-0.187-0.136-0.283-0.2l-0.011.02c-3.017-1.675-5.1-4.593-4.929-7.964,3.045-1.95,6.459-1.541,9.475.134h0c0.122,0.055.248,0.093,0.367,0.161a4.392,4.392,0,0,1,1.741,5.751L644,329.281V319c0-.026.013-0.047,0.014-0.072a7.959,7.959,0,0,1-3.275-1.169c-0.5-.118-1.463-0.362-1.742-0.436a19.27,19.27,0,0,1-13.426-12.641l-0.035.007c-0.1-.3-0.16-0.616-0.241-0.923-0.015-.055-0.035-0.107-0.049-0.162l0.006,0c-0.072-.284-0.162-0.56-0.221-0.849,0.351-.091.714-0.152,1.071-0.226l-0.007-.041a22.877,22.877,0,0,1,10.943.385c-0.057.1-.117,0.208-0.171,0.312a10.607,10.607,0,0,0-.634,1.544,20.859,20.859,0,0,0-5.445-.727,20.633,20.633,0,0,0-3.215.256,17.216,17.216,0,0,0,10.48,10.671,7.932,7.932,0,0,1-.984-2.927H637c0-.2.012-0.411,0.019-0.617C637.013,311.255,637,311.129,637,311a7.959,7.959,0,0,1,.221-1.838c0.785-5.305,3.685-10.41,7.779-13.158h0c4.094,2.748,6.994,7.853,7.779,13.158A7.959,7.959,0,0,1,653,311c0,0.13-.013.256-0.019,0.384C652.988,311.589,653,311.8,653,312h-0.069a7.935,7.935,0,0,1-.992,2.939,17.215,17.215,0,0,0,10.519-10.683,20.633,20.633,0,0,0-3.215-.256,20.859,20.859,0,0,0-5.445.727,10.5,10.5,0,0,0-.634-1.544c-0.053-.1-0.114-0.208-0.171-0.312a22.877,22.877,0,0,1,10.943-.385l-0.007.041C664.287,302.6,664.649,302.662,665,302.753ZM653.5,328a2.472,2.472,0,0,0,1.558-.56l0.036,0.029c3.843-2.407,3.906-5.157,3.906-5.157a8.03,8.03,0,0,0-6.256.817A2.493,2.493,0,0,0,653.5,328Zm-16.2-4.871a8.113,8.113,0,0,0-6.291-.817s0.063,2.75,3.928,5.157l0.036-.029A2.5,2.5,0,1,0,637.3,323.129ZM645,298a20.9,20.9,0,0,0-6,13,6,6,0,0,0,12,0A20.9,20.9,0,0,0,645,298Z" transform="translate(-625.031 -296)"/>
</svg>
