<svg id="Group_28_copy" data-name="Group 28 copy" xmlns="http://www.w3.org/2000/svg" width="40" height="40" viewBox="0 0 40 40">
  <metadata><?xpacket begin="﻿" id="W5M0MpCehiHzreSzNTczkc9d"?>
<x:xmpmeta xmlns:x="adobe:ns:meta/" x:xmptk="Adobe XMP Core 5.6-c142 79.160924, 2017/07/13-01:06:39        ">
   <rdf:RDF xmlns:rdf="http://www.w3.org/1999/02/22-rdf-syntax-ns#">
      <rdf:Description rdf:about=""/>
   </rdf:RDF>
</x:xmpmeta>
                                                                                                    
                                                                                                    
                                                                                                    
                                                                                                    
                                                                                                    
                                                                                                    
                                                                                                    
                                                                                                    
                                                                                                    
                                                                                                    
                                                                                                    
                                                                                                    
                                                                                                    
                                                                                                    
                                                                                                    
                                                                                                    
                                                                                                    
                                                                                                    
                                                                                                    
                                                                                                    
                           
<?xpacket end="w"?></metadata>
<defs>
    <style>
      .cls-1, .cls-2 {
        fill: #2077cf;
        fill-rule: evenodd;
      }

      .cls-2 {
        opacity: 0.1;
      }
    </style>
  </defs>
  <path id="Rounded_Rectangle_837_copy" data-name="Rounded Rectangle 837 copy" class="cls-1" d="M320,1224a2.448,2.448,0,0,1-.6-0.09,0.9,0.9,0,0,1-.4.09h-2v23H305a3.973,3.973,0,0,1-2.942-1.31,1.234,1.234,0,0,1-.14-0.14l-15.469-15.47a1.029,1.029,0,0,1-.14-0.14A3.968,3.968,0,0,1,285,1227v-11h0.018c-0.006-.17-0.018-0.33-0.018-0.5,0-4.69,2.239-8.5,5-8.5h30c2.761,0,5,3.81,5,8.5S322.761,1224,320,1224Zm-19,7H290.171L301,1241.83V1231Zm-7.781-22H290c-1.248,0-2.316,1.65-2.769,4H311a1,1,0,0,1,0,2H287.023c-0.006.17-.023,0.33-0.023,0.5s0.017,0.33.023,0.5H287v11a2,2,0,0,0,2,2h14v14a2,2,0,0,0,2,2h10v-29h0.015c-0.006-.17-0.015-0.33-0.015-0.5a11.589,11.589,0,0,1,1.781-6.5H293.219ZM320,1209h0c-1.657,0-3,2.91-3,6.5s1.343,6.5,3,6.5,3-2.91,3-6.5S321.657,1209,320,1209Zm0,10c-0.552,0-1-1.57-1-3.5s0.448-3.5,1-3.5,1,1.57,1,3.5S320.552,1219,320,1219Z" transform="translate(-285 -1207)"/>
  <path class="cls-2" d="M316,1211v7h-1v28h-9v-17H291v-13c0-3.87,2.239-7,5-7v-2h21v4h-1Z" transform="translate(-285 -1207)"/>
</svg>
