<svg id="Group_61_copy" data-name="Group 61 copy" xmlns="http://www.w3.org/2000/svg" width="40" height="40" viewBox="0 0 40 40">
  <metadata><?xpacket begin="﻿" id="W5M0MpCehiHzreSzNTczkc9d"?>
<x:xmpmeta xmlns:x="adobe:ns:meta/" x:xmptk="Adobe XMP Core 5.6-c142 79.160924, 2017/07/13-01:06:39        ">
   <rdf:RDF xmlns:rdf="http://www.w3.org/1999/02/22-rdf-syntax-ns#">
      <rdf:Description rdf:about=""/>
   </rdf:RDF>
</x:xmpmeta>
                                                                                                    
                                                                                                    
                                                                                                    
                                                                                                    
                                                                                                    
                                                                                                    
                                                                                                    
                                                                                                    
                                                                                                    
                                                                                                    
                                                                                                    
                                                                                                    
                                                                                                    
                                                                                                    
                                                                                                    
                                                                                                    
                                                                                                    
                                                                                                    
                                                                                                    
                                                                                                    
                           
<?xpacket end="w"?></metadata>
<defs>
    <style>
      .cls-1, .cls-2 {
        fill: #2077cf;
        fill-rule: evenodd;
      }

      .cls-2 {
        opacity: 0.1;
      }
    </style>
  </defs>
  <path id="Rounded_Rectangle_1414" data-name="Rounded Rectangle 1414" class="cls-1" d="M334,4090H308a6.993,6.993,0,0,1-4.889-12H303a2,2,0,0,1-2-2v-24a2,2,0,0,1,2-2h31a7,7,0,0,1,7,7v26A7,7,0,0,1,334,4090Zm-26-38h-5v24h5v-24Zm8,0h-6v24h6v-24Zm23,26.11V4057a5,5,0,0,0-5-5H318v24h14a5,5,0,0,1,0,10H308a3,3,0,0,1,0-6h24a1,1,0,0,1,0,2H308a1,1,0,0,0,0,2h24a3,3,0,0,0,0-6H308a5,5,0,0,0,0,10h26a5,5,0,0,0,5-5v-4.89Z" transform="translate(-301 -4050)"/>
  <path class="cls-2" d="M339,4082v-2a6,6,0,0,0-6-6v-23h3l4,4v26Zm-30-31h8v26h-8v-26Z" transform="translate(-301 -4050)"/>
</svg>
