<svg id="Group_26_copy" data-name="Group 26 copy" xmlns="http://www.w3.org/2000/svg" width="40" height="40" viewBox="0 0 40 40">
  <defs>
    <style>
      .cls-1, .cls-2 {
        fill: #2077cf;
        fill-rule: evenodd;
      }

      .cls-2 {
        opacity: 0.1;
      }
    </style>
  </defs>
  <path id="Rounded_Rectangle_101" data-name="Rounded Rectangle 101" class="cls-1" d="M1249,841.5a3.5,3.5,0,0,1-3.5,3.5h-14a3.49,3.49,0,0,1-1.05-6.821,3.419,3.419,0,0,1-.45-1.679,3.485,3.485,0,0,1,2.45-3.321,3.419,3.419,0,0,1-.45-1.679,3.489,3.489,0,0,1,1.49-2.86A2.974,2.974,0,0,1,1233,827a2.937,2.937,0,0,1,.23-1.15l2.83-10.975,0.03-.006a2.484,2.484,0,0,1,4.77-.152l0.05,0,3.06,11.781h-0.02a2.752,2.752,0,0,1,.05.5,2.974,2.974,0,0,1-.49,1.64,3.489,3.489,0,0,1,1.49,2.86,3.419,3.419,0,0,1-.45,1.679A3.485,3.485,0,0,1,1247,836.5a3.419,3.419,0,0,1-.45,1.679A3.485,3.485,0,0,1,1249,841.5Zm-7.12-14.945L1239,815.5a0.5,0.5,0,0,0-1,0l-2.88,11.055a0.966,0.966,0,0,0-.12.445,1,1,0,0,0,1,1h5a1,1,0,0,0,1-1A0.966,0.966,0,0,0,1241.88,826.555ZM1241.5,830h-6a1.5,1.5,0,0,0,0,3h6A1.5,1.5,0,0,0,1241.5,830Zm2,5h-10a1.5,1.5,0,0,0,0,3h10A1.5,1.5,0,0,0,1243.5,835Zm2,5h-14a1.5,1.5,0,0,0,0,3h14A1.5,1.5,0,0,0,1245.5,840Zm-17.14-23.435a7.065,7.065,0,0,1,.64,2.935,7.214,7.214,0,0,1-2.62,5.518,7.081,7.081,0,0,1,4.4,2.2c0.08,0.081.15,0.17,0.22,0.253V827.5a3.818,3.818,0,0,0,.08.759,5.678,5.678,0,0,0-.8,1.525,7.352,7.352,0,0,0-.92-1.133c-1.22-1.229-2.66-1.84-3.54-1.6a10.461,10.461,0,0,1,2.96,5.712,3.871,3.871,0,0,0,.57.173A5.422,5.422,0,0,0,1228,836.5a4.407,4.407,0,0,0,.06.633,3.492,3.492,0,1,0-1.85,5.794,5.4,5.4,0,0,0,.87,1.816,5.333,5.333,0,0,1-5.8-1.743h-0.56a5.482,5.482,0,1,1-7.71-7.719c0-.094-0.01-0.186-0.01-0.281,0-.038.01-0.074,0.01-0.111a3.376,3.376,0,0,1-3.14-.728c-1.53-1.533-.91-4.641,1.38-6.941a7.077,7.077,0,0,1,4.37-2.2,7.249,7.249,0,0,1-2.62-5.52,7.065,7.065,0,0,1,.64-2.935,7.559,7.559,0,0,1-3.53-3.279c-1.74-3.061-1.41-6.566.74-7.829s5.3,0.2,7.04,3.257a8.314,8.314,0,0,1,1.06,3.286h4.1a8.314,8.314,0,0,1,1.06-3.286c1.74-3.061,4.89-4.519,7.04-3.257s2.48,4.768.74,7.829A7.559,7.559,0,0,1,1228.36,816.565ZM1221.28,836a5.327,5.327,0,0,1,5.69-1.776c-0.29-4.054-2.85-7.224-5.97-7.224s-5.68,3.17-5.97,7.224a5.327,5.327,0,0,1,5.69,1.776h0.56Zm-8.28,3.5a3.5,3.5,0,1,0,3.5-3.5A3.5,3.5,0,0,0,1213,839.5Zm-0.33-10.849c-1.48,1.486-2.08,3.3-1.34,4.038a1.765,1.765,0,0,0,1.89.082,10.418,10.418,0,0,1,2.96-5.724C1215.3,826.82,1213.88,827.43,1212.67,828.651Zm3.49-18.961c-1.15-2.089-3.05-3.2-4.24-2.472s-1.23,3-.08,5.092a5.03,5.03,0,0,0,2.87,2.562,7.89,7.89,0,0,1,2.25-1.837A6,6,0,0,0,1216.16,809.69ZM1221,814c-3.31,0-6.06,2.462-6.06,5.5s2.75,5.5,6.06,5.5A5.521,5.521,0,1,0,1221,814Zm9.08-6.782c-1.19-.723-3.09.383-4.24,2.472a6,6,0,0,0-.8,3.345,7.89,7.89,0,0,1,2.25,1.837,5.03,5.03,0,0,0,2.87-2.562C1231.31,810.221,1231.27,807.942,1230.08,807.218ZM1222.09,820a1.64,1.64,0,0,1-.09-0.5,1.5,1.5,0,0,1,3,0,1.388,1.388,0,0,1-.1.5h-2.81Zm-1.09,3a1,1,0,1,1,1-1A1,1,0,0,1,1221,823Zm-3.9-3a1.388,1.388,0,0,1-.1-0.5,1.5,1.5,0,0,1,3,0,1.64,1.64,0,0,1-.09.5h-2.81Z" transform="translate(-1209 -805)"/>
  <path class="cls-2" d="M1248,841.5a2.5,2.5,0,0,1-2.5,2.5h-9a2.5,2.5,0,0,1,0-5h2a2.5,2.5,0,0,1,0-5h2a2.5,2.5,0,0,1,0-5h1a2.5,2.5,0,0,1,0,5h2a2.5,2.5,0,0,1,0,5h2A2.5,2.5,0,0,1,1248,841.5ZM1238,828l1-13v-1l1,1,2,6,1,7-1,1Zm-8-14-2,2-2-1-1-1-1-1v-3l2-2,2-2h2l2,1v3l-1,3Zm-2,17v2l-1,2-3,1h-1l-2,1-1-1-2-1h-3l-1-2,1-2,2-3,1-1,2-1h3l2,1Zm-15-16-3-3v-3l1-2s0.49-1.036,1-1a25.884,25.884,0,0,1,3,1l2,2,1,2v3l-3,2Z" transform="translate(-1209 -805)"/>
</svg>
