<svg width="40" height="40" viewBox="0 0 40 40" fill="none" xmlns="http://www.w3.org/2000/svg">
<path opacity="0.1" fill-rule="evenodd" clip-rule="evenodd" d="M17.2308 17C13.4348 17 10.174 14.7087 8.75598 11.4337C6.55394 12.3223 5 14.4797 5 17V25H1V34L2 36L5 37V38C5 38.5523 5.44772 39 6 39H34C34.5523 39 35 38.5523 35 38V37L38 36L39 34V25H35V17C35 14.4797 33.4461 12.3223 31.244 11.4337C29.826 14.7087 26.5652 17 22.7692 17H17.2308ZM9 25V34L10 35H29L31 33V25.5L29 24H11L9 25Z" fill="#307FDD"/>
<path fill-rule="evenodd" clip-rule="evenodd" d="M20.5 0H19.5C17.5407 0 15.8738 1.25221 15.2561 3H10.7692C8.13526 3 6 5.13526 6 7.76923C6 8.95405 6.18348 10.096 6.52356 11.1683C4.97019 12.6276 4 14.7005 4 17V24H0V33C0 35.419 1.71776 37.4367 4 37.9C4.04844 37.9098 4.09714 37.9189 4.14608 37.9274C4.53671 39.1303 5.66679 40 7 40H33C34.3332 40 35.4633 39.1303 35.8539 37.9274C35.9029 37.9189 35.9516 37.9098 36 37.9C38.2822 37.4367 40 35.419 40 33V24H36V17C36 14.7005 35.0298 12.6276 33.4764 11.1683C33.8165 10.096 34 8.95405 34 7.76923C34 5.13526 31.8647 3 29.2308 3H24.7439C24.1262 1.25221 22.4593 0 20.5 0ZM22.5002 3H17.4998C17.9559 2.39278 18.6821 2 19.5 2H20.5C21.3179 2 22.0441 2.39278 22.5002 3ZM6 17C6 15.5439 6.51868 14.209 7.38137 13.1698C9.25613 16.5817 12.8521 18.9141 17 18.9977V19C17 20.6569 18.3431 22 20 22C21.6569 22 23 20.6569 23 19V18.9977C27.1479 18.9141 30.7439 16.5817 32.6186 13.1698C33.4813 14.209 34 15.5439 34 17V24V37C34 37.5523 33.5523 38 33 38H7C6.44771 38 6 37.5523 6 37V24V17ZM20 15C18.6939 15 17.5827 15.8347 17.1708 16.9998C12.1004 16.9675 8 12.8472 8 7.76923C8 6.23983 9.23983 5 10.7692 5H29.2308C30.7602 5 32 6.23983 32 7.76923C32 12.8472 27.8996 16.9675 22.8292 16.9998C22.4173 15.8347 21.3061 15 20 15ZM38 33C38 34.3062 37.1652 35.4175 36 35.8293V26H38V33ZM4 35.8293V26H2V33C2 34.3062 2.83481 35.4175 4 35.8293ZM13 27C12.4477 27 12 27.4477 12 28C12 28.5523 12.4477 29 13 29H15V31C15 31.5523 15.4477 32 16 32C16.5523 32 17 31.5523 17 31V29H27C27.5523 29 28 28.5523 28 28C28 27.4477 27.5523 27 27 27H16H13ZM20 17C20.5523 17 21 17.4477 21 18V19C21 19.5523 20.5523 20 20 20C19.4477 20 19 19.5523 19 19V18C19 17.4477 19.4477 17 20 17ZM29 23H11C9.34315 23 8 24.3431 8 26V33C8 34.6569 9.34315 36 11 36H29C30.6569 36 32 34.6569 32 33V26C32 24.3431 30.6569 23 29 23ZM10 26C10 25.4477 10.4477 25 11 25H29C29.5523 25 30 25.4477 30 26V33C30 33.5523 29.5523 34 29 34H11C10.4477 34 10 33.5523 10 33V26Z" fill="#307FDD"/>
</svg>
