<svg width="18" height="18" viewBox="0 0 18 18" fill="none" xmlns="http://www.w3.org/2000/svg">
<path fill-rule="evenodd" clip-rule="evenodd" d="M0 3C0 1.34315 1.34315 0 3 0H15C16.6569 0 18 1.34315 18 3V15C18 16.6569 16.6569 18 15 18H3C1.34315 18 0 16.6569 0 15V3ZM3 2C2.44772 2 2 2.44772 2 3V15C2 15.5523 2.44772 16 3 16V2ZM5 2V16H15C15.5523 16 16 15.5523 16 15V3C16 2.44772 15.5523 2 15 2H14V8.79194C14 9.71429 12.9331 10.2271 12.2128 9.65089L10.5 8.28062L8.78716 9.65089C8.06692 10.2271 7 9.71429 7 8.79194V2H5ZM9 2H12V6.91938L11.1872 6.26911C10.7854 5.94771 10.2146 5.94771 9.81284 6.26911L9 6.91938V2Z" fill="#999999"/>
</svg>
