<svg width="40" height="40" viewBox="0 0 40 40" fill="none" xmlns="http://www.w3.org/2000/svg">
<path fill-rule="evenodd" clip-rule="evenodd" d="M15.0001 20.5C15.0001 22.2582 13.7037 23.7136 12.0147 23.9624V17.0376C13.7037 17.2864 15.0001 18.7418 15.0001 20.5ZM15.0001 4.5C15.0001 6.25817 13.7037 7.71355 12.0147 7.96243V1.03757C13.7037 1.28645 15.0001 2.74183 15.0001 4.5ZM17.1113 5.71892C18.7853 4.75242 20.9259 5.32598 21.8924 7.00001C22.8589 8.67403 22.2853 10.8146 20.6113 11.7811C18.9373 12.7476 16.7967 12.174 15.8302 10.5C14.8637 8.82598 15.4373 6.68542 17.1113 5.71892ZM21.8924 18C22.8589 16.326 22.2853 14.1854 20.6113 13.2189C18.9373 12.2524 16.7967 12.826 15.8302 14.5C14.8637 16.174 15.4373 18.3146 17.1113 19.2811C18.7853 20.2476 20.9259 19.674 21.8924 18ZM28 21C27.4478 21 27 21.4477 27 22V38C27 38.5523 27.4478 39 28 39H38C38.5523 39 39 38.5523 39 38V22C39 21.4477 38.5523 21 38 21H28Z" fill="#1D7CE6" fill-opacity="0.1"/>
<path fill-rule="evenodd" clip-rule="evenodd" d="M27.0001 1.99991C25.5453 1.99991 25.048 2.93134 24.9702 3.24244L24.9609 3.2797L24.9488 3.31614L24.2106 5.53071C24.1621 5.43642 24.111 5.34282 24.0574 5.24999C23.6967 4.62527 23.248 4.08307 22.736 3.63002L23.0409 2.71515C23.3177 1.68813 24.4896 -9.15527e-05 27.0001 -9.15527e-05C29.5106 -9.15527e-05 30.6825 1.68812 30.9593 2.71515L36.7209 19.9999H37.0001C38.6569 19.9999 40.0001 21.3431 40.0001 22.9999V36.9999C40.0001 38.6568 38.6569 39.9999 37.0001 39.9999H17.0001C15.3432 39.9999 14.0001 38.6568 14.0001 36.9999V26.5018C14.7477 26.1901 15.4246 25.7427 16.0001 25.1904V36.9999C16.0001 37.5522 16.4478 37.9999 17.0001 37.9999H37.0001C37.5524 37.9999 38.0001 37.5522 38.0001 36.9999V22.9999C38.0001 22.4476 37.5524 21.9999 37.0001 21.9999H36.8472L35.1257 32.3287C34.965 33.2931 34.1306 33.9999 33.153 33.9999H29.8294C29.4176 35.1651 28.3063 35.9999 27.0001 35.9999C25.6938 35.9999 24.5826 35.1651 24.1708 33.9999H20.8472C19.8695 33.9999 19.0352 33.2931 18.8744 32.3287L17.3692 23.297C17.4252 23.1796 17.4779 23.0602 17.527 22.939C18.1318 23.0234 18.741 23.021 19.3366 22.9365L20.8472 31.9999H24.1708C24.5826 30.8347 25.6939 29.9999 27.0001 29.9999C28.3063 29.9999 29.4175 30.8347 29.8294 31.9999H33.153L34.8196 21.9999H21.895C22.6833 21.5039 23.3752 20.8315 23.9057 19.9999H34.6127L29.0514 3.31614L29.0393 3.2797L29.03 3.24244C28.9522 2.93134 28.4549 1.99991 27.0001 1.99991ZM27.0001 31.9999C26.4478 31.9999 26.0001 32.4477 26.0001 32.9999C26.0001 33.5522 26.4478 33.9999 27.0001 33.9999C27.5524 33.9999 28.0001 33.5522 28.0001 32.9999C28.0001 32.4477 27.5524 31.9999 27.0001 31.9999ZM9.01854 4.5C9.01854 3.11929 10.1378 2 11.5185 2C12.8993 2 14.0185 3.11929 14.0185 4.5C14.0185 5.88071 12.8993 7 11.5185 7C10.1378 7 9.01854 5.88071 9.01854 4.5ZM11.5185 2.86102e-06C9.03326 2.86102e-06 7.01854 2.01472 7.01854 4.5C7.01854 4.6834 7.02951 4.86424 7.05084 5.04189C6.95417 4.97557 6.8542 4.9125 6.75096 4.8529C4.59865 3.61026 1.84649 4.34769 0.603849 6.50001C-0.591866 8.57105 0.045775 11.1975 2.01321 12.5C0.0457525 13.8025 -0.591901 16.429 0.60382 18.5C1.84646 20.6523 4.59862 21.3898 6.75093 20.1471C6.85418 20.0875 6.95417 20.0244 7.05084 19.9581C7.02952 20.1358 7.01854 20.3166 7.01854 20.5C7.01854 22.9853 9.03326 25 11.5185 25C14.0038 25 16.0185 22.9853 16.0185 20.5C16.0185 20.3214 16.0081 20.1452 15.9879 19.972C16.0782 20.0332 16.1714 20.0917 16.2675 20.1471C18.4198 21.3898 21.1719 20.6523 22.4146 18.5C23.6103 16.429 22.9726 13.8025 21.0052 12.5C22.9726 11.1975 23.6103 8.57105 22.4145 6.50001C21.1719 4.34769 18.4198 3.61026 16.2674 4.8529C16.1714 4.90833 16.0782 4.96677 15.9879 5.02803C16.0081 4.85483 16.0185 4.67863 16.0185 4.5C16.0185 2.01472 14.0038 2.86102e-06 11.5185 2.86102e-06ZM16.0282 12.5C15.4665 12.1278 14.9801 11.6232 14.6203 11C14.1157 10.1259 13.9376 9.15287 14.0482 8.22219C13.3273 8.71307 12.4565 9 11.5185 9C10.5718 9 9.69331 8.70763 8.96849 8.20824C9.08259 9.14314 8.90526 10.1215 8.39808 11C8.03827 11.6232 7.55192 12.1278 6.99021 12.5C7.55191 12.8723 8.03825 13.3768 8.39805 14C8.90524 14.8785 9.08256 15.8569 8.96846 16.7918C9.69329 16.2924 10.5718 16 11.5185 16C12.4565 16 13.3274 16.2869 14.0482 16.7778C13.9376 15.8472 14.1157 14.8741 14.6203 14C14.9801 13.3768 15.4665 12.8723 16.0282 12.5ZM12.9998 12.5C12.9998 13.328 12.3286 13.9992 11.5006 13.9992C10.6727 13.9992 10.0015 13.328 10.0015 12.5C10.0015 11.672 10.6727 11.0008 11.5006 11.0008C12.3286 11.0008 12.9998 11.672 12.9998 12.5ZM5.75093 18.4151C4.5552 19.1054 3.02623 18.6957 2.33587 17.5C1.64551 16.3043 2.0552 14.7753 3.25093 14.0849C4.44667 13.3946 5.97564 13.8043 6.666 15C7.35635 16.1957 6.94667 17.7247 5.75093 18.4151ZM2.3359 7.50001C1.64554 8.69574 2.05523 10.2247 3.25096 10.9151C4.4467 11.6054 5.97567 11.1957 6.66603 10C7.35638 8.80428 6.9467 7.2753 5.75096 6.58495C4.55523 5.89459 3.02626 6.30428 2.3359 7.50001ZM9.01854 20.5C9.01854 19.1193 10.1378 18 11.5185 18C12.8993 18 14.0185 19.1193 14.0185 20.5C14.0185 21.8807 12.8993 23 11.5185 23C10.1378 23 9.01854 21.8807 9.01854 20.5ZM16.3524 10C17.0427 11.1957 18.5717 11.6054 19.7674 10.9151C20.9632 10.2247 21.3729 8.69574 20.6825 7.50001C19.9921 6.30428 18.4632 5.89459 17.2674 6.58495C16.0717 7.2753 15.662 8.80428 16.3524 10ZM17.2675 18.4151C16.0717 17.7247 15.662 16.1957 16.3524 15C17.0427 13.8043 18.5717 13.3946 19.7675 14.0849C20.9632 14.7753 21.3729 16.3043 20.6825 17.5C19.9922 18.6957 18.4632 19.1054 17.2675 18.4151Z" fill="#1D7CE6"/>
</svg>
