<svg width="19" height="19" viewBox="0 0 19 19" fill="none" xmlns="http://www.w3.org/2000/svg">
<path d="M12.9999 8C11.8954 8 10.9999 7.10457 10.9999 6C10.9999 4.89543 11.8954 4 12.9999 4C14.1045 4 14.9999 4.89543 14.9999 6C14.9999 7.10457 14.1045 8 12.9999 8Z" fill="#999999"/>
<path fill-rule="evenodd" clip-rule="evenodd" d="M10.4142 0C9.88372 0 9.37502 0.210712 8.99994 0.585786L1.70705 7.87868C0.535478 9.05025 0.535474 10.9497 1.70705 12.1213L6.87862 17.2929C8.05019 18.4645 9.94969 18.4645 11.1213 17.2929L18.4142 10C18.7892 9.62493 18.9999 9.11622 18.9999 8.58579V3C18.9999 1.34315 17.6568 0 15.9999 0H10.4142ZM10.4142 2L15.9999 2C16.5522 2 16.9999 2.44772 16.9999 3V8.58579L9.70705 15.8787C9.31652 16.2692 8.68336 16.2692 8.29284 15.8787L3.12126 10.7071C2.73074 10.3166 2.73074 9.68342 3.12126 9.29289L10.4142 2Z" fill="#999999"/>
</svg>
