<svg width="40" height="40" viewBox="0 0 40 40" fill="none" xmlns="http://www.w3.org/2000/svg">
<g opacity="0.1">
<path d="M16 28.3441C14.9549 28.9838 13.4929 29.5521 11.5402 30C11.3698 29.9046 10.9989 29.4101 11 28.6469V25.3521C10.9989 24.59 11.3698 24.0956 11.5402 24.0003C13.4929 24.4481 14.9549 25.0161 16 25.6559V28.3441ZM29 25.3533V28.648C29.0011 29.4101 28.6302 29.9045 28.4598 29.9999C26.5071 29.552 25.0449 28.9838 24 28.3441V25.6559C25.0451 25.016 26.5072 24.4479 28.4598 24C28.6303 24.0956 29.0011 24.59 29 25.3533Z" fill="#307FDD"/>
<path d="M11.2433 4.00761L4 6.3443V9.20616L9.7003 8.6887C10.0349 8.66051 10.3655 8.77883 10.6125 9.01799C10.8595 9.25706 11 9.59411 11 9.94742V15L29 15.0001V9.42944C29 9.0763 29.1405 8.73925 29.3875 8.50001C29.6344 8.26093 29.9649 8.14245 30.2997 8.17073L36 9.20624V6.3394L28.7583 4.00269C27.8197 6.86689 24.2573 8.9983 20.0051 9.00001H19.9949C15.7452 8.9983 12.1844 6.86933 11.2433 4.00761Z" fill="#307FDD"/>
<path d="M22 27C22 28.1046 21.1046 29 20 29C18.8954 29 18 28.1046 18 27C18 25.8954 18.8954 25 20 25C21.1046 25 22 25.8954 22 27Z" fill="#307FDD"/>
</g>
<path fill-rule="evenodd" clip-rule="evenodd" d="M27 0H13H12H11.2669C11.0584 0 10.8512 0.0325912 10.6528 0.0965931L3.38596 2.44088C2.55988 2.70738 2 3.47629 2 4.34429V8.20615C2 8.76334 2.23244 9.29528 2.64132 9.6738C3.05021 10.0523 3.59846 10.2431 4.154 10.2002L10 9.74873V14C10 14.2453 10.0442 14.4803 10.125 14.6974C10.0589 14.7744 9.9983 14.8569 9.94385 14.9445C9.74561 15.2636 9.54812 15.5811 9.35161 15.8971C5.19221 22.5847 1.4662 28.5755 0.061765 34.0865C-0.187473 35.0645 0.33103 36.075 1.27088 36.4428C13.3888 41.1857 26.6107 41.1857 38.7288 36.4428C39.6686 36.075 40.1871 35.0645 39.9379 34.0865C38.5335 28.5755 34.8073 22.5844 30.6476 15.8965C30.4513 15.5807 30.2539 15.2634 30.0558 14.9445C30.0013 14.8568 29.9406 14.7743 29.8745 14.6973C29.9567 14.4763 30 14.2404 30 14.0001V9.30269L35.6945 10.1828C36.2715 10.2719 36.8585 10.1046 37.3017 9.72461C37.7449 9.34465 38 8.79001 38 8.20623V4.33939C38 3.47144 37.4402 2.70256 36.6142 2.43602L29.3642 0.0966349C29.1657 0.0326055 28.9585 0 28.75 0H28H27ZM25 2H15C15 2.56717 15.3185 3.2693 16.2127 3.90807C17.1032 4.54409 18.4358 5 20 5C21.5642 5 22.8968 4.54409 23.7873 3.90807C24.6815 3.2693 25 2.56717 25 2ZM13 2H12H11.2669L4 4.34429V8.20615L10.7003 7.68869C11.0349 7.6605 11.3655 7.77882 11.6125 8.01798C11.8595 8.25706 12 8.5941 12 8.94741V14H28V8.42943C28 8.07629 28.1405 7.73924 28.3875 7.5C28.6344 7.26092 28.9649 7.14245 29.2997 7.17072L36 8.20623V4.33939L28.75 2H28H27C27 4.76142 23.866 7 20 7C16.134 7 13 4.76142 13 2ZM12 16L28 16.0001C28.006 16.0001 28.0121 16.0001 28.0181 16H28.357L28.8431 16.7821C33.1004 23.63 36.6743 29.3788 37.9998 34.5804C26.3504 39.1399 13.6491 39.1399 1.99982 34.5804C3.32541 29.3788 6.89913 23.6303 11.1561 16.7828L11.6427 16H12ZM17.0441 29.0499L17.2623 28.9164C17.9779 29.5884 18.9409 30 20 30C21.0591 30 22.0221 29.5884 22.7377 28.9164L22.9559 29.0499C23.5351 29.4044 25.0029 30.2942 26.3981 30.6978C27.0348 30.882 28.1176 31.1102 29.1545 30.6813C29.7448 30.4371 30.2562 30.004 30.5906 29.3924C30.9049 28.8176 31.0006 28.2011 31 27.6456V24.3533C31.0006 23.7978 30.9048 23.1811 30.5901 22.6062C30.2554 21.9945 29.7435 21.5618 29.1533 21.3181C28.1165 20.8899 27.0341 21.1182 26.3974 21.3024C25.0022 21.7062 23.5347 22.5957 22.9557 22.9502L22.7377 23.0836C22.0221 22.4116 21.0591 22 20 22C18.9409 22 17.9779 22.4116 17.2623 23.0836L17.0443 22.9502C16.4653 22.5957 14.9978 21.7062 13.6026 21.3024C12.9659 21.1182 11.8835 20.8899 10.8467 21.3181C10.2565 21.5618 9.74465 21.9945 9.40987 22.6062C9.09521 23.1811 8.99938 23.7978 9 24.3533V27.6456C8.99938 28.2011 9.09512 28.8176 9.40939 29.3924C9.74376 30.004 10.2552 30.4371 10.8455 30.6813C11.8824 31.1102 12.9652 30.882 13.6019 30.6978C14.9971 30.2942 16.4649 29.4044 17.0441 29.0499ZM24 27.3441V26V24.6559C25.2051 23.9181 29.004 21.6756 29 24.3521V27.6468C29.004 30.3249 25.2064 28.0825 24 27.3441ZM20 24C21.1046 24 22 24.8954 22 26C22 27.1046 21.1046 28 20 28C18.8954 28 18 27.1046 18 26C18 24.8954 18.8954 24 20 24ZM16 27.3441C14.7936 28.0825 10.996 30.3249 11 27.6468V24.3521C10.996 21.6756 14.7949 23.9181 16 24.6559V26V27.3441Z" fill="#307FDD"/>
</svg>
