<svg id="Group_71_copy" data-name="Group 71 copy" xmlns="http://www.w3.org/2000/svg" width="40" height="40" viewBox="0 0 40 40">
  <metadata><?xpacket begin="﻿" id="W5M0MpCehiHzreSzNTczkc9d"?>
<x:xmpmeta xmlns:x="adobe:ns:meta/" x:xmptk="Adobe XMP Core 5.6-c142 79.160924, 2017/07/13-01:06:39        ">
   <rdf:RDF xmlns:rdf="http://www.w3.org/1999/02/22-rdf-syntax-ns#">
      <rdf:Description rdf:about=""/>
   </rdf:RDF>
</x:xmpmeta>
                                                                                                    
                                                                                                    
                                                                                                    
                                                                                                    
                                                                                                    
                                                                                                    
                                                                                                    
                                                                                                    
                                                                                                    
                                                                                                    
                                                                                                    
                                                                                                    
                                                                                                    
                                                                                                    
                                                                                                    
                                                                                                    
                                                                                                    
                                                                                                    
                                                                                                    
                                                                                                    
                           
<?xpacket end="w"?></metadata>
<defs>
    <style>
      .cls-1, .cls-2 {
        fill: #2077cf;
        fill-rule: evenodd;
      }

      .cls-2 {
        opacity: 0.1;
      }
    </style>
  </defs>
  <path class="cls-1" d="M1360,1649a10,10,0,0,1-10-10v-20a10,10,0,0,1,20,0v20A10,10,0,0,1,1360,1649Zm8-30a8,8,0,0,0-16,0v20a8,8,0,0,0,16,0v-20Zm-2,18v3a6,6,0,0,1-12,0v-3a5.987,5.987,0,0,1,2.71-5H1356a1,1,0,0,1,0-2h1v-2h-1a1,1,0,0,1,0-2h1v-2h-1a1,1,0,0,1,0-2h1v-1a2.85,2.85,0,0,1,.03-0.29l-2.38-.8a0.991,0.991,0,0,1-.6-1.27,1.012,1.012,0,0,1,1.29-.59l2.52,0.85a2.994,2.994,0,0,1,4.28,0l2.52-.85a1.012,1.012,0,0,1,1.29.59,0.991,0.991,0,0,1-.6,1.27l-2.38.8a2.85,2.85,0,0,1,.03.29v1h1a1,1,0,0,1,0,2h-1v2h1a1,1,0,0,1,0,2h-1v2h1a1,1,0,0,1,0,2h-0.71A5.987,5.987,0,0,1,1366,1637Zm-5-16a1,1,0,0,0-2,0v1h2v-1Zm0,3h-2v2h2v-2Zm0,4h-2v2h2v-2Zm0,5.14V1632h-2v1.14a3.875,3.875,0,0,0-1.38.68,2.99,2.99,0,0,0,4.76,0A3.875,3.875,0,0,0,1361,1633.14Zm3,3.86a3.815,3.815,0,0,0-.35-1.59,4.984,4.984,0,0,1-7.3,0,3.815,3.815,0,0,0-.35,1.59v3a4,4,0,0,0,8,0v-3Zm-19-9.47a8.477,8.477,0,0,1-.06.88l-0.94,14.05h0v0.04a6.5,6.5,0,0,1-13,0v-0.04h0l-0.94-14.05a8.477,8.477,0,0,1-.06-0.88v-0.02h0v-0.01c0-.17.04-0.33,0.05-0.5H1330v-4.5a7.417,7.417,0,0,1,.61-2.9l-0.02-.02,3.71-8.5h0.01a3.49,3.49,0,0,1,6.39.01h0l0.01,0.02c0.01,0.02.01,0.03,0.02,0.05l3.7,8.45-0.02.02a7.436,7.436,0,0,1,.59,2.87v4.5h-0.05c0.01,0.17.05,0.33,0.05,0.5v0.01h0v0.02Zm-2.46-7.22-3.65-8.36a0.488,0.488,0,0,1-.03-0.07l-0.06-.13-0.02.01a1.457,1.457,0,0,0-2.57.02l-0.03-.01-3.72,8.54a5.508,5.508,0,0,0-.45,2.12,7.417,7.417,0,0,1,10.98,0A5.508,5.508,0,0,0,1342.54,1620.31Zm-6.55,22.18H1336v0.01a1.5,1.5,0,0,0,3,.05,0.1,0.1,0,0,0-.01-0.03l1.02-19.59a1.107,1.107,0,0,1,.07-0.26,5.469,5.469,0,0,0-2.58-.67,5.54,5.54,0,0,0-2.59.67,0.887,0.887,0,0,1,.07.28l1.02,19.53A0.01,0.01,0,0,0,1335.99,1642.49Zm7.01-15.06v-0.01a5.525,5.525,0,0,0-1.05-3.14l-0.95,18.21h0v0.01c0,0.04-.01.07-0.01,0.11v0.03a3.5,3.5,0,0,1-6.99-.14v-0.01h0.01l-0.94-18.23a5.507,5.507,0,0,0-1.07,3.16v0.08a5.835,5.835,0,0,0,.05.73l0.95,14.21h0.01c0,0.02-.01.04-0.01,0.06a4.5,4.5,0,0,0,9,0c0-.02-0.01-0.04-0.01-0.06H1342l0.95-14.21a5.835,5.835,0,0,0,.05-0.73v-0.07Z" transform="translate(-1330 -1609)"/>
  <path class="cls-2" d="M1364.6,1642.24l-2.6,2.38-2.06.33-2.06-.44-1.84-1.19-0.97-2.81v-4.34l1.19-1.73,2.27,1.52h2.39l2.16-2.06,1.52,1.51,0.43,2.71Zm-24.7.54-1.51,2.49-1.73-.22-1.09-.97-0.43-1.3-0.76-19.5,0.98-2.16h2.49l2.27,0.11,0.98,1.73-0.55,7.91Z" transform="translate(-1330 -1609)"/>
</svg>
