<svg width="18" height="18" viewBox="0 0 18 18" fill="none" xmlns="http://www.w3.org/2000/svg">
<path fill-rule="evenodd" clip-rule="evenodd" d="M13 0V1C13 0 12.9997 0 13 0H13.0011L13.0023 2.38419e-06L13.0054 1.16229e-05L13.0138 6.25253e-05L13.0391 0.000378489C13.0597 0.000716388 13.0877 0.00135267 13.1224 0.00254714C13.1915 0.00493294 13.2877 0.0095641 13.4048 0.0185705C13.6376 0.0364779 13.9601 0.0722161 14.3211 0.144419C15.0048 0.281159 15.9946 0.58035 16.7071 1.29289C17.4197 2.00544 17.7188 2.99519 17.8556 3.67888C17.9278 4.0399 17.9635 4.36238 17.9814 4.59518C17.9904 4.71226 17.9951 4.80846 17.9975 4.87765C17.9986 4.91229 17.9993 4.94029 17.9996 4.9609L17.9999 4.98623L18 4.99459L18 4.99893C18 4.99919 18 5 17 5H18C18 5.26522 17.8946 5.51957 17.7071 5.70711L11.3494 12.0648C10.791 12.6232 10.0798 13.0038 9.30543 13.1587L9.08652 13.2025C9.08612 13.2026 9.08573 13.2027 9.08533 13.2027L6.66699 13.6864C6.66719 13.6864 6.66679 13.6864 6.66699 13.6864L5.19612 13.9806C4.86826 14.0462 4.52932 13.9435 4.29289 13.7071C4.05647 13.4707 3.95385 13.1317 4.01942 12.8039L4.84128 8.69457C4.99615 7.92021 5.37677 7.20901 5.93518 6.65061L12.2929 0.292893C12.4804 0.105357 12.7348 0 13 0ZM6.73349 9.43157L6.27476 11.7252L8.56843 11.2665C8.35941 10.8949 8.09802 10.5122 7.79289 10.2071C7.48776 9.90198 7.1051 9.64059 6.73349 9.43157ZM10.3073 10.2784C10.0413 9.80641 9.67732 9.26311 9.20711 8.79289C8.73689 8.32268 8.19359 7.95872 7.72156 7.69265L13.3892 2.02498C13.5431 2.04058 13.7291 2.06563 13.9289 2.10558C14.4952 2.21884 15.0054 2.41965 15.2929 2.70711C15.5803 2.99456 15.7812 3.50481 15.8944 4.07112C15.9344 4.27088 15.9594 4.45691 15.975 4.61077L10.3073 10.2784Z" fill="#999999"/>
<path d="M4 5C2.89543 5 2 5.89543 2 7V14C2 15.1046 2.89543 16 4 16H11C12.1046 16 13 15.1046 13 14V13C13 12.4477 13.4477 12 14 12C14.5523 12 15 12.4477 15 13V14C15 16.2091 13.2091 18 11 18H4C1.79086 18 0 16.2091 0 14V7C0 4.79086 1.79086 3 4 3H5C5.55228 3 6 3.44772 6 4C6 4.55228 5.55228 5 5 5H4Z" fill="#999999"/>
</svg>
