<svg width="18" height="18" viewBox="0 0 18 18" fill="none" xmlns="http://www.w3.org/2000/svg">
<path fill-rule="evenodd" clip-rule="evenodd" d="M3 0C1.34315 0 0 1.34314 0 3V12.4988C0 13.7831 1.5087 14.4735 2.48055 13.634L4 12.3214V13C4 14.6569 5.34315 16 7 16H13.6281L15.5198 17.6331C16.4917 18.4722 18 17.7817 18 16.4977V7C18 5.34315 16.6569 4 15 4H14V3C14 1.34315 12.6569 0 11 0H3ZM14 6V9C14 10.6569 12.6569 12 11 12H6V13C6 13.5523 6.44772 14 7 14H13.6281C14.1079 14 14.5718 14.1725 14.935 14.4861L16 15.4055V7C16 6.44772 15.5523 6 15 6H14ZM2 3C2 2.44772 2.44771 2 3 2H11C11.5523 2 12 2.44772 12 3V9C12 9.55229 11.5523 10 11 10H4.37211C3.89204 10 3.428 10.1727 3.06471 10.4865L2 11.4062V3Z" fill="#999999"/>
</svg>
